<?xml version="1.0" encoding="UTF-8" standalone="no"?>
<svg
   xmlns:xhtml="http://www.w3.org/1999/xhtml"
   xmlns:dc="http://purl.org/dc/elements/1.1/"
   xmlns:cc="http://creativecommons.org/ns#"
   xmlns:rdf="http://www.w3.org/1999/02/22-rdf-syntax-ns#"
   xmlns:svg="http://www.w3.org/2000/svg"
   xmlns="http://www.w3.org/2000/svg"
   xmlns:sodipodi="http://sodipodi.sourceforge.net/DTD/sodipodi-0.dtd"
   xmlns:inkscape="http://www.inkscape.org/namespaces/inkscape"
   version="1.1"
   width="572"
   height="602"
   id="svg2"
   inkscape:version="0.48.4 r9939"
   sodipodi:docname="be.svg">
  <metadata
     id="metadata764">
    <rdf:RDF>
      <cc:Work
         rdf:about="">
        <dc:format>image/svg+xml</dc:format>
        <dc:type
           rdf:resource="http://purl.org/dc/dcmitype/StillImage" />
        <dc:title></dc:title>
      </cc:Work>
    </rdf:RDF>
  </metadata>
  <sodipodi:namedview
     pagecolor="#ffffff"
     bordercolor="#666666"
     borderopacity="1"
     objecttolerance="10"
     gridtolerance="10"
     guidetolerance="10"
     inkscape:pageopacity="0"
     inkscape:pageshadow="2"
     inkscape:window-width="1301"
     inkscape:window-height="744"
     id="namedview762"
     showgrid="false"
     inkscape:zoom="0.5"
     inkscape:cx="203.91666"
     inkscape:cy="421.35568"
     inkscape:window-x="65"
     inkscape:window-y="24"
     inkscape:window-maximized="1"
     inkscape:current-layer="g6"
     fit-margin-top="0"
     fit-margin-left="0"
     fit-margin-right="0"
     fit-margin-bottom="0" />
  <xhtml:style />
  <defs
     id="defs4">
    <marker
       inkscape:stockid="Arrow1Mend"
       orient="auto"
       refY="0"
       refX="0"
       id="Arrow1Mend"
       style="overflow:visible">
      <path
         id="path4524"
         d="M 0,0 5,-5 -12.5,0 5,5 0,0 z"
         style="fill-rule:evenodd;stroke:#000000;stroke-width:1pt"
         transform="matrix(-0.4,0,0,-0.4,-4,0)"
         inkscape:connector-curvature="0" />
    </marker>
    <marker
       inkscape:stockid="Arrow1Lend"
       orient="auto"
       refY="0"
       refX="0"
       id="Arrow1Lend"
       style="overflow:visible">
      <path
         id="path4518"
         d="M 0,0 5,-5 -12.5,0 5,5 0,0 z"
         style="fill-rule:evenodd;stroke:#000000;stroke-width:1pt"
         transform="matrix(-0.8,0,0,-0.8,-10,0)"
         inkscape:connector-curvature="0" />
    </marker>
  </defs>
  <g
     id="g6"
     transform="translate(-169,-259)">
    <g
       id="g14"
       transform="translate(170,260)">
      <g
         id="g16"
         transform="scale(3.6,1.6)">
        <g
           id="g18">
          <path
             style="fill:#ffffff;stroke:none"
             inkscape:connector-curvature="0"
             id="path20"
             d="m 0,0 100,0 q 0,0 0,0 l 0,100 q 0,0 0,0 L 0,100 q 0,0 0,0 L 0,0 q 0,0 0,0 z" />
          <g
             id="g22"
             transform="scale(0.27777778,0.625)">
            <path
               style="fill:none;stroke:none"
               inkscape:connector-curvature="0"
               id="path24"
               d="m 0,0 360,0 q 0,0 0,0 l 0,160 q 0,0 0,0 L 0,160 q 0,0 0,0 L 0,0 q 0,0 0,0 z" />
            <path
               style="fill:none;stroke:#333333;stroke-width:2;stroke-miterlimit:10"
               inkscape:connector-curvature="0"
               id="path26"
               stroke-miterlimit="10"
               d="m 0,0 m 0,0 360,0 q 0,0 0,0 l 0,160 q 0,0 0,0 L 0,160 q 0,0 0,0 L 0,0 q 0,0 0,0 z" />
          </g>
        </g>
      </g>
    </g>
    <g
       transform="translate(200,300)"
       id="g28">
      <g
         id="g30">
        <g
           id="g32">
          <g
             id="g34">
            <g
               id="g36">
              <path
                 d="M 50,0 100,50 50,100 0,50 50,0 z"
                 id="path38"
                 inkscape:connector-curvature="0"
                 style="fill:#ffffff;stroke:none" />
              <path
                 d="M 50,0 M 50,0 100,50 50,100 0,50 50,0 z"
                 stroke-miterlimit="10"
                 id="path40"
                 inkscape:connector-curvature="0"
                 style="fill:none;stroke:#333333;stroke-width:2;stroke-miterlimit:10" />
            </g>
          </g>
        </g>
      </g>
    </g>
    <g
       transform="translate(375,312.5)"
       id="g138">
      <g
         id="g140">
        <g
           transform="scale(1,0.75)"
           id="g142">
          <g
             id="g144">
            <path
               d="m 0,0 100,0 q 0,0 0,0 l 0,100 q 0,0 0,0 L 0,100 q 0,0 0,0 L 0,0 q 0,0 0,0 z"
               id="path146"
               inkscape:connector-curvature="0"
               style="fill:#ffffff;stroke:none" />
            <g
               transform="scale(1,1.3333333)"
               id="g148">
              <path
                 d="m 0,0 100,0 q 0,0 0,0 l 0,75 q 0,0 0,0 L 0,75 q 0,0 0,0 L 0,0 q 0,0 0,0 z"
                 id="path150"
                 inkscape:connector-curvature="0"
                 style="fill:none;stroke:none" />
              <path
                 d="m 0,0 m 0,0 100,0 q 0,0 0,0 l 0,75 q 0,0 0,0 L 0,75 q 0,0 0,0 L 0,0 q 0,0 0,0 z"
                 stroke-miterlimit="10"
                 id="path152"
                 inkscape:connector-curvature="0"
                 style="fill:none;stroke:#333333;stroke-width:2;stroke-miterlimit:10" />
            </g>
          </g>
        </g>
      </g>
    </g>
    <g
       transform="translate(275,460)"
       id="g232">
      <g
         id="g234">
        <g
           transform="scale(1.5,1)"
           id="g236">
          <g
             id="g238">
            <g
               transform="scale(0.66666667,1)"
               id="g240">
              <path
                 d="M 75,0 150,50 75,100 0,50 75,0 z"
                 id="path242"
                 inkscape:connector-curvature="0"
                 style="fill:#ffffff;stroke:none" />
              <path
                 d="M 75,0 M 75,0 150,50 75,100 0,50 75,0 z"
                 stroke-miterlimit="10"
                 id="path244"
                 inkscape:connector-curvature="0"
                 style="fill:none;stroke:#333333;stroke-width:2;stroke-miterlimit:10" />
            </g>
          </g>
        </g>
      </g>
    </g>
    <g
       transform="translate(640,472.5)"
       id="g328">
      <g
         id="g330">
        <g
           transform="scale(1,0.75)"
           id="g332">
          <g
             id="g334">
            <path
               d="m 0,0 100,0 q 0,0 0,0 l 0,100 q 0,0 0,0 L 0,100 q 0,0 0,0 L 0,0 q 0,0 0,0 z"
               id="path336"
               inkscape:connector-curvature="0"
               style="fill:#ffffff;stroke:none" />
            <g
               transform="scale(1,1.3333333)"
               id="g338">
              <path
                 d="m 0,0 100,0 q 0,0 0,0 l 0,75 q 0,0 0,0 L 0,75 q 0,0 0,0 L 0,0 q 0,0 0,0 z"
                 id="path340"
                 inkscape:connector-curvature="0"
                 style="fill:none;stroke:none" />
              <path
                 d="m 0,0 m 0,0 100,0 q 0,0 0,0 l 0,75 q 0,0 0,0 L 0,75 q 0,0 0,0 L 0,0 q 0,0 0,0 z"
                 stroke-miterlimit="10"
                 id="path342"
                 inkscape:connector-curvature="0"
                 style="fill:none;stroke:#333333;stroke-width:2;stroke-miterlimit:10" />
            </g>
          </g>
        </g>
      </g>
    </g>
    <g
       transform="translate(640,590)"
       id="g460">
      <g
         id="g462">
        <g
           transform="scale(1,0.75)"
           id="g464">
          <g
             id="g466">
            <path
               d="m 0,0 100,0 q 0,0 0,0 l 0,100 q 0,0 0,0 L 0,100 q 0,0 0,0 L 0,0 q 0,0 0,0 z"
               id="path468"
               inkscape:connector-curvature="0"
               style="fill:#ffffff;stroke:none" />
            <g
               transform="scale(1,1.3333333)"
               id="g470">
              <path
                 d="m 0,0 100,0 q 0,0 0,0 l 0,75 q 0,0 0,0 L 0,75 q 0,0 0,0 L 0,0 q 0,0 0,0 z"
                 id="path472"
                 inkscape:connector-curvature="0"
                 style="fill:none;stroke:none" />
              <path
                 d="m 0,0 m 0,0 100,0 q 0,0 0,0 l 0,75 q 0,0 0,0 L 0,75 q 0,0 0,0 L 0,0 q 0,0 0,0 z"
                 stroke-miterlimit="10"
                 id="path474"
                 inkscape:connector-curvature="0"
                 style="fill:none;stroke:#333333;stroke-width:2;stroke-miterlimit:10" />
            </g>
          </g>
        </g>
      </g>
    </g>
    <g
       transform="translate(654.33301,710)"
       id="g524">
      <g
         id="g526">
        <g
           transform="scale(1,0.75)"
           id="g528">
          <g
             id="g530">
            <path
               d="m 0,0 100,0 q 0,0 0,0 l 0,100 q 0,0 0,0 L 0,100 q 0,0 0,0 L 0,0 q 0,0 0,0 z"
               id="path532"
               inkscape:connector-curvature="0"
               style="fill:#ffffff;stroke:none" />
            <g
               transform="scale(1,1.3333333)"
               id="g534">
              <path
                 d="m 0,0 100,0 q 0,0 0,0 l 0,75 q 0,0 0,0 L 0,75 q 0,0 0,0 L 0,0 q 0,0 0,0 z"
                 id="path536"
                 inkscape:connector-curvature="0"
                 style="fill:none;stroke:none" />
              <path
                 d="m 0,0 m 0,0 100,0 q 0,0 0,0 l 0,75 q 0,0 0,0 L 0,75 q 0,0 0,0 L 0,0 q 0,0 0,0 z"
                 stroke-miterlimit="10"
                 id="path538"
                 inkscape:connector-curvature="0"
                 style="fill:none;stroke:#333333;stroke-width:2;stroke-miterlimit:10" />
            </g>
          </g>
        </g>
      </g>
    </g>
    <g
       transform="translate(300,710)"
       id="g590">
      <g
         id="g592">
        <g
           transform="scale(1,0.75)"
           id="g594">
          <g
             id="g596">
            <path
               d="m 0,0 100,0 q 0,0 0,0 l 0,100 q 0,0 0,0 L 0,100 q 0,0 0,0 L 0,0 q 0,0 0,0 z"
               id="path598"
               inkscape:connector-curvature="0"
               style="fill:#ffffff;stroke:none" />
            <g
               transform="scale(1,1.3333333)"
               id="g600">
              <path
                 d="m 0,0 100,0 q 0,0 0,0 l 0,75 q 0,0 0,0 L 0,75 q 0,0 0,0 L 0,0 q 0,0 0,0 z"
                 id="path602"
                 inkscape:connector-curvature="0"
                 style="fill:none;stroke:none" />
              <path
                 d="m 0,0 m 0,0 100,0 q 0,0 0,0 l 0,75 q 0,0 0,0 L 0,75 q 0,0 0,0 L 0,0 q 0,0 0,0 z"
                 stroke-miterlimit="10"
                 id="path604"
                 inkscape:connector-curvature="0"
                 style="fill:none;stroke:#333333;stroke-width:2;stroke-miterlimit:10" />
            </g>
          </g>
        </g>
      </g>
    </g>
    <g
       transform="translate(330,820)"
       id="g716">
      <g
         id="g718">
        <g
           transform="scale(0.4,0.4)"
           id="g720">
          <g
             id="g722">
            <path
               d="m 100,50 a 50,50 0 1 0 -2.5e-5,0.05 z"
               id="path724"
               inkscape:connector-curvature="0"
               style="fill:#ffffff;stroke:none" />
            <g
               transform="scale(2.5,2.5)"
               id="g726">
              <path
                 d="m 20,0 m 0,0 C 31.045694,0 40,8.954306 40,20 40,31.045694 31.045694,40 20,40 8.954306,40 0,31.045694 0,20 0,8.954306 8.954306,0 20,0 z"
                 stroke-miterlimit="10"
                 id="path728"
                 inkscape:connector-curvature="0"
                 style="fill:none;stroke:#333333;stroke-width:2;stroke-miterlimit:10" />
            </g>
          </g>
        </g>
      </g>
    </g>
    <path
       style="fill:none;stroke:#000000;stroke-width:1.5;stroke-linecap:butt;stroke-linejoin:miter;stroke-miterlimit:4;stroke-opacity:1;stroke-dasharray:none;marker-end:url(#Arrow1Mend)"
       d="m 300.16949,350.50847 72.71187,0"
       id="path3741"
       inkscape:connector-curvature="0" />
    <path
       style="fill:none;stroke:#000000;stroke-width:1.5;stroke-linecap:butt;stroke-linejoin:miter;stroke-miterlimit:4;stroke-opacity:1;stroke-dasharray:none;marker-end:url(#Arrow1Mend)"
       d="m 350.04237,420.65678 0,38.45339"
       id="path5141"
       inkscape:connector-curvature="0" />
    <path
       style="fill:none;stroke:#000000;stroke-width:1.5;stroke-linecap:butt;stroke-linejoin:miter;stroke-miterlimit:4;stroke-opacity:1;stroke-dasharray:none;marker-mid:none;marker-end:url(#Arrow1Mend)"
       d="m 426.15169,509.87754 211.26313,0"
       id="path5327"
       inkscape:connector-curvature="0" />
    <path
       style="fill:none;stroke:#000000;stroke-width:1.48424578;stroke-linecap:butt;stroke-linejoin:miter;stroke-miterlimit:4;stroke-opacity:1;stroke-dasharray:none;marker-end:url(#Arrow1Mend)"
       d="m 689.98341,548.43095 0,38.76864"
       id="path5697"
       inkscape:connector-curvature="0" />
    <path
       style="fill:none;stroke:#000000;stroke-width:1.46825218;stroke-linecap:butt;stroke-linejoin:miter;stroke-miterlimit:4;stroke-opacity:1;stroke-dasharray:none;marker-end:url(#Arrow1Mend)"
       d="m 689.98341,665.58995 0,41.11851"
       id="path5883"
       inkscape:connector-curvature="0" />
    <path
       style="fill:none;stroke:#000000;stroke-width:1.53923452;stroke-linecap:butt;stroke-linejoin:miter;stroke-miterlimit:4;stroke-opacity:1;stroke-dasharray:none;marker-end:url(#Arrow1Mend)"
       d="m 653.41952,747.48677 -250.61949,0"
       id="path6069"
       inkscape:connector-curvature="0" />
    <path
       style="fill:none;stroke:#000000;stroke-width:1.5;stroke-linecap:butt;stroke-linejoin:miter;stroke-miterlimit:4;stroke-opacity:1;stroke-dasharray:none;stroke-dashoffset:0;marker-end:url(#Arrow1Mend)"
       d="m 349.98411,561.12818 0,146.12288"
       id="path6255"
       inkscape:connector-curvature="0" />
    <path
       style="fill:none;stroke:#000000;stroke-width:1.5;stroke-linecap:butt;stroke-linejoin:miter;stroke-miterlimit:4;stroke-opacity:1;stroke-dasharray:none;marker-end:url(#Arrow1Mend)"
       d="m 349.97666,786.10985 0,30.96642"
       id="path6441"
       inkscape:connector-curvature="0" />
    <text
       xml:space="preserve"
       style="font-size:20px;font-style:normal;font-weight:normal;line-height:125%;letter-spacing:0px;word-spacing:0px;writing-mode:lr-tb;fill:#000000;fill-opacity:1;stroke:none;font-family:Sans"
       x="249.50685"
       y="343.22406"
       id="text6825"
       sodipodi:linespacing="125%"><tspan
         sodipodi:role="line"
         id="tspan6827"
         x="249.50685"
         y="343.22406"
         style="font-size:12px;text-align:center;text-anchor:middle">if out</tspan><tspan
         sodipodi:role="line"
         x="249.50685"
         y="358.22406"
         id="tspan6829"
         style="font-size:12px;text-align:center;text-anchor:middle">of bounds</tspan></text>
    <text
       xml:space="preserve"
       style="font-size:12px;font-style:normal;font-weight:normal;line-height:125%;letter-spacing:0px;word-spacing:0px;writing-mode:lr;fill:#000000;fill-opacity:1;stroke:none;font-family:Sans"
       x="151.60849"
       y="84.224052"
       id="text6831"
       sodipodi:linespacing="125%"
       transform="translate(169,259)"><tspan
         sodipodi:role="line"
         id="tspan6833"
         x="84.224052"
         y="151.60849">yes</tspan></text>
    <text
       xml:space="preserve"
       style="font-size:12px;font-style:normal;font-weight:normal;line-height:125%;letter-spacing:0px;word-spacing:0px;writing-mode:lr-tb;fill:#000000;fill-opacity:1;stroke:none;font-family:Sans"
       x="384.54773"
       y="353.44113"
       id="text6835"
       sodipodi:linespacing="125%"><tspan
         sodipodi:role="line"
         id="tspan6837"
         x="384.54773"
         y="353.44113">change of cell</tspan></text>
    <text
       xml:space="preserve"
       style="font-size:12px;font-style:normal;font-weight:normal;line-height:125%;letter-spacing:0px;word-spacing:0px;writing-mode:lr-tb;fill:#000000;fill-opacity:1;stroke:none;font-family:Sans"
       x="351.90179"
       y="507.21439"
       id="text7241"
       sodipodi:linespacing="125%"><tspan
         sodipodi:role="line"
         id="tspan7243"
         x="300.87543"
         y="507.21439"
         style="text-anchor:middle;text-align:center">if main character</tspan><tspan
         sodipodi:role="line"
         x="300.87543"
         y="522.21436"
         id="tspan7245"
         style="text-anchor:middle;text-align:center">changed of cell</tspan></text>
    <text
       xml:space="preserve"
       style="font-size:12px;font-style:normal;font-weight:normal;line-height:125%;letter-spacing:0px;word-spacing:0px;writing-mode:lr-tb;fill:#000000;fill-opacity:1;stroke:none;font-family:Sans"
       x="189.15106"
       y="327.28903"
       id="text7247"
       sodipodi:linespacing="125%"
       transform="translate(169,259)"><tspan
         sodipodi:role="line"
         id="tspan7249"
         x="189.15106"
         y="327.28903">no</tspan></text>
    <text
       xml:space="preserve"
       style="font-size:12px;font-style:normal;font-weight:normal;line-height:125%;letter-spacing:0px;word-spacing:0px;writing-mode:lr-tb;fill:#000000;fill-opacity:1;stroke:none;font-family:Sans"
       x="531.30212"
       y="504.37555"
       id="text7251"
       sodipodi:linespacing="125%"><tspan
         sodipodi:role="line"
         id="tspan7253"
         x="531.30212"
         y="504.37555">yes</tspan></text>
    <text
       xml:space="preserve"
       style="font-size:12px;font-style:normal;font-weight:normal;line-height:125%;letter-spacing:0px;word-spacing:0px;writing-mode:lr-tb;fill:#000000;fill-opacity:1;stroke:none;font-family:Sans;text-anchor:middle;text-align:center"
       x="689.33789"
       y="506.97363"
       id="text7255"
       sodipodi:linespacing="125%"><tspan
         sodipodi:role="line"
         id="tspan7257"
         x="647.13281"
         y="506.97363">change origin</tspan><tspan
         sodipodi:role="line"
         x="647.13281"
         y="521.97363"
         id="tspan7259">of coordinates</tspan></text>
    <text
       xml:space="preserve"
       style="font-size:12px;font-style:normal;font-weight:normal;line-height:125%;letter-spacing:0px;word-spacing:0px;writing-mode:lr-tb;fill:#000000;fill-opacity:1;stroke:none;font-family:Sans"
       x="690"
       y="624.47363"
       id="text7261"
       sodipodi:linespacing="125%"><tspan
         sodipodi:role="line"
         id="tspan7263"
         x="690"
         y="624.47363"
         style="text-align:center;text-anchor:middle">release old</tspan><tspan
         sodipodi:role="line"
         x="690"
         y="639.47363"
         id="tspan7265"
         style="text-align:center;text-anchor:middle">cells</tspan></text>
    <text
       xml:space="preserve"
       style="font-size:12px;font-style:normal;font-weight:normal;line-height:125%;letter-spacing:0px;word-spacing:0px;writing-mode:lr-tb;fill:#000000;fill-opacity:1;stroke:none;font-family:Sans"
       x="661.55957"
       y="751.97363"
       id="text7267"
       sodipodi:linespacing="125%"><tspan
         sodipodi:role="line"
         id="tspan7269"
         x="661.55957"
         y="751.97363">load new cells</tspan></text>
    <text
       xml:space="preserve"
       style="font-size:12px;font-style:normal;font-weight:normal;line-height:125%;letter-spacing:0px;word-spacing:0px;writing-mode:lr-tb;fill:#000000;fill-opacity:1;stroke:none;font-family:Sans"
       x="350"
       y="743.76758"
       id="text7271"
       sodipodi:linespacing="125%"><tspan
         sodipodi:role="line"
         id="tspan7273"
         x="350"
         y="743.76758"
         style="text-align:center;text-anchor:middle">parse loaded</tspan><tspan
         sodipodi:role="line"
         x="350"
         y="758.76758"
         id="tspan7275"
         style="text-align:center;text-anchor:middle">cells (XML)</tspan></text>
    <text
       xml:space="preserve"
       style="font-size:12px;font-style:normal;font-weight:normal;line-height:125%;letter-spacing:0px;word-spacing:0px;writing-mode:lr-tb;fill:#000000;fill-opacity:1;stroke:none;font-family:Sans"
       x="338.90527"
       y="844.47363"
       id="text7277"
       sodipodi:linespacing="125%"><tspan
         sodipodi:role="line"
         id="tspan7279"
         x="338.90527"
         y="844.47363">end</tspan></text>
    <text
       xml:space="preserve"
       style="font-size:12px;font-style:normal;font-weight:normal;line-height:125%;letter-spacing:0px;word-spacing:0px;writing-mode:lr-tb;fill:#000000;fill-opacity:1;stroke:none;font-family:Sans"
       x="287.56497"
       y="282.55026"
       id="text7281"
       sodipodi:linespacing="125%"><tspan
         sodipodi:role="line"
         id="tspan7283"
         x="287.56497"
         y="282.55026">FOR EACH ENTITY</tspan></text>
  </g>
</svg>
