<?xml version="1.0" encoding="UTF-8" standalone="no"?>
<!-- Created with Inkscape (http://www.inkscape.org/) -->

<svg
   xmlns:dc="http://purl.org/dc/elements/1.1/"
   xmlns:cc="http://creativecommons.org/ns#"
   xmlns:rdf="http://www.w3.org/1999/02/22-rdf-syntax-ns#"
   xmlns:svg="http://www.w3.org/2000/svg"
   xmlns="http://www.w3.org/2000/svg"
   xmlns:sodipodi="http://sodipodi.sourceforge.net/DTD/sodipodi-0.dtd"
   xmlns:inkscape="http://www.inkscape.org/namespaces/inkscape"
   width="595.53497"
   height="326.72302"
   id="svg2"
   version="1.1"
   inkscape:version="0.48.4 r9939"
   inkscape:export-filename="/home/tuket/Pictures/scan/mej.png"
   inkscape:export-xdpi="90"
   inkscape:export-ydpi="90"
   sodipodi:docname="comic2.pdf">
  <defs
     id="defs4" />
  <sodipodi:namedview
     id="base"
     pagecolor="#ffffff"
     bordercolor="#666666"
     borderopacity="1.0"
     inkscape:pageopacity="0.0"
     inkscape:pageshadow="2"
     inkscape:zoom="1.8101934"
     inkscape:cx="288.45973"
     inkscape:cy="87.414596"
     inkscape:document-units="px"
     inkscape:current-layer="layer1"
     showgrid="false"
     inkscape:window-width="1301"
     inkscape:window-height="744"
     inkscape:window-x="65"
     inkscape:window-y="24"
     inkscape:window-maximized="1"
     fit-margin-top="0"
     fit-margin-left="0"
     fit-margin-right="0"
     fit-margin-bottom="0" />
  <metadata
     id="metadata7">
    <rdf:RDF>
      <cc:Work
         rdf:about="">
        <dc:format>image/svg+xml</dc:format>
        <dc:type
           rdf:resource="http://purl.org/dc/dcmitype/StillImage" />
        <dc:title></dc:title>
      </cc:Work>
    </rdf:RDF>
  </metadata>
  <g
     inkscape:label="Layer 1"
     inkscape:groupmode="layer"
     id="layer1"
     transform="translate(-58.426573,-100.62312)">
    <path
       style="fill:#000000"
       d="m 627.79511,426.97343 c -0.32695,-0.327 -26.40616,-1.2357 -57.95382,-2.0195 -61.61107,-1.5307 -147.51132,-4.7927 -167.85937,-6.3743 -6.875,-0.5344 -47.62746,-1.2061 -90.56103,-1.4927 -60.18242,-0.4018 -78.96318,-0.8187 -82,-1.8204 l -3.93897,-1.2992 0.26809,-25.4869 c 0.14745,-14.01778 0.75144,-37.18687 1.3422,-51.48687 0.72089,-17.44954 0.74433,-26.84847 0.0713,-28.58001 -0.67804,-1.74442 -2.40822,-3.08724 -5.34221,-4.14618 -4.73694,-1.70967 -23.49982,-6.0333 -45.12355,-10.39806 -15.45592,-3.11978 -16.90241,-4.44434 -8.32956,-7.62737 5.76208,-2.13942 32.35186,-7.51735 45.08875,-9.11946 10.60212,-1.33358 11.48654,-2.29013 11.51024,-12.44882 l 0.0147,-6.31991 22.75,0.81991 c 36.6548,1.32103 100.92812,1.02033 115.09728,-0.53847 10.64766,-1.17139 17.53021,-1.13544 50,0.26118 20.709,0.89076 54.75272,2.05053 75.65272,2.57728 20.9,0.52675 45.425,1.62697 54.5,2.44493 27.68789,2.49562 49.8551,3.57498 73.4205,3.57498 12.37379,0 25.88662,0.50402 30.0285,1.12005 l 7.53069,1.12005 -0.51801,18.12995 c -1.19713,41.8981 -3.92482,76.84913 -6.68284,85.62995 -0.60463,1.925 -1.36472,14.75 -1.68909,28.49997 l -0.58975,25 -8.04618,0.2872 c -4.42541,0.1579 -8.31369,0.02 -8.64063,-0.3073 z m 14.3302,-3.1004 c 0.35386,-0.2011 0.61326,-9.4813 0.57645,-20.6226 -0.0586,-17.73081 0.26151,-22.06504 2.56693,-34.75687 2.96586,-16.32773 4.70313,-36.54875 4.70916,-54.81261 0.002,-6.77193 0.48933,-18.84918 1.08241,-26.83832 0.59309,-7.98914 0.88941,-14.71465 0.65849,-14.94558 -1.38554,-1.38553 -21.17876,-2.59862 -47.23683,-2.89506 -19.46166,-0.22139 -38.43067,-1.0808 -54,-2.44653 -24.88153,-2.18258 -49.93443,-3.27896 -115.5,-5.05459 -47.88216,-1.29673 -71.04159,-1.28801 -82,0.0309 -11.36408,1.3677 -68.58088,1.27022 -98.8065,-0.16834 -14.27213,-0.67927 -24.67389,-0.78798 -25.19645,-0.26334 -0.48947,0.49142 -1.48807,4.48427 -2.2191,8.87298 l -1.32916,7.97948 -9.97439,1.17855 c -18.86223,2.22869 -47.4744,8.40691 -47.4744,10.2511 0,0.45803 2.1375,1.08734 4.75,1.39847 7.28102,0.86711 49.84203,10.51559 53.94122,12.22834 l 3.6265,1.51525 -0.65945,22.23465 c -0.36269,12.22906 -0.95545,36.45103 -1.31724,53.8266 l -0.6578,31.59192 2.40838,0.7382 c 3.9009,1.1955 70.82873,2.6512 119.40839,2.597 24.75,-0.028 50.4,0.4012 57,0.9528 24.84208,2.0766 105.92461,5.1747 173,6.6103 16.5,0.3531 35.175,0.977 41.5,1.3864 10.31323,0.6676 19.37687,0.415 21.14339,-0.5891 z m -448.8331,-47.01324 c -0.34481,-0.89858 -0.10504,-7.53608 0.53283,-14.75 1.67796,-18.97672 1.53865,-27.0543 -0.49574,-28.74379 -1.16638,-0.96863 -6.38888,-1.56519 -17.75,-2.02757 -8.85356,-0.36032 -17.67238,-0.95492 -19.59738,-1.32134 -6.76189,-1.28712 -7.04343,-0.49418 -7.81526,22.01077 l -0.68474,19.9657 -4.78314,0.30614 c -4.53118,0.29002 -4.75778,0.18467 -4.30154,-2 0.74908,-3.58696 2.89709,-38.82706 2.39712,-39.32703 -0.24469,-0.2447 -1.84509,-0.0433 -3.55642,0.44746 -3.45057,0.98962 -4.26709,0.0738 -4.24236,-4.75836 0.0335,-6.54905 0.68513,-7.16821 7.54395,-7.16821 3.4784,0 6.58166,-0.41632 6.89613,-0.92515 0.34674,-0.56104 -5.43531,-0.69552 -14.69098,-0.34168 l -15.26276,0.58347 -11.5,10.83498 c -7.018554,6.61268 -12.312854,10.83759 -13.585894,10.84168 -1.14724,0.004 -4.16066,-1.60974 -6.69649,-3.58539 -2.53583,-1.97564 -5.04256,-3.32512 -5.57051,-2.99883 -0.52794,0.32629 -1.64381,2.60042 -2.4797,5.05362 l -1.5198,4.46038 11.4265,0 c 6.28458,0 13.277554,0.49843 15.539934,1.10763 l 4.11343,1.10763 -0.65891,9.68083 c -0.36241,5.32446 -0.88592,10.85724 -1.16338,12.29508 -0.46285,2.39863 -0.17043,2.66767 3.54518,3.26182 5.19898,0.83135 5.25693,2.62393 0.0848,2.62393 -5.70939,0 -6.29324,-1.6589 -4.89906,-13.91963 1.51806,-13.35004 1.8159,-13.04784 -13.008574,-13.19868 -13.48598,-0.13723 -17.69392,-0.83968 -17.46829,-2.91607 0.0876,-0.80609 1.19779,-3.84795 2.46709,-6.75969 1.71296,-3.92947 2.04132,-5.71656 1.2739,-6.93317 -1.27726,-2.02488 -4.11913,-3.88722 -4.83673,-3.16961 -1.18525,1.18524 -2.76029,21.10008 -1.74879,22.11159 0.56111,0.56111 6.56984,1.30484 13.35273,1.65273 l 12.33254,0.63253 -0.25611,5.5 c -0.14086,3.025 -0.50891,7.84784 -0.81789,10.71742 -0.53839,5.00027 -0.7043,5.24416 -3.98636,5.85988 -5.70148,1.06961 -6.43964,0.27107 -6.43964,-6.96632 l 0,-6.45179 -6.42073,-0.6876 c -3.5314,-0.37819 -6.86055,-0.41578 -7.39811,-0.0836 -0.53756,0.33223 -1.2939,3.75583 -1.68076,7.60801 l -0.70338,7.004 -4.83949,0 c -2.66172,0 -5.11084,-0.43905 -5.44249,-0.97566 -0.33164,-0.53661 0.54129,-10.09911 1.93985,-21.25 1.88822,-15.05495 5.38901,-58.01359 5.53547,-67.92651 0.0151,-1.02381 6.12621,-2.89382 7.22917,-2.21215 0.96746,0.59792 0.30714,23.57455 -0.85108,29.61432 -0.31023,1.61771 -0.086,2.75 0.5446,2.75 0.96999,0 14.88049,-11.23487 24.33983,-19.65816 2.06409,-1.83801 4.322964,-3.34184 5.019724,-3.34184 0.69677,0 3.0491,2.25 5.2274,5 4.34335,5.48326 6.21457,6.07859 9.09501,2.89359 1.04775,-1.15852 3.57744,-2.95999 5.62155,-4.00327 2.04411,-1.04327 4.2366,-2.90788 4.87219,-4.14359 0.63559,-1.2357 2.30983,-3.48423 3.72053,-4.99673 2.10324,-2.25502 3.42098,-2.75 7.32111,-2.75 3.78131,0 5.07528,0.45555 6.31291,2.22251 3.52021,5.0258 0.28644,10.69609 -7.25867,12.72777 -3.25946,0.87769 -4.81827,0.77999 -8.02457,-0.50292 -3.53712,-1.41527 -4.29493,-1.42802 -6.81968,-0.11479 -1.56221,0.81257 -3.89122,2.60247 -5.17558,3.97756 -2.22346,2.38052 -2.25653,2.62023 -0.69118,5.00927 1.71236,2.61338 2.35426,2.76884 17.52638,4.24459 3.575,0.34773 8.51936,1.51005 10.98746,2.58293 2.48841,1.08171 5.49536,1.69773 6.75,1.38284 2.43146,-0.61026 3.08619,-3.02906 1.8182,-5.0574 -0.47211,-0.75521 -1.02788,-0.22622 0.94434,-1.90656 l 2.36523,-2.21422 1.53754,2.45214 c 0.88064,1.40448 2.45596,4.79444 3.51879,7.35887 l 0.36993,4.8579 8.3855,0.55439 c 3.76702,0.24905 11.09801,0.81439 16.32301,0.89346 5.225,0.0791 13.6625,0.23103 18.75,0.33771 l 9.25,0.19395 0.41432,4 -0.41432,4 -4.95469,0 c -5.96337,0 -5.48616,-1.6872 -7.07103,25 -0.60427,10.175 -1.33379,19.46998 -1.62117,20.65552 -0.79398,3.27549 -6.94066,4.58289 -8.04282,1.71071 z m 6.58794,-3.61623 c 0.46681,-1.2375 1.14406,-9.9 1.50501,-19.25 0.36095,-9.35 0.91011,-19.1375 1.22035,-21.75 0.55745,-4.69409 -1.12992,-2.8164 4.08214,-3.97365 1.68205,-0.37347 3.67427,0.001 5.03982,-0.0836 1.36433,-0.0847 2.10312,-0.38311 1.28202,-3.75804 -0.27246,-1.11989 -74.90694,-3.19493 -76.76095,-2.48348 -0.69664,0.26733 -1.26662,1.85017 -1.26662,3.51744 0,2.90511 0.17909,3.03138 4.2992,3.03138 4.256,0 4.29566,0.0327 3.94679,3.25 -0.19383,1.7875 -0.89861,11.06686 -1.56618,20.6208 -0.98281,14.06546 -0.97026,17.46425 0.0659,17.86188 2.88983,1.10893 4.25424,-1.84106 4.25424,-9.19812 0,-3.97131 0.29533,-12.71301 0.65628,-19.42601 0.56301,-10.47079 0.92047,-12.34685 2.51517,-13.20031 1.23711,-0.66208 8.96168,-0.63133 23.09372,0.0919 26.64223,1.36351 25.27376,0.40833 24.35533,16.99983 -0.35013,6.325 -0.92439,15.6625 -1.27615,20.75 -0.62394,9.02423 -0.58653,9.25 1.5328,9.25 1.33467,0 2.49963,-0.86763 3.02108,-2.25 z m -132.478094,-9.5 0.92014,-7.25 6.20486,0 c 3.41267,0 7.61205,0.28144 9.33194,0.62542 3.08862,0.61772 3.12548,0.6963 2.99682,6.38808 -0.16012,7.08311 0.35294,8.0192 3.88088,7.08068 2.62998,-0.69964 2.77054,-1.06325 3.34834,-8.66224 0.33172,-4.36257 0.41766,-8.26944 0.19098,-8.68194 -0.22667,-0.4125 -6.46589,-0.75 -13.86493,-0.75 l -13.4528,0 0.52417,-3.75 c 0.59999,-4.2924 3.11177,-37.28251 4.11141,-54 0.60414,-10.10346 0.5028,-11.25 -0.99437,-11.25 -2.41084,0 -3.61758,4.11133 -3.61758,12.32505 0,9.19837 -2.57967,41.70439 -4.51121,56.84501 -0.81883,6.41854 -1.48879,13.31093 -1.48879,15.31643 0,3.38788 0.19493,3.62393 2.75,3.32993 2.61811,-0.30124 2.79413,-0.66414 3.67014,-7.56642 z m 37.079864,-35.81075 c 9.54289,-9.08225 10.76819,-10.6061 9.25,-11.50383 -2.88014,-1.70307 -1.98632,-2.84803 1.75,-2.24171 2.18831,0.35512 3.5,0.16363 3.5,-0.51095 0,-0.59341 -2.15504,-3.68979 -4.78899,-6.88084 -2.63394,-3.19106 -5.81458,-7.26442 -7.06809,-9.05192 -3.98023,-5.67579 -5.4718,-4.98502 -25.371804,11.75 -3.59709,3.025 -7.29503,6.74166 -8.21764,8.25924 l -1.67747,2.75924 5.812,6.12413 c 4.93239,5.19729 13.61437,11.88372 15.31199,11.79253 0.275,-0.0148 5.45,-4.73792 11.500004,-10.49589 z m 53.51292,-11.54166 c -0.54689,-1.98467 -2.41768,-1.76579 -3.19702,-1.46673 -0.77933,0.29906 -3.50517,1.58345 -4.14769,1.60094 -0.64251,0.0175 -0.2947,0.6925 0.77292,1.5 1.06762,0.80751 3.31762,1.45323 5,1.43493 l 5.10965,-0.22861 -2.95192,-1.71751 z m -16.01292,-1.7863 c 0,-0.98073 -3.36044,-1.695 -12.65164,-2.68915 -5.59873,-0.59906 -8.06017,-0.9073 -9.09183,1.02037 -1.12125,2.09509 0.78727,2.55749 11.20829,2.55749 5.79435,0 10.53518,-0.39992 10.53518,-0.88871 z m -8.97994,-20.58712 c -0.72531,-0.99965 -0.86461,-1.52417 -0.20152,-1.52417 0.58488,0 1.34154,0.45 1.68146,1 0.29522,0.47768 0.95858,0.87067 1.63951,1.38963 1.47913,1.1273 4.62854,-0.77473 6.03175,-2.04462 3.9786,-3.60058 1.32283,-8.34501 -4.67126,-8.34501 -3.89019,0 -6.15455,1.57028 -7.39482,5.12811 -1.51819,4.3551 -1.42732,4.81446 1.14482,5.78755 1.82907,0.69197 4.72551,0.6536 3.69168,0.14729 -0.29084,-0.14243 -1.41009,-0.83377 -1.92162,-1.53878 z m 4.97994,-2.40614 c 0,-0.55 0.45,-1.27811 1,-1.61803 0.55,-0.33992 1,-0.16803 1,0.38197 0,0.55 -0.45,1.27811 -1,1.61803 -0.55,0.33992 -1,0.16803 -1,-0.38197 z M 329.3651,234.32185 c -10.15848,-0.67448 -17.60685,-2.34124 -23.05687,-5.15955 -5.78639,-2.99226 -17.3698,-17.8468 -19.37861,-24.85108 -0.79496,-2.77188 -0.61293,-3.05331 2.85157,-4.40884 2.0354,-0.79638 9.82113,-4.58822 17.30162,-8.4263 11.88082,-6.0958 15.48516,-7.41974 28.5,-10.46857 14.25083,-3.33837 15.72582,-3.49068 33.89911,-3.50043 33.49682,-0.018 73.81904,3.33105 84.31081,7.00255 10.56917,3.69858 10.64739,3.82788 10.96749,18.12889 0.25569,11.42288 0.087,12.79599 -2.07502,16.89423 -1.48262,2.81037 -3.80552,5.28223 -6.2783,6.68095 -7.67165,4.33941 -14.91035,5.15571 -55.98123,6.31298 -21.41906,0.60353 -43.89375,1.40547 -49.94375,1.7821 -6.05,0.37663 -15.55257,0.38251 -21.11682,0.0131 z m 75.80577,-3.85832 c 52.64613,-1.59485 57.24718,-3.55924 57.35941,-24.4892 0.0266,-4.96058 0.31127,-9.46058 0.63259,-10 1.36186,-2.28623 -1.35847,-5.67267 -6.41679,-7.98803 -10.01594,-4.5846 -34.88819,-7.22531 -76.76416,-8.15012 -17.50886,-0.38667 -28.36608,-0.21391 -32,0.5092 -23.76032,4.72803 -24.16842,4.86127 -40.5,13.22307 -8.8,4.50562 -16.55908,8.63423 -17.2424,9.17471 -1.7379,1.37459 2.71568,9.18673 9.60642,16.85089 5.69549,6.33474 9.17734,8.68366 15.63598,10.54833 5.21485,1.50557 45.7946,1.65087 89.68895,0.32115 z m -323.188954,2.21762 c 0,-0.44683 1.27713,-4.60933 2.83808,-9.25 1.56094,-4.64068 3.12811,-9.91722 3.48261,-11.72565 0.67755,-3.45649 0.62875,-3.50526 -4.67736,-4.67424 -2.71565,-0.59828 -2.82781,-0.8369 -2.27202,-4.83352 0.32156,-2.3123 0.83276,-6.67918 1.136,-9.70418 l 0.55135,-5.5 -2.60134,5.5 c -1.43074,3.025 -3.53225,8.3125 -4.67003,11.75 -1.13777,3.4375 -2.51161,6.25 -3.05298,6.25 -1.71421,0 0.0313,-5.57614 5.39349,-17.22948 3.5166,-7.64249 5.32739,-12.98025 5.62521,-16.58181 0.51155,-6.18622 1.96657,-7.17864 10.56209,-7.20402 2.8517,-0.008 5.784354,-0.39532 6.517014,-0.85977 0.74848,-0.47447 1.57084,-3.47713 1.87699,-6.85342 0.47604,-5.24984 0.24458,-6.41513 -1.83211,-9.22402 -1.898064,-2.56726 -2.376994,-4.45744 -2.376994,-9.38126 0,-11.20598 2.816834,-14.39788 13.587284,-15.39646 10.24247,-0.94963 16.74685,4.47464 15.60188,13.01104 -1.0337,7.70683 -8.28033,13.85992 -17.93916,15.23208 -4.72101,0.67068 -4.75,0.69813 -4.75,4.49917 0,2.10341 -0.22027,4.42368 -0.4895,5.15616 -0.98764,2.68712 1.42159,4.15044 8.64091,5.24834 l 7.34859,1.11757 -0.29127,3.71685 c -0.16021,2.04427 0.44313,8.78659 1.34074,14.98294 2.66637,18.40637 2.78221,19.76609 1.68387,19.76609 -0.56472,0 -1.55396,-3.9375 -2.19831,-8.75 -1.4531,-10.85291 -2.04264,-12.62747 -3.073,-9.25 -0.41947,1.375 -0.80753,4.13125 -0.86235,6.125 -0.0548,1.99375 -0.38093,5.03125 -0.72468,6.75 -0.52244,2.61221 -1.08708,3.125 -3.44098,3.125 -1.54879,0 -2.9851,0.3375 -3.19179,0.75 -0.20669,0.4125 -0.0888,4.575 0.26195,9.25 0.73391,9.78166 -0.41256,14.21482 -1.39361,5.38881 -0.36002,-3.23885 -0.9119,-8.02631 -1.22641,-10.63881 l -0.57184,-4.75 -7.867614,0 -7.86762,0 -1.10184,4.25 c -2.28193,8.80185 -6.41706,20.75 -7.18137,20.75 -0.43663,0 -0.79388,-0.36559 -0.79388,-0.81241 z m 32.346004,-29.43759 c 0.31273,-1.7875 1.12213,-8.79633 1.79868,-15.57517 1.02023,-10.2223 1.0013,-12.46658 -0.11093,-13.15397 -2.22373,-1.37435 -14.19098,-2.3747 -25.238444,-2.10972 -3.36967,0.0808 -3.75688,0.38276 -4.28185,3.33886 -1.0692,6.0207 -3.42816,28.16863 -3.04141,28.55539 0.47835,0.47834 17.095244,1.86076 24.666664,2.05211 5.61596,0.14193 5.641,0.12939 6.20729,-3.1075 z m 1.2878,-51.2255 c 0.61194,-0.41845 -2.27672,-0.36514 -4.28556,-0.71289 -1.83619,-0.31786 -3.88557,-0.89553 -4.12014,-1.60921 -0.3307,-1.00615 0.71576,-1.14608 4.65897,-0.62299 6.51851,0.86471 10.48683,-0.74024 12.54277,-5.0728 2.91112,-6.13473 1.42954,-10.01147 -5.1141,-13.38165 -5.88016,-3.02847 -16.45797,-0.0243 -18.27585,5.19045 -3.364344,9.65096 0.53704,17.68459 8.58818,17.68459 2.33965,0 5.68676,-0.95938 6.00573,-1.4755 z m -4.20611,-7.57693 c -0.58406,-1.49173 -0.38884,-3.31975 -0.0478,-3.66081 1.11934,-1.11934 2.65992,0.94202 1.48727,3.61596 l -0.40773,0.92972 -0.70076,-0.0395 z m 4.57231,-0.50659 c 0,-1.45136 0.43284,-2.2915 1,-1.94098 0.55,0.33992 1,1.49148 1,2.55902 0,1.06754 -0.45,1.94098 -1,1.94098 -0.55,0 -1,-1.15156 -1,-2.55902 z m 0,-5.79892 c -3.575,-0.62813 -7.55938,-0.51784 -7.42188,-1.06784 0.2915,-1.16601 1.13058,-2.23541 9.17188,-1.19021 4.30799,0.55994 6.25,1.24794 6.25,2.21418 0,0.77099 -0.3375,1.35324 -0.75,1.29387 -0.4125,-0.0594 -3.675,-0.62186 -7.25,-1.25 z m 155.23582,63.78177 -0.45652,-10.90625 -2.39258,-0.13672 c -4.50996,-0.25771 -7.17619,-0.53053 -7.8318,0.53028 -0.30972,0.50113 -1.26943,4.66363 -2.1327,9.25 -0.86328,4.58637 -1.98643,8.76636 -2.4959,9.28886 -1.19995,1.23063 -1.19782,1.20215 0.63486,-8.45892 0.85864,-4.52642 1.34732,-8.78714 1.08594,-9.46828 -0.26137,-0.68113 -1.91788,-1.52695 -3.68113,-1.8796 l -3.20591,-0.64119 0.71861,-11.501 c 0.39523,-6.32556 0.45878,-11.50101 0.14121,-11.50101 -0.31757,0 -2.65104,3.1476 -5.1855,6.99466 -4.31297,6.54668 -6.4344,9.00838 -6.4344,7.46645 0,-0.36131 2.55116,-4.77537 5.66925,-9.80902 4.7406,-7.65294 5.76438,-10.13491 6.25,-15.15209 l 0.58075,-6 6,0 6,0 0,-4.93643 c 0,-4.67447 -0.16352,-4.97881 -3.08133,-5.73489 -4.34294,-1.12537 -6.83175,-4.23945 -6.7138,-8.40054 0.12125,-4.27756 2.57092,-8.2023 5.91253,-9.47278 5.31382,-2.02031 13.49071,-0.7405 15.61729,2.44434 0.40408,0.60517 0.74158,2.53783 0.75,4.29482 0.0125,2.60148 -0.91281,3.9938 -4.9842,7.5 -4.81755,4.14878 -4.99953,4.49656 -5,9.55548 l -4.9e-4,5.25 9,0 9,0 0,4.98498 c 0,3.82771 0.72186,6.15814 3.10945,10.03847 3.35501,5.45259 6.34957,13.97655 4.91011,13.97655 -0.48663,0 -1.19383,-1.0125 -1.57156,-2.25 -1.16807,-3.82684 -5.55613,-12.74993 -6.27062,-12.75126 -0.37256,-6.9e-4 -0.67738,5.73681 -0.67738,12.75 l 0,12.75126 -5.71666,0.29891 -5.71667,0.29891 -0.32095,10.70109 0.53359,10.01973 -1.00103,0.24191 z m 9.58115,-15.07887 c 2.31636,-0.61309 2.31688,-0.61736 2,-16.39851 -0.17434,-8.6819 -0.69144,-16.15904 -1.14911,-16.61586 -0.45768,-0.45682 -6.87018,-0.98724 -14.25,-1.1787 l -13.41786,-0.34812 -0.0357,6.84812 c -0.0196,3.76646 -0.44789,11.34811 -0.95173,16.84811 -1.19797,13.07702 -1.39405,12.9077 13.98743,12.0783 6.325,-0.34106 12.54263,-0.89606 13.81697,-1.23334 z m -8.56697,-54.34189 c 3.42091,-3.77497 3.49305,-6.4701 0.23041,-8.60786 -3.10541,-2.03474 -10.67113,-1.43758 -13.43105,1.06012 -2.72299,2.46427 -3.41427,6.3388 -1.61962,9.07778 2.82437,4.31054 10.21932,3.54708 14.82026,-1.53004 z m -14.14063,0.31334 c -0.37705,-0.61008 1.52724,-0.31641 4.2726,-0.31641 2.475,0 5.36405,0.0594 5.70397,0.60937 0.37705,0.61008 -1.72255,1.39063 -4.46791,1.39063 -2.475,0 -5.16874,-1.13359 -5.50866,-1.68359 z m 5.89063,-4.25739 c 0,-1.06754 0.45,-2.2191 1,-2.55902 0.56716,-0.35052 1,0.48962 1,1.94098 0,1.40746 -0.45,2.55902 -1,2.55902 -0.55,0 -1,-0.87344 -1,-1.94098 z m -4.05573,-0.14499 c -0.2209,-1.26243 0.0893,-2.28088 0.43219,-2.62383 1.01549,-1.01549 1.82185,1.03209 1.53933,3.03754 -0.20719,1.47072 -0.46826,2.23188 -1.45362,0.6911 z m -114.8668,56.84567 c -4.25409,-1.56576 -10.5853,-10.50411 -13.56078,-19.145 -1.63203,-4.73948 -3.00854,-6.76946 -6.28476,-9.26831 l -4.19503,-3.19966 2.73194,-2.32336 c 4.7276,-4.02058 6.98292,-7.64745 9.10984,-14.64987 3.73945,-12.31131 7.33797,-15.48612 23.41891,-20.66145 6.38153,-2.05377 10.68245,-2.62843 23.68327,-3.16438 l 15.88569,-0.65488 6.90264,4.10078 c 11.31366,6.72132 16.92132,14.24613 19.33878,25.95032 1.54611,7.48552 0.26073,15.9383 -3.6343,23.89946 -2.89744,5.92215 -7.75446,9.29357 -20.06325,13.92659 -11.63684,4.38009 -46.35414,7.75839 -53.33295,5.18976 z m 41.56457,-4.28196 c 8.53842,-1.72147 24.09322,-8.50258 27.27677,-11.89131 4.82697,-5.13808 7.68267,-17.65154 5.92146,-25.94743 -2.38111,-11.21586 -8.32169,-19.02577 -18.31959,-24.08425 -7.75347,-3.92289 -14.05929,-4.58566 -28.52068,-2.99765 -13.10485,1.43905 -21.45673,3.7624 -28.62399,7.96269 -5.45066,3.1943 -6.75997,5.1236 -9.92325,14.62207 -1.41781,4.25728 -3.85696,9.35009 -5.42035,11.31735 l -2.84251,3.57684 2.83414,2.83414 c 1.55877,1.55878 3.55255,5.26317 4.4306,8.23197 1.84473,6.23723 8.12301,15.79609 11.63497,17.71455 3.20168,1.74897 30.6183,0.8655 41.55243,-1.33897 z m 156.35796,-21.53477 c -3.025,-0.49637 -10,-1.62492 -15.5,-2.5079 -5.5,-0.88297 -11.8,-2.39575 -14,-3.36172 -2.2,-0.96597 -9.14531,-7.22979 -15.19531,-12.72601 -6.05,-5.49623 -11.6052,-9.45367 -12.58359,-9.98789 -1.59401,-0.87035 -1.33418,-1.43575 2.5,-5.44002 2.35339,-2.4578 7.70078,-6.56464 10.45078,-10.08117 5.70393,-7.29384 4.06645,-7.77328 15.13062,-11.34867 6.30854,-2.0386 11.11183,-2.81023 20,-3.2129 16.10606,-0.72967 60.52636,1.39748 67.58694,3.23653 7.56192,1.96963 19.16261,8.95665 20.50374,12.34927 3.67061,9.28541 4.0639,25.57148 0.76945,31.86342 -1.82345,3.48254 -5.0014,4.75566 -19.16263,7.67674 -13.10978,2.7042 -51.79838,4.96817 -60.5,3.54032 z m 34.27067,-2.95691 c 17.64633,-1.14802 38.93875,-4.96062 41.70998,-7.46855 3.96871,-3.59163 5.30495,-18.38819 2.42413,-26.84296 -2.5807,-7.57392 -12.37442,-14.58269 -23.26257,-16.64758 -7.55232,-1.43227 -50.92189,-3.14314 -63.39851,-2.50098 -10.52779,0.54185 -26.99171,4.95095 -30.39425,7.77481 -0.7167,0.59481 -3.69569,6.16782 -8.11785,10.54218 l -8.18196,8.09351 11.37745,9.50724 c 13.78009,11.51494 14.41349,13.44331 34.57291,16.48525 19.16079,2.89124 19.08361,2.88315 23.5,2.46332 2.2,-0.20913 11.0968,-0.84194 19.77067,-1.40624 z"
       id="path3069"
       inkscape:connector-curvature="0"
       sodipodi:nodetypes="csssccsssssssscssssssscssscccccsscscssssssscsssscssccccssccssssscssccsssscscssscsscsssssssssssscsssscscscscscsssssssssssssssssssssscsscssscccssscccsssssssssscsssssssccscssssscscsssssssssssssssscscscscsscccsssssssssssssssssssscssssssssssssccssssssssssssssssscssssscsssssssscscssssscsssssscccsssssssscsscssssssscscsccsssssssssscsccssssssscsssssscccssssscsscccsssssscccccccsssscsssssssssssssssssssccsccssscsssscssssssssssssscssssssssssssssssssssssssscssss" />
    <path
       style="fill:none;stroke:#000000;stroke-width:1px;stroke-linecap:butt;stroke-linejoin:miter;stroke-opacity:1"
       d="m 1.6572815,144.97448 591.6495085,0"
       id="path3110"
       inkscape:connector-curvature="0"
       transform="translate(58.426573,100.62312)" />
    <text
       xml:space="preserve"
       style="font-size:12px;font-style:normal;font-weight:normal;line-height:125%;letter-spacing:0px;word-spacing:0px;writing-mode:lr-tb;fill:#000000;fill-opacity:1;stroke:none;font-family:Sans;text-anchor:middle;text-align:center"
       x="357.242"
       y="123.43989"
       id="text3112"
       sodipodi:linespacing="125%"><tspan
         sodipodi:role="line"
         id="tspan3114"
         x="311.16095"
         y="123.43989">Main character,</tspan><tspan
         sodipodi:role="line"
         x="311.16095"
         y="138.43988"
         id="tspan3116">where are you?</tspan></text>
    <text
       xml:space="preserve"
       style="font-size:12px;font-style:normal;font-weight:normal;line-height:125%;letter-spacing:0px;word-spacing:0px;writing-mode:lr-tb;fill:#000000;fill-opacity:1;stroke:none;font-family:Sans;text-anchor:middle;text-align:center"
       x="173.58771"
       y="144.53365"
       id="text3118"
       sodipodi:linespacing="125%"><tspan
         sodipodi:role="line"
         id="tspan3120"
         x="143.1922"
         y="144.53365">I'm at</tspan><tspan
         sodipodi:role="line"
         x="143.1922"
         y="159.53365"
         id="tspan3122">(251, 217)</tspan></text>
    <text
       xml:space="preserve"
       style="font-size:12px;font-style:normal;font-weight:normal;line-height:125%;letter-spacing:0px;word-spacing:0px;writing-mode:lr-tb;fill:#000000;fill-opacity:1;stroke:none;font-family:Sans;text-anchor:middle;text-align:center"
       x="377.93634"
       y="202.34615"
       id="text3124"
       sodipodi:linespacing="125%"><tspan
         sodipodi:role="line"
         id="tspan3126"
         x="323.66095"
         y="202.34615">You have changed</tspan><tspan
         sodipodi:role="line"
         x="323.66095"
         y="217.34615"
         id="tspan3128">of cell!</tspan></text>
    <text
       xml:space="preserve"
       style="font-size:12px;font-style:normal;font-weight:normal;line-height:125%;letter-spacing:0px;word-spacing:0px;writing-mode:lr-tb;fill:#000000;fill-opacity:1;stroke:none;font-family:Sans"
       x="439.65314"
       y="305.47113"
       id="text3130"
       sodipodi:linespacing="125%"><tspan
         sodipodi:role="line"
         id="tspan3132"
         x="439.65314"
         y="305.47113"
         style="font-size:20px;text-align:center;text-anchor:middle">The main character has changed of cell.</tspan><tspan
         sodipodi:role="line"
         x="439.65314"
         y="330.47113"
         style="font-size:20px;text-align:center;text-anchor:middle"
         id="tspan3138">I must delete all the old entities, create</tspan><tspan
         sodipodi:role="line"
         x="439.65314"
         y="355.47113"
         style="font-size:20px;text-align:center;text-anchor:middle"
         id="tspan3146">the new ones and move the origin of</tspan><tspan
         sodipodi:role="line"
         x="439.65314"
         y="380.47113"
         style="font-size:20px;text-align:center;text-anchor:middle"
         id="tspan3150">coordinates.</tspan></text>
    <text
       xml:space="preserve"
       style="font-size:12px;font-style:normal;font-weight:normal;line-height:125%;letter-spacing:0px;word-spacing:0px;writing-mode:lr-tb;fill:#000000;fill-opacity:1;stroke:none;font-family:Sans"
       x="90.743561"
       y="192.84081"
       id="text3171"
       sodipodi:linespacing="125%"><tspan
         sodipodi:role="line"
         id="tspan3173"
         x="90.743561"
         y="192.84081">MC</tspan></text>
    <text
       xml:space="preserve"
       style="font-size:12px;font-style:normal;font-weight:normal;line-height:125%;letter-spacing:0px;word-spacing:0px;writing-mode:lr-tb;fill:#000000;fill-opacity:1;stroke:none;font-family:Sans"
       x="199.97864"
       y="72.606522"
       id="text3175"
       sodipodi:linespacing="125%"
       transform="translate(58.426573,100.62312)"><tspan
         sodipodi:role="line"
         id="tspan3177"
         x="199.97864"
         y="72.606522">WS</tspan></text>
  </g>
</svg>
