<?xml version="1.0" encoding="UTF-8" standalone="no"?>
<!-- Created with Inkscape (http://www.inkscape.org/) -->

<svg
   xmlns:dc="http://purl.org/dc/elements/1.1/"
   xmlns:cc="http://creativecommons.org/ns#"
   xmlns:rdf="http://www.w3.org/1999/02/22-rdf-syntax-ns#"
   xmlns:svg="http://www.w3.org/2000/svg"
   xmlns="http://www.w3.org/2000/svg"
   xmlns:sodipodi="http://sodipodi.sourceforge.net/DTD/sodipodi-0.dtd"
   xmlns:inkscape="http://www.inkscape.org/namespaces/inkscape"
   width="450.89999"
   height="261.0643"
   id="svg12522"
   version="1.1"
   inkscape:version="0.48.4 r9939"
   sodipodi:docname="M_BG_comic.svg">
  <defs
     id="defs12524" />
  <sodipodi:namedview
     id="base"
     pagecolor="#ffffff"
     bordercolor="#666666"
     borderopacity="1.0"
     inkscape:pageopacity="0.0"
     inkscape:pageshadow="2"
     inkscape:zoom="1.4"
     inkscape:cx="196.06204"
     inkscape:cy="136.95948"
     inkscape:document-units="px"
     inkscape:current-layer="layer1"
     showgrid="false"
     inkscape:window-width="1301"
     inkscape:window-height="744"
     inkscape:window-x="65"
     inkscape:window-y="24"
     inkscape:window-maximized="1"
     fit-margin-top="0"
     fit-margin-left="0"
     fit-margin-right="0"
     fit-margin-bottom="0" />
  <metadata
     id="metadata12527">
    <rdf:RDF>
      <cc:Work
         rdf:about="">
        <dc:format>image/svg+xml</dc:format>
        <dc:type
           rdf:resource="http://purl.org/dc/dcmitype/StillImage" />
        <dc:title />
      </cc:Work>
    </rdf:RDF>
  </metadata>
  <g
     inkscape:label="Layer 1"
     inkscape:groupmode="layer"
     id="layer1"
     transform="translate(-99.335713,-69.690751)">
    <path
       sodipodi:type="arc"
       style="fill:none;stroke:#000000;stroke-width:1.89999998;stroke-miterlimit:4;stroke-opacity:1;stroke-dasharray:none"
       id="path12549"
       sodipodi:cx="132.85715"
       sodipodi:cy="102.36218"
       sodipodi:rx="30"
       sodipodi:ry="28.571428"
       d="m 162.85715,102.36218 c 0,15.77957 -13.43146,28.57143 -30,28.57143 -16.56855,0 -30,-12.79186 -30,-28.57143 0,-15.779562 13.43145,-28.571426 30,-28.571426 16.56854,0 30,12.791864 30,28.571426 z" />
    <path
       transform="matrix(0.69242228,0,0,0.69242228,80.690598,-38.894285)"
       sodipodi:type="arc"
       style="fill:#000000;fill-opacity:1;stroke:#000000;stroke-width:1.89999998;stroke-miterlimit:4;stroke-opacity:1;stroke-dasharray:none"
       id="path13059-2"
       sodipodi:cx="60"
       sodipodi:cy="196.6479"
       sodipodi:rx="5.7142859"
       sodipodi:ry="5.7142859"
       d="m 65.714286,196.6479 c 0,3.15592 -2.558373,5.71429 -5.714286,5.71429 -3.155913,0 -5.714286,-2.55837 -5.714286,-5.71429 0,-3.15591 2.558373,-5.71428 5.714286,-5.71428 3.155913,0 5.714286,2.55837 5.714286,5.71428 z" />
    <path
       style="fill:none;stroke:#000000;stroke-width:1.77340436px;stroke-linecap:butt;stroke-linejoin:miter;stroke-opacity:1"
       d="m 117.16306,112.58866 c 29.33854,23.27673 36.72021,-2.80667 36.72021,-2.80667"
       id="path13081"
       inkscape:connector-curvature="0" />
    <path
       transform="matrix(0.69242228,0,0,0.69242228,100.45466,-40.086922)"
       sodipodi:type="arc"
       style="fill:#000000;fill-opacity:1;stroke:#000000;stroke-width:1.89999998;stroke-miterlimit:4;stroke-opacity:1;stroke-dasharray:none"
       id="path13059-2-9"
       sodipodi:cx="60"
       sodipodi:cy="196.6479"
       sodipodi:rx="5.7142859"
       sodipodi:ry="5.7142859"
       d="m 65.714286,196.6479 c 0,3.15592 -2.558373,5.71429 -5.714286,5.71429 -3.155913,0 -5.714286,-2.55837 -5.714286,-5.71429 0,-3.15591 2.558373,-5.71428 5.714286,-5.71428 3.155913,0 5.714286,2.55837 5.714286,5.71428 z" />
    <rect
       style="fill:none;stroke:#000000;stroke-width:1.89999998;stroke-miterlimit:4;stroke-opacity:1;stroke-dasharray:none"
       id="rect13101"
       width="64.285713"
       height="112.85714"
       x="100.28571"
       y="133.50504" />
    <text
       xml:space="preserve"
       style="font-size:40px;font-style:normal;font-weight:normal;line-height:125%;letter-spacing:0px;word-spacing:0px;fill:#000000;fill-opacity:1;stroke:none;font-family:Sans"
       x="111.71429"
       y="197.50504"
       id="text13127"
       sodipodi:linespacing="125%"><tspan
         sodipodi:role="line"
         id="tspan13129"
         x="111.71429"
         y="197.50504">M</tspan></text>
    <path
       style="fill:none;stroke:#000000;stroke-width:2.5;stroke-linecap:butt;stroke-linejoin:miter;stroke-miterlimit:4;stroke-opacity:1;stroke-dasharray:none"
       d="m 110,245.21933 c 6.32093,11.27234 1.18749,24.25388 -0.62205,36.01381 -2.60072,14.72669 -4.35684,29.66357 -3.6227,44.63746 l -0.0148,1.10295 -0.0266,1.10292"
       id="path13131"
       inkscape:connector-curvature="0" />
    <path
       style="fill:none;stroke:#000000;stroke-width:2.5;stroke-linecap:butt;stroke-linejoin:miter;stroke-miterlimit:4;stroke-opacity:1;stroke-dasharray:none"
       d="m 147.14286,245.21933 c 1.75446,7.15273 3.10197,14.13286 3.84718,21.48452 -0.0856,6.77233 1.66098,13.35094 2.05002,20.07717 0.45748,7.98132 2.26013,16.04689 1.19993,24.13671 0.0157,6.19575 0.12578,12.39158 0.0462,18.58731"
       id="path13133"
       inkscape:connector-curvature="0" />
    <path
       style="fill:none;stroke:#000000;stroke-width:2.4000001;stroke-linecap:butt;stroke-linejoin:miter;stroke-miterlimit:4;stroke-opacity:1;stroke-dasharray:none"
       d="m 164.28571,160.93361 c 4.01181,11.0017 15.56588,16.27023 25.89596,19.78572 12.25205,6.01575 24.46945,13.04181 38.27464,14.60997 1.04717,0.28899 2.07625,0.69332 2.97226,1.3186"
       id="path13135"
       inkscape:connector-curvature="0" />
    <path
       style="fill:none;stroke:#000000;stroke-width:1px;stroke-linecap:butt;stroke-linejoin:miter;stroke-opacity:1"
       d="m 225.71429,170.93361 c 7.39956,7.33602 6.46739,18.51653 8.35653,27.98517 0.74658,6.84385 -0.0853,13.7276 0.2145,20.58626"
       id="path13139"
       inkscape:connector-curvature="0" />
    <path
       style="fill:none;stroke:#000000;stroke-width:1px;stroke-linecap:butt;stroke-linejoin:miter;stroke-opacity:1"
       d="m 228.57143,172.36218 c 7.40095,-0.53365 15.12272,1.36553 22.21261,-1.57561 11.93324,-2.39712 24.09088,-0.98599 36.14824,-1.28843 3.40352,-0.006 6.80707,-0.007 10.21058,0.007"
       id="path13143"
       inkscape:connector-curvature="0" />
    <path
       style="fill:none;stroke:#000000;stroke-width:1px;stroke-linecap:butt;stroke-linejoin:miter;stroke-opacity:1"
       d="m 235.71429,219.50504 c 10.36367,-0.62396 20.51848,-4.15337 30.98811,-2.79002 7.18968,0.0256 14.63957,-1.03663 21.53548,1.60396 8.76512,1.69717 10.35217,-9.78699 17.32895,-12.26278 5.92151,-3.92174 5.44149,-11.22145 3.03779,-16.95163 -1.18099,-6.56233 0.30432,-13.17609 1.31193,-19.65522 -0.41702,-0.28972 -0.91765,0.0699 -1.34512,0.0557"
       id="path13145"
       inkscape:connector-curvature="0" />
    <path
       style="fill:none;stroke:#000000;stroke-width:1px;stroke-linecap:butt;stroke-linejoin:miter;stroke-opacity:1"
       d="m 295.71429,168.07647 c 5.47655,2.30398 11.59006,2.24004 17.14281,4.2857"
       id="path13147"
       inkscape:connector-curvature="0" />
    <path
       style="fill:none;stroke:#000000;stroke-width:1px;stroke-linecap:butt;stroke-linejoin:miter;stroke-opacity:1"
       d="m 310,202.36218 c -6.89945,4.26829 -14.77038,-1.68021 -22.01683,0.68012 -3.32326,4.56545 0.0871,10.17817 0.58821,15.03421"
       id="path13149"
       inkscape:connector-curvature="0" />
    <path
       style="fill:none;stroke:#000000;stroke-width:1px;stroke-linecap:butt;stroke-linejoin:miter;stroke-opacity:1"
       d="m 287.14286,176.6479 c 0.36057,2.05411 -1.91965,4.85128 -0.13848,1.39019 6.27593,2.15767 -4.84947,8.83618 1.2367,10.20601 -0.0159,2.86683 -7.17391,5.10295 -2.16654,3.12077 3.1397,2.07567 -1.16029,4.74173 -0.47622,7.17225 -7.51236,0.89908 0.32769,6.87484 -4.16975,9.53935"
       id="path13151"
       inkscape:connector-curvature="0" />
    <path
       style="fill:none;stroke:#000000;stroke-width:1px;stroke-linecap:butt;stroke-linejoin:miter;stroke-opacity:1"
       d="m 270,179.50504 c -6.72926,-1.58683 -11.23325,11.39871 -2.46907,10.3023 5.76138,-0.16415 1.51935,6.49771 -0.29767,7.31744 2.88024,3.00642 -1.37437,8.34742 0.2468,9.40584 2.65217,1.48329 0.55638,5.32377 -1.76577,5.83156"
       id="path13153"
       inkscape:connector-curvature="0" />
    <path
       style="fill:none;stroke:#000000;stroke-width:1px;stroke-linecap:butt;stroke-linejoin:miter;stroke-opacity:1"
       d="m 250,179.50504 c -5.20063,4.35166 8.06855,7.31519 0.6143,11.26652 -4.40531,3.24866 -0.33059,7.2168 -2.44572,11.12924 4.05504,1.82132 -1.79333,6.80557 1.83142,10.46138"
       id="path13155"
       inkscape:connector-curvature="0" />
    <path
       transform="translate(384.71429,-3.150003)"
       sodipodi:type="arc"
       style="fill:none;stroke:#000000;stroke-width:1.89999998;stroke-miterlimit:4;stroke-opacity:1;stroke-dasharray:none"
       id="path12549-7"
       sodipodi:cx="132.85715"
       sodipodi:cy="102.36218"
       sodipodi:rx="30"
       sodipodi:ry="28.571428"
       d="m 162.85715,102.36218 c 0,15.77957 -13.43146,28.57143 -30,28.57143 -16.56855,0 -30,-12.79186 -30,-28.57143 0,-15.779562 13.43145,-28.571426 30,-28.571426 16.56854,0 30,12.791864 30,28.571426 z" />
    <path
       transform="matrix(0.69242228,0,0,0.69242228,465.40489,-42.044289)"
       sodipodi:type="arc"
       style="fill:#000000;fill-opacity:1;stroke:#000000;stroke-width:1.89999998;stroke-miterlimit:4;stroke-opacity:1;stroke-dasharray:none"
       id="path13059-2-1"
       sodipodi:cx="60"
       sodipodi:cy="196.6479"
       sodipodi:rx="5.7142859"
       sodipodi:ry="5.7142859"
       d="m 65.714286,196.6479 c 0,3.15592 -2.558373,5.71429 -5.714286,5.71429 -3.155913,0 -5.714286,-2.55837 -5.714286,-5.71429 0,-3.15591 2.558373,-5.71428 5.714286,-5.71428 3.155913,0 5.714286,2.55837 5.714286,5.71428 z" />
    <path
       style="fill:none;stroke:#000000;stroke-width:1.54510283px;stroke-linecap:butt;stroke-linejoin:miter;stroke-opacity:1"
       d="m 538.59756,108.3522 c -36.33682,14.26635 -45.47927,-1.72021 -45.47927,-1.72021"
       id="path13081-6"
       inkscape:connector-curvature="0" />
    <path
       transform="matrix(0.69242228,0,0,0.69242228,485.16895,-43.236929)"
       sodipodi:type="arc"
       style="fill:#000000;fill-opacity:1;stroke:#000000;stroke-width:1.89999998;stroke-miterlimit:4;stroke-opacity:1;stroke-dasharray:none"
       id="path13059-2-9-5"
       sodipodi:cx="60"
       sodipodi:cy="196.6479"
       sodipodi:rx="5.7142859"
       sodipodi:ry="5.7142859"
       d="m 65.714286,196.6479 c 0,3.15592 -2.558373,5.71429 -5.714286,5.71429 -3.155913,0 -5.714286,-2.55837 -5.714286,-5.71429 0,-3.15591 2.558373,-5.71428 5.714286,-5.71428 3.155913,0 5.714286,2.55837 5.714286,5.71428 z" />
    <rect
       style="fill:none;stroke:#000000;stroke-width:1.89999998;stroke-miterlimit:4;stroke-opacity:1;stroke-dasharray:none"
       id="rect13101-6"
       width="64.285713"
       height="112.85714"
       x="485"
       y="130.35503" />
    <text
       xml:space="preserve"
       style="font-size:40px;font-style:normal;font-weight:normal;line-height:125%;letter-spacing:0px;word-spacing:0px;fill:#000000;fill-opacity:1;stroke:none;font-family:Sans"
       x="486.42859"
       y="194.35504"
       id="text13127-2"
       sodipodi:linespacing="125%"><tspan
         sodipodi:role="line"
         id="tspan13129-9"
         x="486.42859"
         y="194.35504">BG</tspan></text>
    <path
       style="fill:none;stroke:#000000;stroke-width:2.5;stroke-linecap:butt;stroke-linejoin:miter;stroke-miterlimit:4;stroke-opacity:1;stroke-dasharray:none"
       d="m 494.71429,242.06933 c 8.09092,27.69288 -9.81107,55.05406 -4.28537,82.85714"
       id="path13131-0"
       inkscape:connector-curvature="0" />
    <path
       style="fill:none;stroke:#000000;stroke-width:2.5;stroke-linecap:butt;stroke-linejoin:miter;stroke-miterlimit:4;stroke-opacity:1;stroke-dasharray:none"
       d="m 531.85715,242.06933 c 5.94106,27.65387 7.60395,56.06017 7.14289,84.28571"
       id="path13133-8"
       inkscape:connector-curvature="0" />
    <path
       style="fill:none;stroke:#000000;stroke-width:2.4000001;stroke-linecap:butt;stroke-linejoin:miter;stroke-miterlimit:4;stroke-opacity:1;stroke-dasharray:none"
       d="m 485.71429,148.79075 c -21.17103,23.80805 -55.41037,24.41657 -82.85715,36.42904"
       id="path3167"
       inkscape:connector-curvature="0" />
  </g>
</svg>
