<?xml version="1.0" encoding="UTF-8" standalone="no"?>
<!-- Created with Inkscape (http://www.inkscape.org/) -->

<svg
   xmlns:dc="http://purl.org/dc/elements/1.1/"
   xmlns:cc="http://creativecommons.org/ns#"
   xmlns:rdf="http://www.w3.org/1999/02/22-rdf-syntax-ns#"
   xmlns:svg="http://www.w3.org/2000/svg"
   xmlns="http://www.w3.org/2000/svg"
   xmlns:sodipodi="http://sodipodi.sourceforge.net/DTD/sodipodi-0.dtd"
   xmlns:inkscape="http://www.inkscape.org/namespaces/inkscape"
   width="744.09448819"
   height="1052.3622047"
   id="svg12522"
   version="1.1"
   inkscape:version="0.48.5 r10040"
   sodipodi:docname="New document 33">
  <defs
     id="defs12524" />
  <sodipodi:namedview
     id="base"
     pagecolor="#ffffff"
     bordercolor="#666666"
     borderopacity="1.0"
     inkscape:pageopacity="0.0"
     inkscape:pageshadow="2"
     inkscape:zoom="0.7"
     inkscape:cx="99.8591"
     inkscape:cy="549.35776"
     inkscape:document-units="px"
     inkscape:current-layer="layer1"
     showgrid="false"
     inkscape:window-width="1280"
     inkscape:window-height="958"
     inkscape:window-x="0"
     inkscape:window-y="27"
     inkscape:window-maximized="1" />
  <metadata
     id="metadata12527">
    <rdf:RDF>
      <cc:Work
         rdf:about="">
        <dc:format>image/svg+xml</dc:format>
        <dc:type
           rdf:resource="http://purl.org/dc/dcmitype/StillImage" />
        <dc:title></dc:title>
      </cc:Work>
    </rdf:RDF>
  </metadata>
  <g
     inkscape:label="Layer 1"
     inkscape:groupmode="layer"
     id="layer1">
    <path
       sodipodi:type="arc"
       style="fill:none;fill-opacity:0.15740739000000001;stroke:#000000;stroke-width:1.89999998000000003;stroke-miterlimit:4;stroke-opacity:1;stroke-dasharray:none"
       id="path12549"
       sodipodi:cx="132.85715"
       sodipodi:cy="102.36218"
       sodipodi:rx="30"
       sodipodi:ry="28.571428"
       d="m 162.85715,102.36218 a 30,28.571428 0 1 1 -60,0 30,28.571428 0 1 1 60,0 z" />
    <path
       transform="matrix(0.69242228,0,0,0.69242228,80.690598,-38.894285)"
       sodipodi:type="arc"
       style="fill:#000000;fill-opacity:1;stroke:#000000;stroke-width:1.89999998;stroke-miterlimit:4;stroke-opacity:1;stroke-dasharray:none"
       id="path13059-2"
       sodipodi:cx="60"
       sodipodi:cy="196.6479"
       sodipodi:rx="5.7142859"
       sodipodi:ry="5.7142859"
       d="m 65.714286,196.6479 a 5.7142859,5.7142859 0 1 1 -11.428572,0 5.7142859,5.7142859 0 1 1 11.428572,0 z" />
    <path
       style="fill:none;stroke:#000000;stroke-width:1.77340436px;stroke-linecap:butt;stroke-linejoin:miter;stroke-opacity:1"
       d="m 117.16306,112.58866 c 29.33854,23.27673 36.72021,-2.80667 36.72021,-2.80667"
       id="path13081"
       inkscape:connector-curvature="0" />
    <path
       transform="matrix(0.69242228,0,0,0.69242228,100.45466,-40.086922)"
       sodipodi:type="arc"
       style="fill:#000000;fill-opacity:1;stroke:#000000;stroke-width:1.89999998;stroke-miterlimit:4;stroke-opacity:1;stroke-dasharray:none"
       id="path13059-2-9"
       sodipodi:cx="60"
       sodipodi:cy="196.6479"
       sodipodi:rx="5.7142859"
       sodipodi:ry="5.7142859"
       d="m 65.714286,196.6479 a 5.7142859,5.7142859 0 1 1 -11.428572,0 5.7142859,5.7142859 0 1 1 11.428572,0 z" />
    <rect
       style="fill:none;stroke:#000000;stroke-width:1.89999998;stroke-miterlimit:4;stroke-opacity:1;stroke-dasharray:none"
       id="rect13101"
       width="64.285713"
       height="112.85714"
       x="100.28571"
       y="133.50504" />
    <text
       xml:space="preserve"
       style="font-size:40px;font-style:normal;font-weight:normal;line-height:125%;letter-spacing:0px;word-spacing:0px;fill:#000000;fill-opacity:1;stroke:none;font-family:Sans"
       x="111.71429"
       y="197.50504"
       id="text13127"
       sodipodi:linespacing="125%"><tspan
         sodipodi:role="line"
         id="tspan13129"
         x="111.71429"
         y="197.50504">M</tspan></text>
    <path
       style="fill:none;stroke:#000000;stroke-width:2.5;stroke-linecap:butt;stroke-linejoin:miter;stroke-opacity:1;stroke-miterlimit:4;stroke-dasharray:none"
       d="m 110,245.21933 c 0.95238,2.38095 2.15266,4.67715 2.85714,7.14285 0.30802,1.07806 0,8.53126 0,10 0,6.50327 0.67344,0.0817 -1.42857,4.28572 -0.45062,0.90124 0.45062,6.24161 0,7.14285 -0.30117,0.60234 -1.1274,0.82624 -1.42857,1.42858 -0.21738,0.43476 0,3.64234 0,4.28571 0,3.35025 0.33672,-0.67344 -1.42857,2.85714 -0.45062,0.90124 0.45062,6.24162 0,7.14286 -0.30117,0.60234 -1.1274,0.82623 -1.42857,1.42857 -0.21296,0.42592 0,0.95238 0,1.42857 0,2.38095 0,4.76191 0,7.14286 0,0.47619 0,0.95238 0,1.42857 0,0.47619 0.21296,1.00265 0,1.42857 -0.30117,0.60234 -1.1274,0.82624 -1.42857,1.42857 -0.21296,0.42592 0,0.95238 0,1.42858 0,0.47619 0,0.95238 0,1.42857 0,4.7619 0,9.52381 0,14.28571 0,2.38095 0,4.76191 0,7.14286 0,0.47619 0.47619,1.42857 0,1.42857 -0.47619,0 0,-0.95238 0,-1.42857"
       id="path13131"
       inkscape:connector-curvature="0" />
    <path
       style="fill:none;stroke:#000000;stroke-width:2.5;stroke-linecap:butt;stroke-linejoin:miter;stroke-opacity:1;stroke-miterlimit:4;stroke-dasharray:none"
       d="m 147.14286,245.21933 c 0.47619,2.38095 0.95238,4.7619 1.42857,7.14285 0.47619,0.47619 1.21561,0.7897 1.42857,1.42857 0.30117,0.90351 0,1.90477 0,2.85715 0,0.79736 -0.21798,6.48891 0,7.14285 0.21296,0.63888 1.21561,0.7897 1.42857,1.42858 0.256,0.768 0,4.50478 0,5.71428 0,0.56473 -0.30506,6.53274 0,7.14286 0.30117,0.60234 1.1274,0.82623 1.42857,1.42857 0.21296,0.42592 0,0.95238 0,1.42857 0,0.47619 0,0.95238 0,1.42857 0,2.38095 0,4.76191 0,7.14286 0,0.47619 0,0.95238 0,1.42857 0,0.47619 -0.21296,1.00265 0,1.42857 0.30117,0.60234 1.12741,0.82624 1.42857,1.42857 0.1601,0.32019 0,5.37482 0,5.71429 0,2.85714 0,5.71429 0,8.57143 0,4.28571 0,8.57143 0,12.85714 0,1.90476 0,3.80952 0,5.71429 0,0.47619 0.47619,1.42857 0,1.42857 -0.47619,0 0,-1.90476 0,-1.42857 0,0.95238 0,1.90476 0,2.85714"
       id="path13133"
       inkscape:connector-curvature="0" />
    <path
       style="fill:none;stroke:#000000;stroke-width:2.4;stroke-linecap:butt;stroke-linejoin:miter;stroke-opacity:1;stroke-miterlimit:4;stroke-dasharray:none"
       d="m 164.28571,160.93361 c 1.40598,4.69002 3.9851,6.84224 7.14286,10 0.47619,0.47619 0.95238,0.95238 1.42857,1.42857 0.47619,0.47619 0.82624,1.1274 1.42857,1.42857 0.42592,0.21296 1.00266,-0.21296 1.42858,0 1.20467,0.60234 1.65246,2.25481 2.85714,2.85715 0.85183,0.42591 2.00531,-0.42592 2.85714,0 0.60234,0.30117 0.82623,1.1274 1.42857,1.42857 0.42592,0.21296 1.00266,-0.21296 1.42857,0 0.60234,0.30117 0.82624,1.1274 1.42858,1.42857 0.85183,0.42592 2.0053,-0.42592 2.85714,0 0.60234,0.30117 0.82623,1.1274 1.42857,1.42857 0.42592,0.21296 1.00265,-0.21296 1.42857,0 0.60234,0.30117 0.82623,1.1274 1.42857,1.42857 0.42592,0.21296 1.00266,-0.21296 1.42857,0 0.60234,0.30117 0.82624,1.1274 1.42858,1.42857 0.42591,0.21296 1.00265,-0.21296 1.42857,0 0.60234,0.30117 0.82623,1.12741 1.42857,1.42858 0.42592,0.21295 1.00265,-0.21296 1.42857,0 0.60234,0.30116 0.82623,1.1274 1.42857,1.42857 0.42592,0.21296 1.00266,-0.21296 1.42857,0 0.60234,0.30117 0.82624,1.1274 1.42857,1.42857 0.42592,0.21296 1.00266,-0.21296 1.42858,0 0.60233,0.30117 0.82623,1.1274 1.42857,1.42857 0.42591,0.21296 1.00265,-0.21296 1.42857,0 0.60234,0.30117 0.82623,1.1274 1.42857,1.42857 0.85184,0.42592 2.00531,-0.42592 2.85714,0 0.60234,0.30117 0.82624,1.1274 1.42857,1.42857 0.85184,0.42592 2.00531,-0.42592 2.85715,0 0.60234,0.30117 0.82623,1.1274 1.42857,1.42857 0.63568,0.31784 5.06087,-0.2178 5.71428,0 0.63888,0.21296 0.82624,1.12741 1.42858,1.42858 1.14285,0.57142 3.14285,-0.57143 4.28571,0 0.60234,0.30116 0.95238,0.95238 1.42857,1.42857"
       id="path13135"
       inkscape:connector-curvature="0" />
    <path
       style="fill:none;stroke:#000000;stroke-width:1px;stroke-linecap:butt;stroke-linejoin:miter;stroke-opacity:1"
       d="m 225.71429,170.93361 c 4.57142,6.09524 4.28571,3.33333 4.28571,7.14286 0,0.47619 -0.21296,1.00265 0,1.42857 0.30117,0.60234 1.21561,0.78969 1.42857,1.42857 0.30117,0.90351 -0.30117,1.95364 0,2.85714 0.21296,0.63888 1.1274,0.82624 1.42857,1.42858 0.21296,0.42591 0,0.95238 0,1.42857 0,1.43864 -0.26334,7.7814 0,8.57143 0.21296,0.63887 1.12741,0.82623 1.42857,1.42857 0.21739,0.43476 0,3.64234 0,4.28571 0,2.85714 0,5.71429 0,8.57143 0,1.90476 0,3.80952 0,5.71429 0,0.47619 0.47619,1.42857 0,1.42857 -0.47619,0 0,-1.90477 0,-1.42857 0,1.42857 0,2.85714 0,4.28571"
       id="path13139"
       inkscape:connector-curvature="0" />
    <path
       style="fill:none;stroke:#000000;stroke-width:1px;stroke-linecap:butt;stroke-linejoin:miter;stroke-opacity:1"
       d="m 228.57143,172.36218 c 4.7619,0 9.52381,0 14.28571,0 0.95238,0 1.90476,0 2.85715,0 0.47619,0 1.00265,0.21296 1.42857,0 0.60234,-0.30117 0.78969,-1.21561 1.42857,-1.42857 1.80701,-0.60234 3.90727,0.60234 5.71428,0 0.63888,-0.21296 0.82624,-1.1274 1.42858,-1.42857 0.61012,-0.30506 6.57812,0 7.14285,0 5.2381,0 10.47619,0 15.71429,0 4.7619,0 9.52381,0 14.28571,0 0.39859,0 8.87124,0 4.28572,0"
       id="path13143"
       inkscape:connector-curvature="0" />
    <path
       style="fill:none;stroke:#000000;stroke-width:1px;stroke-linecap:butt;stroke-linejoin:miter;stroke-opacity:1"
       d="m 235.71429,219.50504 c 1.90476,0 3.84651,0.37355 5.71428,0 0.66036,-0.13207 0.82623,-1.1274 1.42857,-1.42857 0.9154,-0.4577 7.68424,0.44359 8.57143,0 0.60234,-0.30117 0.7897,-1.21561 1.42857,-1.42857 0.76801,-0.25601 4.50479,0 5.71429,0 4.7619,0 9.52381,0 14.28571,0 1.28097,0 10.7492,-0.22646 11.42857,0 0.63888,0.21296 0.82624,1.1274 1.42858,1.42857 0.1951,0.0976 8.37632,0.0976 8.57142,0 3.15865,-1.57933 0.44332,-0.88663 1.42858,-2.85714 0.85714,-1.71429 3.42857,-2.57143 4.28571,-4.28572 0.21296,-0.42592 -0.21296,-1.00265 0,-1.42857 0.30117,-0.60234 0.95238,-0.95238 1.42857,-1.42857 0.47619,-0.47619 0.95238,-1.90476 1.42857,-1.42857 0.47619,0.47619 -2.03091,1.72974 -1.42857,1.42857 1.53567,-0.76784 2.75005,-2.08931 4.28572,-2.85714 0.42591,-0.21296 1.00265,0.21295 1.42857,0 0.60234,-0.30117 0.95238,-0.95239 1.42857,-1.42858 0.47619,-0.47619 1.1274,-0.82623 1.42857,-1.42857 0.21738,-0.43476 0,-3.64234 0,-4.28571 0,-0.74703 0.18782,-5.33866 0,-5.71429 -0.30117,-0.60234 -1.21561,-0.78969 -1.42857,-1.42857 -0.24532,-0.73596 0,-8.48883 0,-10 0,-0.99363 -0.25831,-6.62624 0,-7.14286 0.30117,-0.60234 1.1274,-0.82623 1.42857,-1.42857 0.21296,-0.42592 -0.47619,-1.42857 0,-1.42857 0.47619,0 0,1.90476 0,1.42857 0,-3.33333 0.95238,-2.85714 -1.42857,-2.85714"
       id="path13145"
       inkscape:connector-curvature="0" />
    <path
       style="fill:none;stroke:#000000;stroke-width:1px;stroke-linecap:butt;stroke-linejoin:miter;stroke-opacity:1"
       d="m 295.71429,168.07647 c 1.90476,0.47619 3.89133,0.69939 5.71428,1.42857 0.62527,0.25011 0.82623,1.1274 1.42857,1.42857 0.42592,0.21296 0.95238,0 1.42857,0 0.47619,0 0.95239,0 1.42858,0 0.74703,0 5.33865,-0.18781 5.71428,0 0.60234,0.30117 0.95238,0.95238 1.42857,1.42857"
       id="path13147"
       inkscape:connector-curvature="0" />
    <path
       style="fill:none;stroke:#000000;stroke-width:1px;stroke-linecap:butt;stroke-linejoin:miter;stroke-opacity:1"
       d="m 310,202.36218 c -1.90476,0.47619 -3.78903,1.04352 -5.71429,1.42857 -0.89045,0.17809 -6.7013,0.14719 -7.14285,0 -0.63888,-0.21296 -0.82624,-1.1274 -1.42857,-1.42857 -0.37563,-0.18781 -4.96726,0 -5.71429,0 -0.47619,0 -0.95238,0 -1.42857,0 -0.47619,0 -1.09186,-0.33672 -1.42857,0 -0.0575,0.0575 0,5.18966 0,5.71429 0,0.95238 0,1.90476 0,2.85714 0,0.47619 0.47619,1.42857 0,1.42857 -0.47619,0 0,-1.90476 0,-1.42857 0,0.95238 -0.30117,1.95364 0,2.85714 0.21296,0.63888 1.90476,0.95238 1.42857,1.42858 -0.47619,0.47619 -1.42857,-2.10201 -1.42857,-1.42858 0,1.0648 1.09185,1.84699 1.42857,2.85715 0.15058,0.45175 0,0.95238 0,1.42857"
       id="path13149"
       inkscape:connector-curvature="0" />
    <path
       style="fill:none;stroke:#000000;stroke-width:1px;stroke-linecap:butt;stroke-linejoin:miter;stroke-opacity:1"
       d="m 287.14286,176.6479 c -3.93488,19.51105 1.42857,-15.90044 1.42857,7.14285 0,2.99662 -4.28572,-0.13947 -4.28572,2.85715 0,0.67343 1.90477,0.95238 1.42858,1.42857 -0.47619,0.47619 -2.10201,-1.42857 -1.42858,-1.42857 1.50585,0 3.03278,0.59327 4.28572,1.42857 0.39621,0.26414 0.47619,1.42857 0,1.42857 -0.47619,0 0.33672,-1.76529 0,-1.42857 -0.75292,0.75292 -0.67565,2.10422 -1.42857,2.85714 -0.67344,0.67344 -2.43123,-0.85183 -2.85715,0 -0.42591,0.85184 0.95239,2.85714 0,2.85714 -0.95238,0 -0.95238,-2.85714 0,-2.85714 7.93216,0 0,5.00493 0,5.71429 0,0.47619 1.42858,-0.47619 1.42858,0 0,0.47619 -1.90477,0 -1.42858,0 0.95239,0 2.00531,-0.42592 2.85715,0 0.42592,0.21296 0.33671,1.09185 0,1.42857 -0.33672,0.33672 -0.97682,-0.15059 -1.42857,0 -0.0102,0.003 -4.28572,1.76747 -4.28572,2.85714 0,0.67344 1.1274,0.82623 1.42857,1.42857 0.21738,0.43477 0,3.64235 0,4.28572 0,0.47619 0.47619,1.42857 0,1.42857 -2.102,0 3.30941,-4.73798 -1.42857,0"
       id="path13151"
       inkscape:connector-curvature="0" />
    <path
       style="fill:none;stroke:#000000;stroke-width:1px;stroke-linecap:butt;stroke-linejoin:miter;stroke-opacity:1"
       d="m 270,179.50504 c -1.90476,0.95238 -3.88818,1.76148 -5.71429,2.85714 -0.57746,0.34648 -0.82623,1.1274 -1.42857,1.42857 -0.42591,0.21296 -1.09185,-0.33671 -1.42857,0 -0.20146,0.20147 -0.14652,3.99268 0,4.28572 0.30117,0.60234 0.82623,1.1274 1.42857,1.42857 0.42592,0.21296 0.95238,0 1.42857,0 0.95239,0 1.9332,-0.23099 2.85715,0 1.033,0.25825 1.84699,1.09185 2.85714,1.42857 0.45175,0.15059 1.21561,-0.42592 1.42857,0 1.44387,2.88775 -0.76246,3.58749 -2.85714,4.28572 -0.45176,0.15058 -1.00266,-0.21296 -1.42857,0 -0.60234,0.30116 -1.72974,0.82623 -1.42857,1.42857 0.47619,0.95238 2.38095,0.47619 2.85714,1.42857 0.55789,1.11578 -3.07131,1.2144 -1.42857,2.85714 0.67343,0.67344 2.85714,-0.95238 2.85714,0 0,0.44339 -3.91512,3.54453 -4.28571,4.28572 -1.28572,2.57142 2.09523,1.04761 2.85714,1.42857 0.42592,0.21296 0,0.95238 0,1.42857 0,0.47619 0.21296,1.00265 0,1.42857 -0.30117,0.60234 -1.1274,0.82623 -1.42857,1.42857 -0.21296,0.42592 0.33671,1.09185 0,1.42857 -0.33672,0.33672 -0.95238,0 -1.42857,0"
       id="path13153"
       inkscape:connector-curvature="0" />
    <path
       style="fill:none;stroke:#000000;stroke-width:1px;stroke-linecap:butt;stroke-linejoin:miter;stroke-opacity:1"
       d="m 250,179.50504 c -1.65956,6.63823 -3.39195,5.71429 1.42857,5.71429 0.47619,0 1.21561,-0.42592 1.42857,0 0.42592,0.85183 0.23099,1.93319 0,2.85714 -1.19296,4.77187 -4.17868,2.64308 -5.71428,5.71428 -1.07583,2.15166 1.9797,1.97971 2.85714,2.85715 1.62416,1.62415 -2.85714,3.2255 -2.85714,4.28571 0,2.97269 2.00338,0.57481 2.85714,1.42857 0.33672,0.33672 0,0.95238 0,1.42857 0,0.47619 0.21296,1.00266 0,1.42858 -0.30117,0.60233 -1.1274,0.82623 -1.42857,1.42857 -0.21296,0.42591 0,0.95238 0,1.42857 0,0.47619 -0.21296,1.00265 0,1.42857 0.30117,0.60234 1.1274,0.82623 1.42857,1.42857 0.21296,0.42592 0,0.95238 0,1.42857"
       id="path13155"
       inkscape:connector-curvature="0" />
    <path
       transform="translate(384.71429,-3.150003)"
       sodipodi:type="arc"
       style="fill:none;stroke:#000000;stroke-width:1.89999998;stroke-miterlimit:4;stroke-opacity:1;stroke-dasharray:none"
       id="path12549-7"
       sodipodi:cx="132.85715"
       sodipodi:cy="102.36218"
       sodipodi:rx="30"
       sodipodi:ry="28.571428"
       d="m 162.85715,102.36218 a 30,28.571428 0 1 1 -60,0 30,28.571428 0 1 1 60,0 z" />
    <path
       transform="matrix(0.69242228,0,0,0.69242228,465.40489,-42.044289)"
       sodipodi:type="arc"
       style="fill:#000000;fill-opacity:1;stroke:#000000;stroke-width:1.89999998;stroke-miterlimit:4;stroke-opacity:1;stroke-dasharray:none"
       id="path13059-2-1"
       sodipodi:cx="60"
       sodipodi:cy="196.6479"
       sodipodi:rx="5.7142859"
       sodipodi:ry="5.7142859"
       d="m 65.714286,196.6479 a 5.7142859,5.7142859 0 1 1 -11.428572,0 5.7142859,5.7142859 0 1 1 11.428572,0 z" />
    <path
       style="fill:none;stroke:#000000;stroke-width:1.54510283px;stroke-linecap:butt;stroke-linejoin:miter;stroke-opacity:1"
       d="m 538.59756,108.3522 c -36.33682,14.26635 -45.47927,-1.72021 -45.47927,-1.72021"
       id="path13081-6"
       inkscape:connector-curvature="0" />
    <path
       transform="matrix(0.69242228,0,0,0.69242228,485.16895,-43.236929)"
       sodipodi:type="arc"
       style="fill:#000000;fill-opacity:1;stroke:#000000;stroke-width:1.89999998;stroke-miterlimit:4;stroke-opacity:1;stroke-dasharray:none"
       id="path13059-2-9-5"
       sodipodi:cx="60"
       sodipodi:cy="196.6479"
       sodipodi:rx="5.7142859"
       sodipodi:ry="5.7142859"
       d="m 65.714286,196.6479 a 5.7142859,5.7142859 0 1 1 -11.428572,0 5.7142859,5.7142859 0 1 1 11.428572,0 z" />
    <rect
       style="fill:none;stroke:#000000;stroke-width:1.89999998;stroke-miterlimit:4;stroke-opacity:1;stroke-dasharray:none"
       id="rect13101-6"
       width="64.285713"
       height="112.85714"
       x="485"
       y="130.35503" />
    <text
       xml:space="preserve"
       style="font-size:40px;font-style:normal;font-weight:normal;line-height:125%;letter-spacing:0px;word-spacing:0px;fill:#000000;fill-opacity:1;stroke:none;font-family:Sans"
       x="486.42859"
       y="194.35504"
       id="text13127-2"
       sodipodi:linespacing="125%"><tspan
         sodipodi:role="line"
         id="tspan13129-9"
         x="486.42859"
         y="194.35504">BG</tspan></text>
    <path
       style="fill:none;stroke:#000000;stroke-width:2.5;stroke-linecap:butt;stroke-linejoin:miter;stroke-miterlimit:4;stroke-opacity:1;stroke-dasharray:none"
       d="m 494.71429,242.06933 c 0.95238,2.38095 2.15266,4.67715 2.85714,7.14285 0.30802,1.07806 0,8.53126 0,10 0,6.50327 0.67344,0.0817 -1.42857,4.28572 -0.45062,0.90124 0.45062,6.24161 0,7.14285 -0.30117,0.60234 -1.1274,0.82624 -1.42857,1.42858 -0.21738,0.43476 0,3.64234 0,4.28571 0,3.35025 0.33672,-0.67344 -1.42857,2.85714 -0.45062,0.90124 0.45062,6.24162 0,7.14286 -0.30117,0.60234 -1.1274,0.82623 -1.42857,1.42857 -0.21296,0.42592 0,0.95238 0,1.42857 0,2.38095 0,4.76191 0,7.14286 0,0.47619 0,0.95238 0,1.42857 0,0.47619 0.21296,1.00265 0,1.42857 -0.30117,0.60234 -1.1274,0.82624 -1.42857,1.42857 -0.21296,0.42592 0,0.95238 0,1.42858 0,0.47619 0,0.95238 0,1.42857 0,4.7619 0,9.52381 0,14.28571 0,2.38095 0,4.76191 0,7.14286 0,0.47619 0.47619,1.42857 0,1.42857 -0.47619,0 0,-0.95238 0,-1.42857"
       id="path13131-0"
       inkscape:connector-curvature="0" />
    <path
       style="fill:none;stroke:#000000;stroke-width:2.5;stroke-linecap:butt;stroke-linejoin:miter;stroke-miterlimit:4;stroke-opacity:1;stroke-dasharray:none"
       d="m 531.85715,242.06933 c 0.47619,2.38095 0.95238,4.7619 1.42857,7.14285 0.47619,0.47619 1.21561,0.7897 1.42857,1.42857 0.30117,0.90351 0,1.90477 0,2.85715 0,0.79736 -0.21798,6.48891 0,7.14285 0.21296,0.63888 1.21561,0.7897 1.42857,1.42858 0.256,0.768 0,4.50478 0,5.71428 0,0.56473 -0.30506,6.53274 0,7.14286 0.30117,0.60234 1.1274,0.82623 1.42857,1.42857 0.21296,0.42592 0,0.95238 0,1.42857 0,0.47619 0,0.95238 0,1.42857 0,2.38095 0,4.76191 0,7.14286 0,0.47619 0,0.95238 0,1.42857 0,0.47619 -0.21296,1.00265 0,1.42857 0.30117,0.60234 1.12741,0.82624 1.42857,1.42857 0.1601,0.32019 0,5.37482 0,5.71429 0,2.85714 0,5.71429 0,8.57143 0,4.28571 0,8.57143 0,12.85714 0,1.90476 0,3.80952 0,5.71429 0,0.47619 0.47619,1.42857 0,1.42857 -0.47619,0 0,-1.90476 0,-1.42857 0,0.95238 0,1.90476 0,2.85714"
       id="path13133-8"
       inkscape:connector-curvature="0" />
  </g>
</svg>
