<?xml version="1.0" encoding="UTF-8" standalone="no"?>
<!-- Created with Inkscape (http://www.inkscape.org/) -->

<svg
   xmlns:dc="http://purl.org/dc/elements/1.1/"
   xmlns:cc="http://creativecommons.org/ns#"
   xmlns:rdf="http://www.w3.org/1999/02/22-rdf-syntax-ns#"
   xmlns:svg="http://www.w3.org/2000/svg"
   xmlns="http://www.w3.org/2000/svg"
   xmlns:xlink="http://www.w3.org/1999/xlink"
   xmlns:sodipodi="http://sodipodi.sourceforge.net/DTD/sodipodi-0.dtd"
   xmlns:inkscape="http://www.inkscape.org/namespaces/inkscape"
   width="667.68109"
   height="402.5625"
   id="svg2"
   version="1.1"
   inkscape:version="0.48.4 r9939"
   sodipodi:docname="resman.svg">
  <defs
     id="defs4" />
  <sodipodi:namedview
     id="base"
     pagecolor="#ffffff"
     bordercolor="#666666"
     borderopacity="1.0"
     inkscape:pageopacity="0.0"
     inkscape:pageshadow="2"
     inkscape:zoom="0.98994949"
     inkscape:cx="326.94686"
     inkscape:cy="180.49681"
     inkscape:document-units="px"
     inkscape:current-layer="layer1"
     showgrid="false"
     inkscape:window-width="1301"
     inkscape:window-height="744"
     inkscape:window-x="65"
     inkscape:window-y="24"
     inkscape:window-maximized="1"
     fit-margin-top="0"
     fit-margin-left="0"
     fit-margin-right="0"
     fit-margin-bottom="0" />
  <metadata
     id="metadata7">
    <rdf:RDF>
      <cc:Work
         rdf:about="">
        <dc:format>image/svg+xml</dc:format>
        <dc:type
           rdf:resource="http://purl.org/dc/dcmitype/StillImage" />
        <dc:title></dc:title>
      </cc:Work>
    </rdf:RDF>
  </metadata>
  <g
     inkscape:label="Layer 1"
     inkscape:groupmode="layer"
     id="layer1"
     transform="translate(86.143643,-52.514964)">
    <path
       style="fill:#000000"
       d="m 515.06491,453.85904 c -7.8684,-2.80826 -6.89701,-3.85362 -6.76577,-10.76083 0.23124,-12.16993 1.37158,-13.75796 11.19759,-15.59365 4.70945,-0.87983 9.13114,0.27607 11.3363,2.96347 0.6468,0.78824 1.30403,5.97257 1.49962,11.82916 l 0.34818,10.42593 -3,1.27896 c -3.85152,1.64199 -4.64629,0.91003 -11.22306,0.92834 z m 11.53413,-2.09477 c 2.86172,-1.09814 1.64905,-2.27269 -1.43365,-1.38858 -1.6585,0.47565 -5.58886,0.31849 -7.64286,0.0872 -2.0125,-0.22661 -5.89208,-1.60247 -5.81165,-1.12885 0.27251,1.60483 3.84576,2.04958 4.57709,2.30883 3.0499,1.08116 8.17974,0.93932 10.31107,0.12145 z m 1.90757,-5.31879 c 1.85395,-1.85395 -0.01,-2.23397 -5.75115,-1.17264 -3.09163,0.57152 -7.07318,0.76796 -8.84789,0.43653 -3.51695,-0.65678 -2.86827,1.02601 0.77326,2.00599 2.99565,0.80617 12.63511,-0.0792 13.82578,-1.26988 z m 0.37065,-4.61166 c 2.61545,-2.45725 -0.78303,-1.11989 -8.43842,-1.07849 -8.96272,0.0485 -10.11334,0.39851 -8.50801,2.05781 0.90564,0.93608 14.22823,1.57445 16.94643,-0.97932 z m 0.0893,-4.57095 c 1.70341,-2.67212 -2.52781,-0.67041 -8.43506,-0.56103 -5.03214,0.0932 -8.67523,-1.36808 -8.69098,0.91942 0.60172,0.98457 15.31218,2.48701 17.12604,-0.35839 z m -0.42905,-4.84827 c 0.59679,-0.59679 -0.01,-1.38384 -1.63869,-2.12598 -3.16244,-1.4409 -13.80221,0.74893 -14.53183,2.99088 -0.3798,1.16702 0.88474,1.29471 7.38232,0.74546 4.31233,-0.36452 8.26703,-1.08919 8.7882,-1.61036 z m -12.44354,-9.7383 c -7.00118,-4.67621 -9.87287,-10.0519 -5.91312,-9.30504 2.82311,0.53247 2,-0.27702 2,-7.12865 l 0,-7.12866 -10.75,0.61827 c -5.9125,0.34004 -15.25,0.71107 -20.75,0.82451 l -10,0.20624 0.0944,-23.27178 c 0.064,-15.76649 1.44755,-24.20923 -0.32794,-23.5438 -1.56791,0.58764 -3.5485,1.426 -4.68046,1.98036 -1.30883,0.64098 -1.7005,0.43786 -1.19099,-0.38655 0.16585,-0.26836 0.67336,-1.08351 0.25803,-1.20577 -1.81157,-0.53326 -6.09244,-0.45395 -9.20475,-0.28732 -1.002,0.0537 -1.9941,1.04775 -2.52827,1.36597 -1.44025,0.858 -1.85525,0.32358 -1.34943,-0.54018 0.7817,-1.33485 -2.91701,-1.37145 -7.32111,-1.67115 -0.52922,-0.036 -1.5067,0.7741 -1.97246,0.93691 -0.12186,0.0426 -0.72682,0.27101 -1.15992,0.55895 -1.20643,0.80212 -1.74627,0.43151 -1.30446,-0.28335 0.43009,-0.69596 -0.6167,-1.044 -2.17748,-1.044 -2.39429,0 -3.2384,-0.86702 -2.67764,-8.33036 0.18601,-2.47555 0.47091,-4.55871 0.0856,-6.25031 -0.34068,-1.49561 -1.33195,-2.70464 -1.54247,-3.3257 -0.54248,-1.60039 -0.46629,-2.19044 0.22749,-1.76166 1.06136,0.65596 2.42887,-3.84163 1.46204,-4.80847 -0.28793,-0.28792 -3.09927,-0.5235 -6.24743,-0.5235 l -5.72393,0 -0.48978,-3.75 c -0.26938,-2.0625 -0.55789,-13.7625 -0.64113,-26 l -0.15134,-22.25 5.53172,0 c 5.99555,0 6.09452,-0.0751 4.368,-3.31574 -1.05197,-1.97451 -1.00396,-2.05247 0.5,-0.81182 1.5064,1.24267 1.66372,0.96644 1.66372,-2.92125 0,-2.59201 -0.65591,-5.01848 -1.65499,-6.12244 -1.09355,-1.20837 -1.23958,-1.82875 -0.43045,-1.82875 0.69791,0 1.08711,-0.96764 0.90499,-2.25 -0.30129,-2.12146 0.23358,-3.00637 -7.3094,-2.98477 -2.52601,0.007 -1.22102,-0.1058 -7.42405,0.10508 -1.42469,0.0484 -2.37308,1.44125 -2.82144,1.65139 -1.37778,0.64575 -1.93245,0.56931 -1.41196,-0.27284 0.17827,-0.28845 0.6838,-1.17205 0.48671,-1.36259 -0.24257,-0.23452 -2.08536,-0.0757 -2.42983,-0.0757 -0.8277,0 0.11497,4.72628 0.59106,16.9394 1.78105,45.68908 2.45609,60.03835 3.5165,74.75 1.33396,18.50675 0.4013,58.26924 -1.40642,59.9607 -0.72963,0.68272 -17.26532,1.10654 -48.19549,1.23528 -28.86188,0.12013 -51.1157,0.66079 -57.5,1.39697 -5.72838,0.66054 -11.54023,1.15247 -12.91523,1.09317 -1.375,-0.0593 -11.725,-0.55961 -23,-1.1118 -11.275,-0.55219 -33.325,-1.45179 -49,-1.99911 -15.675,-0.54732 -36.6,-1.45241 -46.5,-2.0113 -9.9,-0.5589 -27.3375,-1.02691 -38.75,-1.04004 -15.92733,-0.0183 -20.74713,-0.31439 -20.73764,-1.27387 0.18373,-18.58193 -1.16579,-96.22516 -1.95781,-112.63986 -1.58653,-32.88123 -1.66001,-94.81335 -0.1328,-111.92711 0.7027,-7.87434 1.06209,-14.53253 0.79864,-14.79598 -0.26346,-0.26345 -23.145818,-0.69719 -50.849698,-0.9639 -27.70388,-0.26668 -55.63054,-0.80849 -62.05924,-1.20401 l -11.68854,-0.71914 -0.66752,7.12813 c -0.36714,3.92047 -0.36923,8.06799 -0.005,9.21669 0.88027,2.77351 0.0745,2.90404 -22.49325,3.64375 -16.70816,0.54765 -53.66923,-0.91559 -54.95754,-2.17568 -0.77676,-0.75976 -0.0145,-45.70223 0.78823,-46.47127 1.09283,-1.04703 34.32826,-1.25895 57.03051,-0.36365 l 20.31873,0.8013 -0.24087,12.61037 -0.24087,12.61036 6.92214,0.62579 c 3.80717,0.34418 13.67213,0.68278 21.92213,0.75243 8.25,0.0696 21.075,0.60469 28.5,1.18898 8.34982,0.65706 23.90102,0.79683 40.76388,0.36637 26.689948,-0.68132 27.273538,-0.74057 27.722818,-2.81477 0.72725,-3.35749 3.78436,-98.420499 3.25426,-101.193527 -0.85077,-4.450518 1.52052,-4.837914 29.25904,-4.780036 186.41031,0.388956 242.92953,0.343146 250.54181,-0.203068 7.68818,-0.551661 9.24583,-0.402974 10.40453,0.993176 1.01212,1.219525 1.56284,7.742343 2.14058,25.353311 0.42783,13.04124 1.05326,26.861344 1.38984,30.711344 0.33657,3.85 0.15525,21.62501 -0.40295,39.50001 -0.5582,17.87499 -1.893,48.81249 -2.27174,68.74999 -0.62881,33.1023 -1.36801,36.56567 0.93917,36.25 1.12795,-0.15433 1.61563,-0.39897 1.14668,-1.62101 -0.63817,-1.66305 -0.60507,-1.47363 1.93307,0.1894 0.539,0.35317 1.52073,1.2131 2.22789,1.45027 1.84086,0.61742 4.4512,-0.0187 8.41594,-0.0187 6.76142,0 7.53518,0.19697 7.53518,1.91821 0,2.99481 1.10379,5.13568 2.27472,4.412 0.71364,-0.44105 0.78554,-0.0266 0.21785,1.25575 -1.32734,2.99842 -1.82312,11.41404 -0.67242,11.41404 0.55725,0 1.20193,-0.3375 1.43262,-0.75 0.52939,-0.9466 -0.0541,1.259 -0.85976,3.25 -0.48115,1.18905 0.29625,1.52044 3.75,1.59855 2.39635,0.0542 5.48199,0.1667 6.85699,0.25 l 2.5,0.15145 0.60775,22.01414 c 0.33427,12.10778 0.94492,23.07646 1.35702,24.37485 1.02623,3.23338 -0.66622,4.0772 -8.21477,4.0957 l -6.25,0.0153 0,3.05902 c 0,2.08092 0.37408,2.82782 1.16994,2.33595 0.82819,-0.51185 0.93376,-0.16395 0.36137,1.19099 -0.36945,0.87454 -1.81511,1.83698 -2.20441,4.05485 -0.77859,4.43568 -0.3384,10.88684 0.0831,11.9852 0.28999,0.7557 1.42725,1.37399 2.52725,1.37399 1.46219,0 1.35313,0.0691 0.8818,-1.15917 -0.60376,-1.57337 1.21394,-0.13501 3.8689,0.55243 3.17497,0.82208 8.13773,2.33033 8.12668,-0.5632 -0.004,-0.98061 1.75411,1.61004 3.2416,1.73148 2.623,0.21414 7.82916,0.11458 9.58443,-0.2428 0.51945,-0.10576 0.0646,-0.98657 -0.12688,-1.29647 -0.42306,-0.68455 0.62266,-0.48596 2.46911,0.46887 1.76164,0.91098 3.3414,1.51065 3.51057,1.3326 0.16916,-0.17806 0.46484,-19.14669 0.65707,-42.15252 l 0.34949,-41.82877 31,0.69682 c 21.53487,0.48406 37.2592,0.30189 51.5,-0.59661 29.32215,-1.85007 27.55345,-1.91876 27.21932,1.05735 -0.38557,3.43413 -2.29719,75.53258 -2.7177,102.49999 l -0.34305,22 -5.82928,0.2547 c -3.20611,0.14009 -12.86165,0.92759 -21.45675,1.75 -8.5951,0.82243 -17.9326,1.4953 -20.75,1.4953 -4.64302,0 -5.12335,0.21062 -5.13123,2.25 -0.005,1.2375 -0.51048,4.53186 -0.6228,7.36077 -0.20941,5.27409 -0.25099,6.02241 2.00869,5.76905 4.80488,-0.53874 3.14237,3.36652 -6.94512,9.82858 -0.60821,0.38963 -2.19174,-0.0169 -3.51896,-0.90336 z M 309.68083,407.31572 c 4.95,-0.57152 30.15,-1.1514 56,-1.28861 l 47,-0.24948 0.88974,-15.45319 c 0.59841,-10.39322 0.47907,-24.8566 -0.36446,-44.17131 -0.6898,-15.79497 -1.38291,-32.89497 -1.54023,-38 -0.15732,-5.10503 -0.76542,-17.60687 -1.35133,-27.78187 -0.58591,-10.175 -1.00542,-19.74031 -1.0995,-21.25 -0.2219,-3.5608 -0.017,-3.19036 -4.78422,-2.7182 -2.59984,0.25749 -3.98201,-0.20717 -6.31232,0.71082 -1.24546,0.49063 -1.34836,0.90888 -2.96336,1.75278 -1.29263,0.83881 -1.49426,0.93996 -0.78495,-0.47962 0.49626,-0.99317 0.6785,-1.15335 0.32891,-1.16964 -0.25718,-0.012 -2.01246,0.10055 -3.6496,0.16917 -4.61736,0.19352 -4.63358,-0.006 -5.70688,4.25629 -2.5162,9.99272 -16.40709,16.71945 -40.04023,19.38967 l -5.3784,0.60769 0.6284,6.01221 c 0.34562,3.30672 0.6284,11.37653 0.6284,17.93291 0,11.46562 0.0763,11.89646 2,11.28592 2.04315,-0.64847 2.80852,0.88227 1,2 -0.55,0.33992 -1,1.26648 -1,2.05902 0,1.20949 3.65467,1.45699 22.75,1.54066 12.5125,0.0548 23.77325,0.39232 25.02389,0.75 2.14074,0.61224 2.28956,1.22321 2.54131,10.43365 0.25007,9.14909 0.13507,9.81188 -1.7739,10.22383 -4.14526,0.89452 -27.95091,2.49331 -37.34577,2.50815 -5.33254,0.008 -10.14932,0.34592 -10.70396,0.75 -0.6095,0.44405 -0.86946,5.01269 -0.65713,11.54881 0.30133,9.27611 0.5398,10.55634 1.67667,9.00158 1.68628,-2.30613 3.15979,-0.82533 1.10668,1.29687 -1.10204,1.13913 -2.50396,1.95487 -2.29166,2.39674 0.28532,0.59384 2.57006,0.69056 3.71064,1.68229 5.83912,5.07706 0.40406,12.39049 -7.07723,9.29164 -3.98166,-1.64926 -4.67656,-4.52215 -1.97701,-8.17348 1.13295,-1.53239 2.54132,-1.7949 2.51904,-2.4694 -0.0188,-0.56896 -1.31052,-1.57676 -2.07039,-2.41641 -1.61639,-1.7861 -1.19313,-2.99972 -0.0512,-1.92395 2.91525,2.74635 1.65704,-1.17751 1.40498,-10.19229 l -0.28498,-10.1923 -24.71625,0.0854 c -20.71454,0.0716 -24.91582,-0.15504 -25.9489,-1.39984 -0.83068,-1.0009 -1.13896,-4.47175 -0.94531,-10.64313 0.15804,-5.03683 0.3931,-9.26593 0.52236,-9.398 0.12926,-0.13207 11.53389,-1.00553 25.34362,-1.94104 l 25.1086,-1.70091 -2.00015,-2.80896 c -1.68572,-2.36735 -1.75365,-2.80893 -0.43206,-2.80893 1.35632,0 1.56809,-2.08223 1.56809,-15.41821 0,-8.48001 -0.27314,-16.13002 -0.60699,-17 -0.51842,-1.351 -2.93664,-1.58179 -16.57368,-1.58179 -14.50045,0 -16.67162,-0.23643 -23.64301,-2.57473 -8.93754,-2.99775 -10.49307,-4.20044 -13.40341,-10.36309 -1.64136,-3.47561 -2.14763,-6.41113 -2.12566,-12.32529 0.0334,-8.98713 0.93448,-11.07091 6.66349,-15.40921 9.17292,-6.94621 26.66923,-11.06336 48.00735,-11.29683 l 2.8181,-0.0308 -2.21807,-3.11499 c -2.16365,-3.03857 -2.16797,-3.09907 -0.17601,-2.46686 0.60798,0.19296 3.01963,2.93381 3.05652,2.40022 0.19306,-2.79263 -0.78013,-7.09412 -0.30019,-18.03523 1.02927,-23.46402 2.28864,-21.16512 -11.99844,-21.9024 -6.6,-0.34059 -13.30227,-1.14158 -14.89394,-1.77998 -5.14019,-2.06165 -10.41434,-6.9557 -11.18219,-10.3763 -0.8686,-3.86939 -0.79565,-11.97774 0.13413,-14.90719 0.69961,-2.20431 0.0833,-2.23885 -5.058,-0.28356 -1.64459,0.62548 -1.77787,0.52125 -0.75,-0.58653 0.6875,-0.74095 1.25,-1.70718 1.25,-2.14719 0,-1.76568 -28.56277,-0.4392 -50.5,2.34527 l -9,1.14235 -7,6.69492 c -3.85,3.6822 -12.2466,10.56907 -18.65912,15.30418 -8.94435,6.60463 -11.79007,9.26171 -12.22151,11.41128 -0.30931,1.54107 -1.03803,11.80196 -1.61937,22.80196 -0.58134,11 -1.41145,21.23584 -1.11688,22.75 0.55413,2.8483 -0.40977,3.4733 2.57977,0 3.1323,-3.63919 4.37064,-2.22933 1.53711,1.75 -1.22,1.71334 -2.86016,3.03036 -2.66266,3.19956 0.1975,0.16918 3.53089,1.30455 6.42539,2.25021 6.16458,2.01408 16.08325,8.39005 19.65485,12.63465 4.95171,5.88478 5.93743,15.48074 2.33242,22.70605 -3.57733,7.16983 -7.16001,8.89217 -22.13493,10.64116 -7.08671,0.82769 -12.99183,1.63167 -13.12249,1.78663 -0.13066,0.15496 -0.55471,6.13174 -0.94234,13.28174 -0.57148,10.54128 -0.46321,12.76359 0.57249,11.75 0.7025,-0.6875 1.63727,-1.25 2.07727,-1.25 1.35467,0 0.88485,2.68469 -0.7,4 -0.825,0.68469 -1.5,1.58235 -1.5,1.9948 0,0.41246 8.8875,0.98574 19.75,1.27397 19.14892,0.50809 39.77205,2.87127 41.69005,4.7772 0.99486,0.98859 0.92246,15.11638 -0.10682,20.84688 l -0.60941,3.39285 -10.11191,-0.63477 c -5.56155,-0.34914 -14.38691,-1.07623 -19.61191,-1.61577 -5.225,-0.53953 -15.0125,-0.99316 -21.75,-1.00806 -11.28671,-0.025 -12.25,0.1192 -12.25,1.83333 0,1.02323 -0.29246,3.99418 -0.64992,6.6021 -0.63473,4.6309 -0.60075,4.71097 1.45452,3.42742 3.34335,-2.08795 3.81819,-0.14944 0.74829,3.05485 l -2.80131,2.92393 2.12421,2.70049 c 2.65939,3.38087 2.65335,4.23863 -0.0501,7.11633 -3.49212,3.71719 -8.97893,2.95361 -11.18609,-1.55673 -1.76744,-3.61177 -1.02794,-5.87664 2.51739,-7.71 1.65281,-0.85471 2.78681,-2.08609 2.51999,-2.73641 -1.95845,-4.77348 -1.99769,-4.99866 -0.73512,-4.21834 1.8896,1.16784 3.02532,-1.29768 3.04283,-6.60566 0.0131,-3.98637 -0.30231,-4.72107 -2.23469,-5.20462 -4.76987,-1.19357 -25.80137,-3.57065 -37.49488,-4.23786 -7.74987,-0.44218 -12.6231,-1.1544 -13.27522,-1.94015 -0.67072,-0.80816 -0.75976,-4.51092 -0.25512,-10.60863 l 0.77522,-9.36715 25.85412,-0.26709 25.85412,-0.2671 -0.6432,-2.56269 c -0.56235,-2.24058 -0.38689,-2.48135 1.39588,-1.91552 1.31823,0.41839 2.03908,0.20018 2.03908,-0.61726 0,-0.69544 0.49918,-6.37659 1.10928,-12.62477 0.6101,-6.24819 0.91794,-11.55168 0.68408,-11.78554 -0.23385,-0.23386 -5.79553,-1.11965 -12.35928,-1.96842 -18.66078,-2.41307 -27.54169,-6.06829 -32.48265,-13.36926 -2.0676,-3.05519 -3.43357,-5.07678 -3.43357,-11.46863 0,-6.67539 1.34159,-7.89701 3.99873,-12.23214 4.82845,-7.87764 10.60904,-9.64398 36.1592,-11.04893 l 13.24723,-0.31238 -2.45609,-2.89567 c -2.26607,-2.67165 -0.52862,-4.77608 2.95532,-0.72913 1.04996,1.21963 -0.48141,-6.2927 0.42062,-20.64926 0.66646,-10.60742 1.46116,-21.53621 1.766,-24.28621 l 0.55425,-5 -6.76099,-3.94953 c -3.71855,-2.17224 -12.19275,-7.92687 -18.83156,-12.78807 -7.09467,-5.19499 -10.09607,-9.18719 -12.58556,-9.76429 -1.74181,-0.40377 -3.27861,1.7758 -5.5973,2.50177 -1.63591,0.5122 -2.24309,0.0719 -2.0673,-1.82447 0.21058,-2.27163 -1.27727,-1.94656 -16.01271,-1.22093 -8.14423,0.40105 -14.93397,0.85164 -15.08831,1.00129 -2.63086,2.55117 -3.53514,89.28314 -1.36642,131.05752 0.68565,13.20731 1.4154,42.16097 1.62165,64.34148 0.20625,22.1805 0.56523,40.51841 0.79772,40.75091 0.2325,0.23249 8.70383,0.64619 18.82519,0.91933 10.12136,0.27314 27.85247,0.95674 39.40247,1.51911 31.68565,1.54277 75.25247,3.1563 91.22707,3.37866 7.82489,0.10892 14.53739,0.50835 14.91667,0.88763 1.01613,1.01613 13.55132,0.82385 23.85626,-0.36595 z m 195.75,-10.59617 c 7.19274,-0.6793 7.64211,1.17125 6.27538,-3.69828 -0.4547,-1.62007 -4.76777,-0.55938 -4.76777,-1.12706 0,-0.56767 2.27989,-3.48681 5.99239,-5.86966 l 6.75,-4.33244 4.75,3.99612 c 5.15092,4.33341 6.00605,7.44565 2.75,7.18304 -3.49911,-0.28222 -2,1.10679 -2,1.6837 0,1.18211 10.52557,0.81345 34.59873,-1.21184 l 15.09874,-1.27026 0.70507,-19.6008 c 0.74344,-20.6678 2.45056,-101.44015 2.15212,-101.82747 -0.0961,-0.12466 -4.19766,0.29102 -9.11466,0.92374 -5.52989,0.71159 -25.15136,1.14428 -51.44,1.13435 l -42.5,-0.0161 -0.36502,39.46221 c -0.26357,28.49427 -1.46852,40.06961 -0.32267,40.62355 1.62182,0.78405 3.32401,0.57235 5.06013,0.58357 1.18506,0.008 1.06669,0.11713 1.09435,-0.2132 0.0189,-0.22605 -1.10918,-1.77003 -0.50343,-1.49246 2.95488,1.35402 1.33939,0.94398 3.98821,1.79351 2.78668,0.89374 1.78423,-2.98603 1.65939,-11.10603 l -0.11097,-7.21778 12.70871,0.37565 12.7087,0.37565 -0.27106,-4.53586 c -0.32985,-5.51952 2.194,-9.2613 7.40731,-10.98185 2.91537,-0.96216 3.93859,-0.88977 5.93763,0.42004 2.63788,1.72841 4.14022,7.03261 3.00497,10.60945 -0.59705,1.88115 -0.52757,0.64077 1.21562,0.63567 2.3274,-0.007 -2.62736,2.5832 -4.77026,3.44788 -0.6875,0.27741 10.29588,-0.2177 17.30838,-0.17428 11.6433,0.0721 12.75,0.23724 12.75,1.90253 0,1.00297 -0.48521,10.05776 -1.07824,20.12176 -0.77098,13.08392 -0.77098,18.60544 0,19.37642 3.49488,3.49488 1.85368,3.67824 -32.92176,3.67824 l -34,0 -0.0153,-11.75 c -0.0131,-10.03612 0.26889,-15.16135 -1.61927,-14.36308 -0.49116,0.20766 0.18064,-0.25143 -1.44347,0.95176 -2.65597,1.9676 -2.52172,1.8075 -1.69443,-0.62278 0.26654,-0.78301 -1.15934,-0.21589 -3.0239,-0.21589 -1.23829,0 -1.93007,-0.22899 -3.3076,0.21977 -0.62349,0.20312 -0.24488,0.87975 -0.24431,6.53023 3.8e-4,3.72902 -0.64069,13.3875 -0.6446,21.5 l -0.007,14.75 12.75,-0.007 c 7.0125,-0.004 15.7875,-0.29398 19.5,-0.6446 z m -158.22542,-16.8779 c 0.97068,-1.16961 1.00455,-2.11105 0.14388,-4 -2.26544,-4.97211 -9.32311,-1.68373 -7.65647,3.56738 0.7643,2.40812 5.64006,2.68888 7.51259,0.43262 z m -5.9103,-1.25686 c -1.2877,-2.40608 0.26588,-4.18838 3.02252,-3.46751 1.31744,0.34452 1.86814,1.2121 1.66567,2.62412 -0.39407,2.74827 -3.38114,3.28563 -4.68819,0.84339 z m -154.3122,-1.58704 c 0.80928,-0.80928 1.22122,-2.1234 0.91543,-2.92027 -0.76708,-1.99898 -5.57582,-3.0687 -7.31316,-1.62683 -2.71831,2.25599 -1.26948,7.17903 2.23315,7.03579 1.3979,0.12186 3.87035,-0.78711 4.16458,-2.48869 z m 361.05134,-0.14658 c 0.52844,-0.52843 2.37541,-37.58441 1.89715,-38.06267 -0.19915,-0.19915 -14.062,-0.40222 -30.80633,-0.45127 l -30.44424,-0.0892 -0.6511,5.3116 c -0.93108,7.59563 -0.96286,31.08406 -0.044,32.53016 0.52147,0.82069 5.00595,1.34388 13.73469,1.6024 13.88866,0.41134 45.63802,-0.16522 46.31384,-0.84104 z m -297.61054,-34.9037 c 0.40858,-4.90809 0.58472,-9.08195 0.39142,-9.27525 -0.1933,-0.1933 -6.22876,-1.21406 -13.41213,-2.26834 -10.54453,-1.54762 -21.71547,-2.05395 -57.98567,-2.62825 l -44.925,-0.71134 -0.64474,3.90349 c -0.88575,5.36259 -0.82772,11.18597 0.11729,11.77002 0.43124,0.26651 7.60535,0.96374 15.94248,1.54939 8.33713,0.58564 19.7968,1.76859 25.46594,2.62877 5.66914,0.86018 19.30753,1.77221 30.30753,2.02673 11,0.25453 22.7,0.85538 26,1.33523 3.3,0.47985 8.7,0.80966 12,0.7329 l 6,-0.13956 z m 115.75712,1.43091 c 7.975,-0.5352 16.8625,-1.23813 19.75,-1.56207 l 5.25,-0.58896 0,-7.31676 0,-7.31675 -3.75,-0.73378 c -8.78635,-1.71927 -82.55029,-0.0735 -93.92097,2.09551 -1.9599,0.37386 -2.20296,1.14002 -2.5,7.88053 -0.29985,6.80433 -0.15168,7.50172 1.67097,7.8646 4.2456,0.84529 59.7271,0.60199 73.5,-0.32232 z m 155.69829,-7.69145 c 0.79534,0 0.30171,-1.35637 0.30171,-2.78429 0,-1.78348 1.19317,-3.49566 1.18433,-2.33495 -0.0167,2.19744 1.81567,0.28621 1.81567,-1.86693 0,-3.41695 -2.4835,-7.3295 -4.65241,-7.3295 -4.58892,0 -10.04938,6.5288 -8.80539,10.52818 0.25179,0.80951 0.31092,2.51735 0.59439,3.40942 0.39094,1.23026 1.01377,0.52472 4.00381,0.68433 1.74167,0.093 4.80164,-0.30626 5.55789,-0.30626 z m -73.1958,-10.48483 c 0.29952,-0.29951 0.26085,-1.28399 -0.0859,-2.1877 -0.49879,-1.29974 -2.04199,-1.64314 -7.38401,-1.64314 -9.68167,0 -16.03258,1.02439 -16.03258,2.58602 0,0.88551 1.87555,1.44833 5.75,1.72544 7.15879,0.51203 17.02701,0.24487 17.75249,-0.48062 z m -0.50249,-7.83084 c 0,-2.81373 -0.23899,-3 -3.84912,-3 -2.11702,0 -7.29202,0.29103 -11.5,0.64674 -7.18384,0.60726 -7.65088,0.79039 -7.65088,3 0,2.33459 0.0912,2.35326 11.5,2.35326 l 11.5,0 z m -5.25,-4.64798 c 5.1393,-0.61731 6.07189,-1.50733 4.37839,-4.17853 -0.66048,-1.04178 -3.12563,-1.17347 -11.48469,-0.61353 -10.32163,0.6914 -10.6437,0.7845 -10.6437,3.07651 0,2.23352 0.34378,2.36305 6.25,2.35484 3.4375,-0.005 8.6125,-0.29246 11.5,-0.63929 z m 2.66821,-6.95901 c 0.86999,-0.33384 1.58179,-1.45884 1.58179,-2.5 0,-1.74262 -0.8739,-1.89301 -11,-1.89301 l -11,0 0,2.5 c 0,2.4897 0.0388,2.5 9.41821,2.5 5.18002,0 10.13002,-0.27314 11,-0.60699 z m 1.58179,-9.89301 c 0,-4.01203 -0.19117,-4.05005 -14.34912,-2.85326 -7.59576,0.64207 -7.65088,0.66729 -7.65088,3.5 l 0,2.85326 11,0 11,0 z m -242.74026,-5.60825 c 16.29815,-2.52875 22.29484,-8.47977 21.85095,-21.68459 -0.15586,-4.63654 -7.32655,-12.00528 -16.40195,-16.85497 l -7.92303,-2.78076 -16.78571,-1.02583 c -9.84225,-0.60149 -20.72617,0.62116 -24.89034,1.36403 -6.5453,1.16764 -7.86968,1.79774 -11.58247,5.51053 -7.2741,7.2741 -8.19701,16.88517 -2.30752,24.03014 4.30866,5.22717 12.19513,8.46305 25.78033,10.57792 13.67344,2.12862 22.57093,2.36678 32.25974,0.8635 z m 234.49026,0.45404 c 7.18945,-0.55967 8.25,-0.88462 8.25,-2.52784 0,-1.74815 -0.78369,-1.86492 -10.75,-1.60177 -10.28753,0.27161 -10.76375,0.38062 -11.06955,2.53382 -0.36725,2.58583 0.11817,2.64292 13.56955,1.59579 z m -0.16821,-6.34579 c 7.53364,0 9.41821,-0.28834 9.41821,-1.44098 0,-2.14172 -0.57007,-2.28471 -12.25,-3.07267 l -10.75,-0.72525 0,2.45278 c 0,2.94691 0.91108,4.03422 2.77955,3.31722 0.76122,-0.29211 5.62222,-0.5311 10.80224,-0.5311 z m -106.01638,-4.9725 c 20.23741,-1.397 30.76434,-3.48704 39.30193,-7.80306 9.46977,-4.78729 12.13445,-7.87474 12.12708,-14.05117 -0.0128,-10.69153 -3.14007,-14.9617 -13.99442,-19.10858 -9.97435,-3.81069 -17.61764,-5.06501 -30.81205,-5.05648 -25.01523,0.0162 -41.96755,3.91962 -51.01711,11.74721 -4.03844,3.49313 -4.36623,4.15857 -4.88114,9.90918 -0.61257,6.84119 1.65236,15.068 4.97663,18.07643 1.01524,0.91877 5.53314,2.91832 10.03978,4.44345 9.11565,3.08486 13.1363,3.30117 34.2593,1.84302 z m 61.75744,-25.62855 c -0.56336,-1.46808 -0.81496,-1.31024 2.02399,0.15784 0.60907,0.31496 1.42267,1.01323 2.22638,1.23849 3.41787,0.95796 6.75819,-0.0836 10.59284,0.008 -0.003,-3.59884 0.52386,-10.20294 0.51112,-29.8029 -0.0102,-15.675 0.30472,-37.05 0.69979,-47.5 1.39374,-36.86544 1.94257,-52.04275 2.02503,-56 0.13067,-6.27102 -2.59123,-64.949231 -3.03518,-65.431883 -0.21849,-0.237536 -35.15291,-0.288313 -77.63204,-0.112838 -42.47913,0.175475 -95.00978,0.166253 -116.73478,-0.02049 -59.57805,-0.512127 -89.78644,-0.490306 -90.28005,0.06522 -0.24435,0.275 -1.20731,22.423411 -2.1399,49.218691 -0.9326,26.79528 -1.9535,50.30777 -2.26868,52.24999 l -0.57305,3.53131 7.47996,0 c 13.36357,0 23.71323,0.51029 23.60765,-1.1217 -0.17117,-2.64566 -0.81276,-3.23023 4.46418,-0.96827 l 4.45592,1.91003 5.37698,-5.47112 c 6.96203,-7.08389 24.44572,-20.34893 26.82047,-20.34893 1.01245,0 5.53994,2.08023 10.06108,4.62274 4.52115,2.54251 14.29964,7.25803 21.73,10.47893 7.43035,3.22091 14.07868,6.32836 14.77406,6.90547 0.87011,0.72214 3.40432,0.73969 8.12785,0.0563 10.54182,-1.52522 31.8311,-3.07863 42.08215,-3.07062 7.78533,0.006 9.12912,-0.22601 8.64301,-1.49279 -0.74926,-1.95253 0.10747,-1.89396 3.34727,0.22884 1.85538,1.21568 2.75516,1.37899 3.03143,0.55018 1.97065,-5.91196 11.14707,-10.57925 27.35618,-13.91384 10.44812,-2.14942 14.21643,-2.47633 23.90349,-2.07373 15.156,0.62989 21.25835,2.65537 25.7181,8.53629 3.12522,4.12113 4.17458,4.92034 4.17102,13.17858 -0.004,9.26587 -1.44363,12.45439 -7.02858,18.39658 -4.17233,4.43922 -15.84095,8.39718 -25.78651,9.2633 l -9.57403,0.83376 -0.0967,6 c -0.0532,3.30001 -0.2328,12.19539 -0.39913,19.76753 -0.16634,7.57215 -0.0468,14.02319 0.26569,14.33565 0.31246,0.31246 1.0704,-0.37043 1.68431,-1.51753 0.61392,-1.14711 1.59852,-2.08565 2.18801,-2.08565 0.97127,0 -0.10938,1.61414 -2.32161,5.3295 -0.33069,0.55538 4.52373,0.75519 9.23971,1.49724 13.06102,2.05515 25.83302,7.28349 29.64762,12.13654 0.66434,0.8452 1.74845,3.89923 2.40913,6.78672 l 1.20124,5.25 4.30949,0 c 2.53407,0 4.06567,0.0747 4.27743,-0.49074 0.0841,-0.22461 -0.43883,-0.73633 -0.58234,-1.11031 z M 209.55115,180.96424 c 11.271,-8.24161 22.11631,-17.41502 24.33663,-20.58496 1.40044,-1.99943 1.13858,-2.21852 -6.87553,-5.75265 -4.58228,-2.02072 -14.23857,-6.63429 -21.45843,-10.25235 -15.10866,-7.57136 -12.20789,-7.90513 -26.87299,3.0921 -9.35029,7.0117 -16.80555,14.87853 -15.66136,16.52593 1.82907,2.6335 33.95232,24.36632 36.03168,24.37705 0.20367,0.001 4.92867,-3.33126 10.5,-7.40512 z m 157.62968,0.23434 c 12.44371,-3.56376 16.9177,-11.77106 16,-23.04495 -0.53571,-6.58124 -0.10457,-6.85548 -4.25,-11.14621 -3.6699,-3.79852 -5.23241,-4.61989 -11.44741,-6.01756 -8.13272,-1.82894 -19.15143,-2.08081 -27.30259,-0.62409 -17.59558,3.14455 -21.2315,4.02679 -25.63786,6.22097 -8.23098,4.09866 -11.99537,12.12063 -11.08224,23.61647 0.41304,5.19999 1.00851,6.85965 3.33091,9.28371 4.88327,5.09704 9.54248,6.05929 32.47848,5.73289 l 20.5,-1.89887 z m -379.219868,-3.27412 c 0.51569,-0.51569 2.03134,-40.77667 1.55991,-41.43682 -0.67253,-0.94175 -49.05635,-2.25637 -59.94896,-1.62885 l -12.10892,0.69759 -0.63509,8.15744 c -0.86139,11.06434 -0.78724,31.9073 0.11824,33.23345 0.42531,0.6229 5.15626,1.1852 11.23469,1.3353 5.775,0.14262 10.725,0.50432 11,0.8038 0.60713,0.66118 48.08801,-0.46978 48.78013,-1.16191 z"
       id="path3024"
       inkscape:connector-curvature="0"
       sodipodi:nodetypes="csssscscccssssccssssssssssscsscssscsscsscssssssssssscssssscscsscsssssssssssssssssssssssssscsscscsscscccsssssssssssssssssssscssssscssscssssssssssssscscsssscssscssscccscssssssscssssscssssssssscsssssssssssscssssscssscsssssccsssssssscssscssssssscssssssssssssscssssssscsssscscsssscccsssscssssscsssscsssssscsscsssscccssscsssscscsscssssssscccssssssssssscssssssssccccsssssssscsscccsscsssccsssscscssssscssscccssssssssssssssccssscssssscssssscscsscsscssscccscsscsssssccsssssssscsssssssssssssssscssssssssscssscsssssscssssssssscsscsssssscssssssssscsssssssssscsssscssssss" />
    <path
       sodipodi:type="arc"
       style="fill:#000000;fill-opacity:1;stroke:none"
       id="path3026"
       sodipodi:cx="183.2366"
       sodipodi:cy="375.57648"
       sodipodi:rx="2.34375"
       sodipodi:ry="2.0982144"
       d="m 185.58035,375.57648 c 0,1.15881 -1.04933,2.09821 -2.34375,2.09821 -1.29441,0 -2.34375,-0.9394 -2.34375,-2.09821 0,-1.15881 1.04934,-2.09822 2.34375,-2.09822 1.29442,0 2.34375,0.93941 2.34375,2.09822 z" />
    <text
       xml:space="preserve"
       style="font-size:20px;font-style:normal;font-weight:normal;line-height:125%;letter-spacing:0px;word-spacing:0px;fill:#000000;fill-opacity:1;stroke:none;font-family:Sans"
       x="-47.386665"
       y="152.57747"
       id="text3815"
       sodipodi:linespacing="125%"><tspan
         sodipodi:role="line"
         id="tspan3817"
         x="-75.072212"
         y="152.57747"
         style="font-size:12px;text-anchor:middle;text-align:center">World</tspan><tspan
         sodipodi:role="line"
         x="-75.072212"
         y="167.57747"
         id="tspan3819"
         style="font-size:12px;text-anchor:middle;text-align:center">Streamer</tspan></text>
    <text
       xml:space="preserve"
       style="font-size:12px;font-style:normal;font-weight:normal;line-height:125%;letter-spacing:0px;word-spacing:0px;fill:#000000;fill-opacity:1;stroke:none;font-family:Sans"
       x="9.927783"
       y="153.29175"
       id="text3821"
       sodipodi:linespacing="125%"><tspan
         sodipodi:role="line"
         id="tspan3823"
         x="9.927783"
         y="153.29175">I need texture</tspan></text>
    <text
       xml:space="preserve"
       style="font-size:12px;font-style:normal;font-weight:normal;line-height:125%;letter-spacing:0px;word-spacing:0px;fill:#000000;fill-opacity:1;stroke:none;font-family:Sans"
       x="18.499214"
       y="176.50603"
       id="text3825"
       sodipodi:linespacing="125%"><tspan
         sodipodi:role="line"
         id="tspan3827"
         x="18.499214"
         y="176.50603">&quot;duck.png&quot;</tspan></text>
    <text
       xml:space="preserve"
       style="font-size:12px;font-style:normal;font-weight:normal;line-height:125%;letter-spacing:0px;word-spacing:0px;fill:#000000;fill-opacity:1;stroke:none;font-family:Sans"
       x="196.46359"
       y="155.58754"
       id="text3829"
       sodipodi:linespacing="125%"><tspan
         sodipodi:role="line"
         id="tspan3831"
         x="196.46359"
         y="155.58754"
         style="text-align:center;text-anchor:middle">if is</tspan><tspan
         sodipodi:role="line"
         x="196.46359"
         y="170.58754"
         id="tspan3833"
         style="text-align:center;text-anchor:middle">loaded</tspan></text>
    <text
       xml:space="preserve"
       style="font-size:12px;font-style:normal;font-weight:normal;line-height:125%;letter-spacing:0px;word-spacing:0px;fill:#000000;fill-opacity:1;stroke:none;font-family:Sans"
       x="289.91379"
       y="162.65128"
       id="text3835"
       sodipodi:linespacing="125%"
       transform="translate(-86.143643,52.514964)"><tspan
         sodipodi:role="line"
         id="tspan3837"
         x="289.91379"
         y="162.65128">yes</tspan></text>
    <text
       xml:space="preserve"
       style="font-size:12px;font-style:normal;font-weight:normal;line-height:125%;letter-spacing:0px;word-spacing:0px;fill:#000000;fill-opacity:1;stroke:none;font-family:Sans"
       x="342.94678"
       y="96.991356"
       id="text3839"
       sodipodi:linespacing="125%"
       transform="translate(-86.143643,52.514964)"><tspan
         sodipodi:role="line"
         id="tspan3841"
         x="342.94678"
         y="96.991356">no</tspan></text>
    <text
       xml:space="preserve"
       style="font-size:12px;font-style:normal;font-weight:normal;line-height:125%;letter-spacing:0px;word-spacing:0px;fill:#000000;fill-opacity:1;stroke:none;font-family:Sans"
       x="271.97723"
       y="207.60306"
       id="text3843"
       sodipodi:linespacing="125%"
       transform="translate(-86.143643,52.514964)"><tspan
         sodipodi:role="line"
         id="tspan3845"
         x="243.95184"
         y="207.60306"
         style="text-anchor:middle;text-align:center;font-size:10px">increase</tspan><tspan
         sodipodi:role="line"
         x="243.95184"
         y="222.60306"
         id="tspan3847"
         style="text-anchor:middle;text-align:center;font-size:10px">reference</tspan><tspan
         sodipodi:role="line"
         x="243.95184"
         y="237.60306"
         id="tspan3849"
         style="text-anchor:middle;text-align:center;font-size:10px">count</tspan></text>
    <flowRoot
       xml:space="preserve"
       id="flowRoot3851"
       style="fill:black;stroke:none;stroke-opacity:1;stroke-width:1px;stroke-linejoin:miter;stroke-linecap:butt;fill-opacity:1;font-family:Sans;font-style:normal;font-weight:normal;font-size:12px;line-height:125%;letter-spacing:0px;word-spacing:0px"><flowRegion
         id="flowRegion3853"><rect
           id="rect3855"
           width="36.870567"
           height="34.345188"
           x="245.97214"
           y="199.01677" /></flowRegion><flowPara
         id="flowPara3857"></flowPara></flowRoot>    <text
       xml:space="preserve"
       style="font-size:12px;font-style:normal;font-weight:normal;line-height:125%;letter-spacing:0px;word-spacing:0px;fill:#000000;fill-opacity:1;stroke:none;font-family:Sans"
       x="343.48828"
       y="153.36125"
       id="text3843-7"
       sodipodi:linespacing="125%"><tspan
         sodipodi:role="line"
         id="tspan3845-2"
         x="343.48828"
         y="153.36125"
         style="font-size:10px;text-align:center;text-anchor:middle">increase</tspan><tspan
         sodipodi:role="line"
         x="343.48828"
         y="165.86125"
         id="tspan3847-5"
         style="font-size:10px;text-align:center;text-anchor:middle">reference</tspan><tspan
         sodipodi:role="line"
         x="343.48828"
         y="178.36125"
         id="tspan3849-6"
         style="font-size:10px;text-align:center;text-anchor:middle">count</tspan></text>
    <text
       xml:space="preserve"
       style="font-size:12px;font-style:normal;font-weight:normal;line-height:125%;letter-spacing:0px;word-spacing:0px;fill:#000000;fill-opacity:1;stroke:none;font-family:Sans"
       x="332.95407"
       y="252.01978"
       id="text3843-3"
       sodipodi:linespacing="125%"><tspan
         sodipodi:role="line"
         x="332.95407"
         y="252.01978"
         id="tspan3849-8"
         style="font-size:12px;text-align:center;text-anchor:middle">enqueue to</tspan><tspan
         sodipodi:role="line"
         x="332.95407"
         y="267.01978"
         style="font-size:12px;text-align:center;text-anchor:middle"
         id="tspan3904">load</tspan></text>
    <text
       xml:space="preserve"
       style="font-size:12px;font-style:normal;font-weight:normal;line-height:125%;letter-spacing:0px;word-spacing:0px;fill:#000000;fill-opacity:1;stroke:none;font-family:Sans"
       x="152.42778"
       y="340.50601"
       id="text3906"
       sodipodi:linespacing="125%"><tspan
         sodipodi:role="line"
         id="tspan3908"
         x="152.42778"
         y="340.50601">return handle</tspan></text>
    <text
       xml:space="preserve"
       style="font-size:12px;font-style:normal;font-weight:normal;line-height:125%;letter-spacing:0px;word-spacing:0px;fill:#000000;fill-opacity:1;stroke:none;font-family:Sans"
       x="300.02756"
       y="338.12253"
       id="text3906-2"
       sodipodi:linespacing="125%"><tspan
         sodipodi:role="line"
         id="tspan3908-9"
         x="300.02756"
         y="338.12253">return handle</tspan></text>
    <text
       xml:space="preserve"
       style="font-size:20px;font-style:normal;font-weight:normal;line-height:125%;letter-spacing:0px;word-spacing:0px;fill:#000000;fill-opacity:1;stroke:none;font-family:Sans"
       x="343.59167"
       y="23.991072"
       id="text3944"
       sodipodi:linespacing="125%"
       transform="translate(-86.143643,52.514964)"><tspan
         sodipodi:role="line"
         id="tspan3946"
         x="236.42857"
         y="23.991072"
         style="text-anchor:middle;text-align:center;font-size:18px">RESOURCE MANAGER</tspan><tspan
         sodipodi:role="line"
         x="236.42857"
         y="48.991074"
         id="tspan3948"
         style="text-anchor:middle;text-align:center;font-size:18px">INTERFACE</tspan></text>
    <text
       xml:space="preserve"
       style="font-size:20px;font-style:normal;font-weight:normal;line-height:125%;letter-spacing:0px;word-spacing:0px;fill:#000000;fill-opacity:1;stroke:none;font-family:Sans"
       x="503.95099"
       y="210.37971"
       id="text3944-4"
       sodipodi:linespacing="125%"><tspan
         sodipodi:role="line"
         id="tspan3946-8"
         x="503.95099"
         y="210.37971"
         style="font-size:14px;text-align:center;text-anchor:middle">RESOURCE MANAGER</tspan><tspan
         sodipodi:role="line"
         x="503.95099"
         y="227.87971"
         id="tspan3948-7"
         style="font-size:14px;text-align:center;text-anchor:middle">INDEPENDENT</tspan><tspan
         sodipodi:role="line"
         x="503.95099"
         y="245.37971"
         style="font-size:14px;text-align:center;text-anchor:middle"
         id="tspan3974">THREAD</tspan></text>
    <path
       sodipodi:type="arc"
       style="fill:none;stroke:none;stroke-width:0.99921715000000000;stroke-miterlimit:1;stroke-opacity:1;stroke-dasharray:none"
       id="path4649"
       sodipodi:cx="611.8999"
       sodipodi:cy="246.36766"
       sodipodi:rx="19.950512"
       sodipodi:ry="23.233509"
       d="m 592.08417,243.6716 a 19.950512,23.233509 0 1 1 39.25947,7.89942"
       transform="matrix(0.6119731,0,0,0.52549863,145.35728,200.09827)"
       sodipodi:start="3.2578964"
       sodipodi:end="6.5090603"
       sodipodi:open="true" />
    <text
       xml:space="preserve"
       style="font-size:20px;font-style:normal;font-weight:normal;line-height:125%;letter-spacing:0px;word-spacing:0px;fill:#000000;fill-opacity:1;stroke:none;font-family:Sans"
       id="text4651"
       sodipodi:linespacing="125%"><textPath
         xlink:href="#path4649"
         id="textPath4655"><tspan
   style="font-size:10px"
   id="tspan4653">forever</tspan></textPath></text>
    <text
       xml:space="preserve"
       style="font-size:20px;font-style:normal;font-weight:normal;line-height:125%;letter-spacing:0px;word-spacing:0px;fill:#000000;fill-opacity:1;stroke:none;font-family:Sans"
       x="518.33569"
       y="354.0419"
       id="text4658"
       sodipodi:linespacing="125%"><tspan
         sodipodi:role="line"
         id="tspan4660"
         x="518.33569"
         y="354.0419"
         style="font-size:12px;text-align:center;text-anchor:middle">load</tspan><tspan
         sodipodi:role="line"
         x="518.33569"
         y="369.0419"
         id="tspan4662"
         style="font-size:12px;text-align:center;text-anchor:middle">resource</tspan></text>
  </g>
</svg>
