<?xml version="1.0" encoding="UTF-8" standalone="no"?>
<!-- Created with Inkscape (http://www.inkscape.org/) -->

<svg
   xmlns:dc="http://purl.org/dc/elements/1.1/"
   xmlns:cc="http://creativecommons.org/ns#"
   xmlns:rdf="http://www.w3.org/1999/02/22-rdf-syntax-ns#"
   xmlns:svg="http://www.w3.org/2000/svg"
   xmlns="http://www.w3.org/2000/svg"
   xmlns:sodipodi="http://sodipodi.sourceforge.net/DTD/sodipodi-0.dtd"
   xmlns:inkscape="http://www.inkscape.org/namespaces/inkscape"
   version="1.1"
   width="724.75818"
   height="958.48364"
   id="svg2"
   inkscape:version="0.48.4 r9939"
   sodipodi:docname="resmancomic.svg">
  <sodipodi:namedview
     pagecolor="#ffffff"
     bordercolor="#666666"
     borderopacity="1"
     objecttolerance="10"
     gridtolerance="10"
     guidetolerance="10"
     inkscape:pageopacity="0"
     inkscape:pageshadow="2"
     inkscape:window-width="1301"
     inkscape:window-height="744"
     id="namedview41"
     showgrid="false"
     fit-margin-top="1"
     fit-margin-right="1"
     fit-margin-bottom="1"
     fit-margin-left="1"
     inkscape:zoom="0.22425739"
     inkscape:cx="360.49938"
     inkscape:cy="446.25736"
     inkscape:window-x="65"
     inkscape:window-y="24"
     inkscape:window-maximized="1"
     inkscape:current-layer="svg2" />
  <defs
     id="defs4" />
  <metadata
     id="metadata7">
    <rdf:RDF>
      <cc:Work
         rdf:about="">
        <dc:format>image/svg+xml</dc:format>
        <dc:type
           rdf:resource="http://purl.org/dc/dcmitype/StillImage" />
        <dc:title />
      </cc:Work>
    </rdf:RDF>
  </metadata>
  <g
     id="layer1"
     transform="translate(-11.547858,-13.954799)">
    <path
       d="m 694.87373,971.00429 c -3.575,-0.1529 -14.6,-0.9851 -24.5,-1.8491 -9.9,-0.8641 -23.4,-1.8897 -30,-2.2792 l -12,-0.7082 0.1615,-6.0788 c 0.089,-3.3434 1.1364,-11.6684 2.3278,-18.5 3.9478,-22.63652 4.938,-30.98229 3.9759,-33.51259 -0.5021,-1.3207 -2.7247,-4.69332 -4.9391,-7.49472 -4.9091,-6.21048 -5.0655,-8.3317 -0.7761,-10.52212 1.7875,-0.91279 8.2,-4.59248 14.25,-8.17709 6.05,-3.58461 14.825,-8.27555 19.5,-10.42431 7.9071,-3.63431 15.3333,-7.93407 25.7792,-14.92603 2.3536,-1.57537 5.1313,-2.8643 6.1727,-2.8643 2.9666,0 16.0481,16.51847 16.0481,20.26452 0,0.71735 -1.2375,2.03936 -2.75,2.93781 -1.5125,0.89845 -6.575,4.63027 -11.25,8.29293 -5.8978,4.62066 -14.3922,9.62061 -27.7466,16.33206 -10.5857,5.31997 -19.2482,9.9316 -19.25,10.24806 0,0.64114 49.7785,2.9726 62.8473,2.94332 l 8.3507,-0.0187 -0.6868,12.74996 c -1.1311,20.9992 -4.337,38.7963 -7.7459,43 -0.9877,1.2181 -2.1288,1.2558 -17.7687,0.5865 z m 15.7325,-5.5865 c 0.5375,-0.6875 1.4692,-2.7125 2.0704,-4.5 l 1.0931,-3.25 c -3.02843,-0.1027 -6.81035,0.4103 -9.396,-1 3.02583,-1.6754 6.1776,-1 10.1766,-1 l 1.1386,-9.75 c 1.4181,-12.1437 2.5094,-26.22857 2.0389,-26.315 -2.5079,-0.46067 -69.8396,-2.41445 -73.8906,-2.1441 l -5.5364,0.36948 -2.2945,12.00552 c -1.262,6.6031 -2.0828,12.2172 -1.8241,12.476 0.2587,0.2587 5.8076,0.8957 12.3309,1.4157 6.5233,0.5199 14.1106,1.3779 16.8606,1.9065 4.1,0.7883 3.56,0.8375 -3,0.2735 -4.4,-0.3782 -12.275,-0.6989 -17.5,-0.7126 l -9.5,-0.025 -1.1339,8 c -0.6236,4.4 -0.9346,8.3375 -0.691,8.75 0.2436,0.4125 3.9039,0.7546 8.1339,0.7603 4.2301,0.01 13.091,0.4959 19.691,1.0894 25.328,2.2774 30.3061,2.6196 40.1276,2.7578 7.061,0.099 10.4235,-0.236 11.1049,-1.1075 z m -19.7325,-3.75 c -1.0679,-0.6901 0.084,-0.9693 4,-0.9693 3.025,0 6.175,0.4362 7,0.9693 -2.67144,1.1171 -3.80756,0.6074 -11,0 z m -29.75,-1.7284 c 2.0625,-0.2158 5.4375,-0.2158 7.5,0 2.0625,0.2157 0.375,0.3922 -3.75,0.3922 -4.125,0 -5.8125,-0.1765 -3.75,-0.3922 z m -13.9862,-0.9891 c 1.52,-0.2299 3.77,-0.2238 5,0.014 1.2299,0.2373 -0.014,0.4254 -2.7638,0.4179 -2.75,-0.01 -3.7563,-0.2017 -2.2362,-0.4316 z m 50.4862,-2.9447 c 0.6875,-0.2775 1.8125,-0.2775 2.5,0 0.6875,0.2774 0.125,0.5043 -1.25,0.5043 -1.375,0 -1.9375,-0.2269 -1.25,-0.5043 z m -49.9821,-3.0625 c 1.7974,-0.2226 4.4974,-0.218 6,0.01 1.5027,0.2282 0.032,0.4103 -3.2679,0.4047 -3.3,-0.01 -4.5294,-0.1923 -2.7321,-0.4149 z m 59.0446,-4.9584 c 0.7219,-0.2888 1.5844,-0.2533 1.9167,0.079 0.3323,0.3323 -0.2584,0.5687 -1.3125,0.5252 -1.165,-0.048 -1.4019,-0.2849 -0.6042,-0.6041 z m -16.5625,-1.0453 c 2.0625,-0.2158 5.4375,-0.2158 7.5,0 2.0625,0.2157 0.375,0.3922 -3.75,0.3922 -4.125,0 -5.8125,-0.1765 -3.75,-0.3922 z m -14.5,-0.995 c 1.7875,-0.2218 4.7125,-0.2218 6.5,0 1.7875,0.2219 0.325,0.4034 -3.25,0.4034 -3.575,0 -5.0375,-0.1815 -3.25,-0.4034 z m 15.75,-6.8748 c 7.39825,-1.4966 12.9702,-1.0536 20,0.2267 -7.4411,0.6965 -13.00335,0.6271 -20,-0.2267 z m -33.25,-2.1302 c 2.0625,-0.2158 5.4375,-0.2158 7.5,0 2.0625,0.2157 0.375,0.3922 -3.75,0.3922 -4.125,0 -5.8125,-0.1765 -3.75,-0.3922 z m 37,-4.9878 c 1.5125,-0.2291 3.9875,-0.2291 5.5,0 1.5125,0.2291 0.275,0.4166 -2.75,0.4166 -3.025,0 -4.2625,-0.1875 -2.75,-0.4166 z m -11.4821,-1.0085 c 1.7974,-0.2226 4.4974,-0.218 6,0.01 1.5027,0.2282 0.032,0.4103 -3.2679,0.4047 -3.3,-0.01 -4.5294,-0.1923 -2.7321,-0.4149 z m -42.0062,-0.9825 c 1.2439,-0.2392 3.0439,-0.2301 4,0.02 0.9561,0.2503 -0.062,0.446 -2.2617,0.4349 -2.2,-0.011 -2.9822,-0.2159 -1.7383,-0.4551 z m 25.7806,-0.5721 c 0.7616,-0.4286 3.5387,-0.37 6.1712,0.1302 l 4.7865,0.9095 -6.1713,-0.1302 c -3.5316,-0.075 -5.5789,-0.4635 -4.7864,-0.9095 z m -8.2923,-0.41 c 0.9625,-0.2515 2.5375,-0.2515 3.5,0 0.9625,0.2515 0.175,0.4573 -1.75,0.4573 -1.925,0 -2.7125,-0.2058 -1.75,-0.4573 z m 40.5,-2.0429 c 2.3375,-0.2105 6.1625,-0.2105 8.5,0 2.3375,0.2106 0.425,0.3828 -4.25,0.3828 -4.675,0 -6.5875,-0.1722 -4.25,-0.3828 z m -16.25,-2.275 c -2.75,-0.4071 -12.8518,-0.8112 -22.4484,-0.8982 -9.5967,-0.087 -17.6967,-0.4118 -18,-0.7218 -1.1702,-1.196 43.4313,0.1343 45.4484,1.3555 2.1943,1.3286 2.1907,1.3288 -5,0.2645 z m 11.742,-43.5986 c 5.6419,-4.23006 10.6526,-8.04128 11.1348,-8.46939 1.1632,-1.0326 -2.3185,-6.51784 -7.0717,-11.14129 l -3.8209,-3.71652 -9.224,5.92483 c -5.0732,3.25866 -15.8696,9.29863 -23.9921,13.42215 -17.4529,8.86031 -31.272,17.21029 -31.2584,18.88743 0,0.65924 1.5208,3.09925 3.3678,5.42223 1.8469,2.32298 3.9252,5.59285 4.6184,7.26639 l 1.2603,3.04278 22.3639,-11.47379 c 15.6002,-8.00367 25.4663,-13.79986 32.6219,-19.16482 z m -52.3503,24.54757 c 1.3154,-1.09546 2.6647,-1.71869 2.9984,-1.38497 0.7102,0.71019 -2.7808,3.45868 -4.3312,3.40997 -0.5824,-0.0183 0.017,-0.92955 1.3328,-2.025 z m 8.7584,-11.62492 c 0.4683,0.46826 -8.2315,6.68319 -9.3552,6.68319 0.61852,-2.14182 4.52798,-4.36275 9.3552,-6.68319 z m -16.1534,1.68857 c 0.3381,-0.54704 1.6021,-1.51252 2.809,-2.14551 2.1791,-1.1429 2.1811,-1.13599 0.2893,0.99462 -1.9085,2.14948 -4.2539,3.0207 -3.0983,1.15089 z m 30.5033,-2.39553 c 0,-0.7752 11.1967,-6.74649 11.7023,-6.24092 0.275,0.27507 -2.2454,1.88606 -5.6011,3.57999 -3.3557,1.69393 -6.1012,2.89135 -6.1012,2.66093 z m -21.9167,-1.99247 c 0.2292,-0.21044 6.4917,-3.51362 13.9167,-7.34039 7.425,-3.82677 17.762,-9.72959 22.9711,-13.11738 5.2091,-3.38778 9.9116,-6.15961 10.45,-6.15961 1.4093,0 0.2572,0.90204 -9.9211,7.76779 -9.5972,6.47376 -33.6557,19.23221 -36.266,19.23221 -0.862,0 -1.3798,-0.17218 -1.1507,-0.38262 z m 14.4156,-0.61558 c 0.2713,-0.43895 7.935,-4.89336 17.0304,-9.89868 9.0955,-5.00532 17.7423,-9.88866 19.2153,-10.85185 1.4729,-0.9632 2.3356,-1.19556 1.917,-0.51636 -11.19278,7.42541 -25.79646,15.39736 -38.1627,21.26689 z m 26.0011,-7.68359 c 1.8726,-1.87604 17.7608,-12.39074 18.144,-12.00754 0.2099,0.20988 -2.2117,2.17156 -5.3812,4.35929 -6.5854,4.54549 -14.2509,9.13913 -12.7628,7.64825 z m -123.49999,75.64355 c -1.925,-0.4584 -5.48287,-0.5665 -7.90638,-0.2402 l -4.40638,0.5932 0.63266,-3.9074 c 0.34796,-2.1491 2.52612,-10.5796 4.84035,-18.7346 3.46142,-12.1976 3.96185,-14.97927 2.82155,-15.68401 -1.68253,-1.03986 -10.9124,-2.39148 -11.60452,-1.69937 -0.27207,0.27207 -2.4977,7.60148 -4.94585,16.28748 -4.76533,16.9075 -4.74326,17.3769 0.81857,17.4078 1.5125,0.01 2.75,0.4653 2.75,1.0153 0,0.55 -2.1949,1 -4.87756,1 -7.73659,0 -7.94529,-0.8774 -3.7018,-15.5633 2.00162,-6.9272 3.90881,-14.5612 4.23821,-16.96437 0.57378,-4.18613 0.4781,-4.39684 -2.27997,-5.02117 -7.33544,-1.6605 -10.32753,-2.56133 -10.7227,-3.22829 -0.98858,-1.66854 1.40376,-20.59687 3.79602,-30.03425 3.14517,-12.40764 10.99138,-35.69043 13.12478,-38.94641 1.59978,-2.44157 1.88351,-2.45676 10.17302,-0.54442 1.64397,0.37926 2.25,0.0682 2.25,-1.15488 0,-1.56748 5.22388,-12.9603 8.50235,-18.54287 0.80749,-1.375 1.4748,-3.41237 1.48291,-4.52749 0.0387,-5.31741 7.93713,-11.01452 14.12053,-10.18514 4.9841,0.66851 6.6816,2.06235 7.4409,6.10998 1.9146,10.20541 -10.2672,19.54333 -17.78292,13.63147 -2.36369,-1.85928 -2.59181,-1.87347 -4.01835,-0.25 -2.56959,2.92431 -5.70721,9.92914 -5.98288,13.35692 l -0.26254,3.26459 10,2.29043 c 5.49999,1.25973 11.57499,2.63386 13.49999,3.05362 l 3.5,0.7632 -0.3426,9.08343 -0.3426,9.08342 9.8426,2.77725 c 18.1036,5.10819 32.3426,11.08308 32.3426,13.57137 0,1.76129 -4.4117,1.02852 -12.4552,-2.06878 -10.721,-4.12826 -19.094,-6.76752 -24.8256,-7.82528 -4.1118,-0.75883 -4.9139,-0.63364 -5.7318,0.89464 -0.9582,1.79041 -5.3476,23.57189 -6.4558,32.03573 -0.3283,2.50765 -1.3698,6.10765 -2.3143,8 -1.669,3.34397 -1.8848,3.44064 -7.67801,3.44064 l -5.96072,0 -4.3729,15.81086 c -2.4051,8.696 -4.1244,16.4585 -3.82067,17.25 0.30374,0.7916 1.84917,1.4391 3.4344,1.4391 3.84398,0 9.31891,1.9672 8.62041,3.0974 -0.62631,1.0134 -0.61348,1.0138 -5.4398,-0.1356 z m 11.85129,-44.21176 c 0.5535,-1.7875 1.5344,-6.625 2.1798,-10.75 0.6453,-4.125 2.2588,-12.58491 3.5855,-18.7998 1.3268,-6.21489 2.6813,-15.21489 3.01,-20 l 0.5977,-8.7002 -16.78645,-4.15173 c -9.23255,-2.28345 -17.33177,-3.94247 -17.99828,-3.6867 -1.62922,0.62519 -8.73378,21.00452 -12.49385,35.83843 -1.99772,7.88125 -3.11106,14.9117 -3.24372,20.48326 l -0.20199,8.48326 13,2.17039 c 7.15,1.19372 16.2276,2.21375 20.17245,2.26674 l 7.17244,0.0964 1.0064,-3.25 z m 1.6744,-88.70034 c -1.8883,-3.65154 -1.8943,-4.04966 -0.061,-4.04966 0.8056,0 1.80214,1.19122 2.27627,2.34525 2.37663,5.78475 8.9292,-2.80894 6.393,-9.41821 -1.0575,-2.75584 -8.01797,-2.4125 -11.32937,0.76005 -4.66007,4.46462 -3.07009,13.65646 2.3759,13.31291 3.64855,-0.23016 1.772,-0.19093 0.345,-2.95034 z m 2.97631,-6.91953 c -1.0019,-1.62117 1.29038,-2.45907 2.58148,-0.90334 0.53689,1.41411 0.0555,1.61046 -0.60543,1.65115 -0.85828,0.0528 -1.65965,-0.23582 -1.97605,-0.74781 z m -496.002001,85.97796 -4,-0.60809 0.12402,-5.06829 c 0.0682,-2.78756 1.05143,-9.08756 2.18492,-14 1.13349,-4.91244 2.202684,-12.73881 2.375984,-17.39193 l 0.31508,-8.46022 -4.969874,-0.84981 c -2.73343,-0.4674 -5.54593,-1.3279 -6.25,-1.91223 -1.92887,-1.60082 -1.62026,-20.49503 0.712,-43.59034 1.09566,-10.84995 2.22229,-20.71199 2.50361,-21.91566 0.5017,-2.14662 0.74937,-2.17723 12.951354,-1.60069 l 12.43986,0.58778 0.488407,-2.3993 c 2.1679,-10.64972 2.6974,-15.96436 2.10182,-21.09595 -1.28421,-11.0648 2.41172,-14.58371 14.01254,-13.34136 7.37567,0.78986 9.51028,2.65263 9.51028,8.29914 0,2.50109 -0.97037,4.326 -3.94807,7.4249 -3.57363,3.71908 -4.5376,4.16591 -10.16408,4.71136 -6.00287,0.58194 -6.25922,0.72262 -7.47586,4.1026 -0.69291,1.925 -1.29407,5.38493 -1.33591,7.68873 l -0.0761,4.18872 4.25,0.51451 c 2.3375,0.28298 8.35166,0.75133 13.36478,1.04077 13.75337,0.79408 13.75331,0.79402 12.46805,12.06727 -0.43894,3.85 -0.71367,7.11097 -0.61051,7.2466 0.10315,0.13564 2.47076,-0.43143 5.26134,-1.26015 4.18206,-1.24193 4.98579,-1.84326 4.57309,-3.42143 -0.39876,-1.52486 0.60755,-2.43896 4.94277,-4.48985 2.9939,-1.41634 6.1206,-2.57517 6.94822,-2.57517 0.82762,0 5.42722,-2.5409 10.22134,-5.64645 10.43807,-6.7616 10.93227,-6.56608 12.50776,4.94852 1.71556,12.53837 0.5419,13.88004 -22.63244,25.87217 -5.54141,2.86753 -6.46739,3.07114 -8.65146,1.90226 -2.0787,-1.11249 -3.39266,-1.02625 -8.75338,0.57454 -5.08151,1.5174 -6.44192,2.36609 -6.99887,4.36623 -0.97119,3.48776 -0.9338,18.50764 0.0609,24.48273 0.45782,2.75 0.65006,5.19343 0.4272,5.42985 -0.22285,0.23641 -4.89926,0.3188 -10.39201,0.18307 -5.49271,-0.13573 -9.98678,0.0186 -9.98678,0.34297 0,0.32437 -0.90934,9.43514 -2.02077,20.24616 -1.11142,10.81102 -1.67392,19.99367 -1.25,20.40588 0.42393,0.41221 2.31112,0.89406 4.19376,1.07077 1.88265,0.17672 3.62704,0.942 3.87645,1.70064 0.36249,1.10265 -0.77846,1.29023 -5.68788,0.93511 -3.37773,-0.24432 -6.62372,-0.92661 -7.2133,-1.51619 -0.76263,-0.76263 -0.46975,-6.38968 1.01489,-19.49941 1.14777,-10.1351 2.08685,-19.86101 2.08685,-21.61315 l 0,-3.1857 -8.499997,0 c -4.675,0 -8.50127,0.3375 -8.50282,0.75 -0.0108,2.87674 -2.34701,20.00177 -3.51283,25.75 -0.78084,3.85 -1.54675,8.8 -1.70202,11 -0.28222,3.99849 -0.28083,4.00012 3.70499,4.32451 3.95928,0.32223 6.51268,1.61524 6.51268,3.29793 0,0.95478 -5.1676,0.94833 -11.500004,-0.0144 z m 43.224721,-61.8593 c 0.12359,-7.56183 1.12411,-20.93828 2.22336,-29.72543 1.09925,-8.78715 1.67313,-16.28328 1.27528,-16.65807 -1.06696,-1.00511 -47.579111,-2.80673 -48.560371,-1.88095 -2.2177,2.0923 -6.33423,45.48769 -5.18645,54.67421 0.62095,4.96991 0.84401,5.30726 3.84135,5.80956 4.768824,0.79916 12.461974,1.14217 30.182111,1.3457 l 16,0.18377 z m 20.03619,-25.8358 c 0.40986,-6.14685 -0.55277,-6.89964 -6.89827,-5.39456 -2.94945,0.69957 -5.69325,1.76911 -6.09733,2.37676 -0.40408,0.60764 -0.74158,3.43774 -0.75,6.2891 l -0.0153,5.1843 6.75,-2.27131 c 6.7003,-2.25458 6.75192,-2.30011 7.01091,-6.18429 z m 14.15875,0.0727 c 7.76433,-4.47845 10.36334,-4.78263 10.99595,-9.55146 0.35071,-2.64385 -2.18022,-6.00726 -2.5298,-7.75554 -0.93624,-4.68119 1.64615,-4.08463 2.60299,0.77946 1.18808,6.0396 5.39225,11.82032 4.24143,-1.20055 -0.23407,-2.64837 -0.58855,-5.86106 -1.02659,-6.13179 -0.43803,-0.27072 -6.36858,2.34915 -13.179,5.82192 l -12.38257,6.31415 0.22708,6.36906 c 0.25966,7.2832 0.84786,9.86906 2.2449,9.86906 0.53856,0 4.50112,-2.03144 8.80568,-4.51431 z m -9.49439,-3.03232 c -0.82374,-4.39096 0.15855,-5.67822 1.54675,-2.02696 1.2864,3.38349 1.3152,5.57359 0.0733,5.57359 -0.52507,0 -1.25409,-1.59598 -1.62004,-3.54663 z m 5.3062,-0.13684 c -1.09214,-1.90225 -1.75904,-8.31653 -0.86468,-8.31653 0.52658,0 1.26665,1.83032 1.64459,4.06738 0.64984,3.84636 0.24747,6.03859 -0.77991,4.24915 z m 4.4258,-4.31653 c -2.25806,-3.67626 -2.85998,-6.55233 -1.15016,-5.4956 1.54291,0.95356 4.16583,6.48177 3.70716,7.81339 -0.22397,0.65022 -1.37462,-0.39279 -2.557,-2.31779 z m 4.04898,-2.68426 c -0.66344,-1.20134 -1.16954,-3.45134 -1.12468,-5 l 0.0816,-2.81574 1.46916,3.3673 c 1.80897,4.14616 1.45397,7.85275 -0.42606,4.44844 z m -49.13337,-36.10094 c 0.33804,-0.33804 -2.04993,-1.52993 -2.72759,-2.9445 -0.61052,-1.27442 0.0477,-2.88826 0.33722,-2.86101 0.66827,0.0629 -0.0658,1.9564 2.56569,3.14147 2.71741,1.22379 1.80376,2.26717 5.04343,-0.21542 6.15505,-4.71667 5.49927,-9.9682 -3.15334,-12.2981 -9.71022,-2.61469 -15.74275,5.52565 -9.54939,12.88603 2.48465,2.95284 6.17289,3.60262 7.48398,2.29153 z m 2.05756,-10.17513 c 0.0736,-1.14203 1.9995,-1.62853 2.25304,-0.65556 0.65633,0.85789 0.29441,1.57494 -0.26716,2.13689 -0.27393,0.67703 -2.06375,1.06055 -2.04337,-0.58945 z m 511.11795,-56.05095 c -1.82448,-0.73619 -1.52769,-2.03184 0.59244,-2.58626 1.4337,-0.37493 2.52213,-3.22932 4.90631,-12.86664 1.68513,-6.81165 3.37058,-14.29732 3.74546,-16.63482 l 0.68159,-4.25 -3.3379,0.0741 c -1.83585,0.0408 -5.3629,0.37827 -7.8379,0.75 l -4.5,0.67588 -3.00974,16.99562 -3.00973,16.99563 -3.98925,-0.34369 c -4.52355,-0.38972 -7.49128,-1.70121 -7.49128,-3.31053 0,-0.71083 1.36887,-0.87374 3.91743,-0.4662 l 3.91744,0.62642 1.05001,-4.89604 c 2.2798,-10.63037 4.4913,-25.05834 3.92734,-25.6223 -0.32752,-0.32752 -4.58176,-1.23704 -9.45386,-2.02115 -15.06326,-2.42427 -14.16541,-1.98824 -14.95647,-7.2634 -0.3851,-2.56804 -0.16662,-10.69588 0.48551,-18.06187 0.65213,-7.36599 0.9726,-13.60581 0.71214,-13.86626 -0.26045,-0.26045 -5.53019,1.2114 -11.71053,3.27077 -8.09622,2.69778 -12.11965,4.6134 -14.39498,6.85367 -1.7369,1.71014 -7.3314,5.47185 -12.43221,8.35935 -8.47806,4.7993 -9.81609,5.25 -15.58623,5.25 -3.47161,0 -7.04536,-0.28141 -7.94167,-0.62536 -0.89631,-0.34394 -3.3534,-3.15644 -5.4602,-6.25 -2.1068,-3.09355 -4.78526,-6.48188 -5.95213,-7.52963 -1.16687,-1.04774 -2.12159,-2.24228 -2.12159,-2.65454 0,-0.75931 6.57148,-4.66892 17.5,-10.41136 3.3,-1.734 7.95849,-4.39709 10.35219,-5.91797 4.0151,-2.55107 4.30116,-3.011 3.69337,-5.93819 -1.87095,-9.01062 -1.81865,-10.45643 0.42162,-11.65539 2.68433,-1.4366 4.54736,-0.11519 6.531,4.63233 l 1.38264,3.30911 11.30959,-5.05186 c 6.22027,-2.77852 14.79709,-6.4397 19.05959,-8.13595 7.43505,-2.95877 7.75,-3.21564 7.75,-6.32066 0,-2.02882 0.59025,-3.46305 1.58179,-3.84354 0.86998,-0.33385 7.1212,-0.60699 13.89159,-0.60699 13.95559,0 12.71608,0.85714 14.09954,-9.75 0.57701,-4.42402 0.43395,-5.25 -0.90929,-5.25 -0.87672,0 -3.1847,-1.39662 -5.12883,-3.10359 -3.34611,-2.93792 -3.5348,-3.44094 -3.5348,-9.42328 0,-5.3399 0.40137,-6.79668 2.58889,-9.3964 2.12935,-2.53059 3.32752,-3.07574 6.75,-3.07115 9.88018,0.0132 14.82935,3.63342 15.0222,10.98831 0.1161,4.42772 -2.37047,8.48908 -6.79615,11.1003 -2.99892,1.7694 -3.40066,2.59936 -4.57154,9.44437 -0.70602,4.12747 -0.95729,7.83231 -0.55836,8.23297 0.39892,0.40066 8.67674,0.95347 18.39514,1.22847 l 17.66982,0.5 -0.3265,20 c -0.17958,11 -0.94888,24.275 -1.70957,29.5 -0.76068,5.225 -1.69378,13.24637 -2.07355,17.82527 -0.81112,9.77976 -1.30445,10.29603 -11.63189,12.17285 -7.69436,1.3983 -6.46709,-0.68014 -11.2202,19.00188 -2.95237,12.22536 -3.19399,16.53441 -0.97491,17.38595 2.78973,1.07052 0.42879,2.61613 -3.8724,2.5351 -2.30504,-0.0434 -4.75348,-0.30592 -5.44098,-0.58333 z m 14.62643,-41.81916 c 5.42479,-0.81479 10.56323,-1.75004 11.41875,-2.07834 0.85552,-0.32829 1.81256,-2.24914 2.12675,-4.26856 2.33819,-15.02828 4.52735,-38.03477 4.78888,-50.32756 l 0.31179,-14.6559 -15.0113,-0.64462 c -8.25621,-0.35454 -21.7613,-0.73438 -30.0113,-0.8441 l -15,-0.19948 -0.6665,16 c -0.36658,8.8 -1.1537,20.95 -1.74917,27 -0.59546,6.05 -1.08303,14.92893 -1.08349,19.73095 -7.9e-4,8.23733 0.12637,8.75969 2.24916,9.23936 12.45385,2.81411 28.27858,3.20326 42.62643,1.04825 z M 541.64594,648.14027 c -0.77226,-2.31678 -3.51044,-3.2849 -5.23732,-1.85172 -1.29383,1.07378 -1.36287,1.52393 -0.33382,2.1767 1.98602,1.25983 6.02096,1.02446 5.57114,-0.32498 z m 11.63009,-4.30963 c 8.81892,-5.04619 9.63235,-5.85593 9.77813,-9.73388 0.16267,-4.32702 -0.8778,-6.09075 -3.2302,-5.47559 -2.65017,0.69304 -5.62903,-1.79423 -6.95285,-5.80544 -0.63475,-1.9233 -1.2962,-3.4969 -1.46989,-3.4969 -0.1737,0 -2.9513,1.55708 -6.17245,3.46017 -3.22115,1.9031 -9.45664,5.30582 -13.85664,7.56161 -4.4,2.25578 -8.35134,4.44754 -8.78075,4.87057 -0.69685,0.68649 6.74544,11.10765 7.93254,11.10765 0.26491,0 1.9566,-1.125 3.75932,-2.5 4.15003,-3.16538 4.60413,-3.13731 8.08889,0.5 1.5808,1.65 3.30925,3 3.84099,3 0.53175,0 3.71006,-1.56969 7.06291,-3.48819 z m -12.6539,-7.41021 c -3.01622,-5.37036 -3.22797,-6.1016 -1.76685,-6.1016 0.8495,0 6.01685,8.989 6.01685,10.46676 0,1.78978 -1.8744,-0.13541 -4.25,-4.36516 z m -3.69237,0.76118 c -1.97404,-3.23794 -2.52176,-4.86278 -1.63919,-4.86278 0.84335,0 4.79208,7.12282 4.24951,7.66538 -0.30809,0.3081 -1.48274,-0.95307 -2.61032,-2.8026 z m 15.5096,-3.7301 c -1.41198,-2.78641 -2.55105,-5.64365 -2.53127,-6.34944 0.0586,-2.08937 4.85111,4.4261 5.5303,7.51844 1.03499,4.7123 -0.27812,4.20046 -2.99903,-1.169 z m -6.87404,-1.24936 c -1.62502,-2.94565 -2.25658,-4.90681 -1.5,-4.65785 1.24347,0.40917 5.75564,7.44158 5.79036,9.02453 0.045,2.04964 -1.76943,0.20298 -4.29036,-4.36668 z m 35.11974,-3.9876 c 0.85637,0 12.49364,-4.5845 13.11017,-6.25 1.15869,-3.13008 2.21332,-21.93941 1.30824,-23.33235 -0.55187,-0.84931 -5.59782,0.90399 -17.75119,6.16797 l -16.98015,7.35459 0.0665,4.64009 c 0.068,4.74987 4.87541,15.51328 6.93205,15.52048 0.54919,0.002 6.54067,-1.84343 13.3144,-4.10078 z m -23.81517,-12.40287 c -2.08425,-6.64587 -3.97222,-9.03878 -5.32,-6.74285 -0.91644,1.56115 3.60122,14.15738 5.20712,14.51858 0.88831,0.19981 1.80584,0.2179 2.03894,0.0402 0.2331,-0.17769 -0.63363,-3.69486 -1.92606,-7.81593 z m -3.99776,-11.49285 c 0,-0.55 -0.45,-1 -1,-1 -0.55,0 -1,0.45 -1,1 0,0.55 0.45,1 1,1 0.55,0 1,-0.45 1,-1 z M 630.211,566.38009 c 0,-0.274 2.54585,-1.00945 4.18282,-2.72131 1.69267,-1.77011 2.47831,-4.55042 2.47831,-6.8542 0,-5.4783 -2.79708,-8.05032 -9.76235,-8.97683 -4.74888,-0.63169 -5.45304,-0.47113 -7.21673,1.64554 -1.07491,1.29005 -1.96935,3.606 -1.98765,5.14657 -0.0269,2.2647 0.63074,3.07846 3.43461,4.25 1.90734,0.79693 4.63389,1.44897 6.05902,1.44897 1.47278,0 2.32439,0.43161 1.9731,1 -0.78837,1.27562 -5.60975,1.28897 -8.9349,0.0248 -3.32606,-1.26456 -3.37385,0.25741 -0.11055,3.5207 2.58553,2.58554 5.78158,3.27911 9.88432,1.51581 z m -8.33887,-12.14459 c 0,-2.43705 2.33677,-2.09257 2.82332,0.4162 0.19138,0.98676 -0.31876,1.66713 -1.25,1.66713 -0.92763,0 -1.57332,-0.855 -1.57332,-2.08333 z M 47.873739,696.63684 c -4.125,-0.38918 -11.80906,-0.76642 -17.07568,-0.83831 -14.96912,-0.20432 -13.93224,2.79683 -13.88716,-40.19515 0.0204,-19.48955 0.46496,-41.28555 0.98784,-48.43555 0.52288,-7.15 1.25112,-19.6375 1.61831,-27.75 0.42815,-9.45919 1.06023,-14.80222 1.76216,-14.89558 3.96693,-0.52763 57.50125,0.54359 59.19118,1.18441 1.153154,0.43728 2.810984,2.30042 3.684074,4.1403 1.40568,2.96225 1.48596,6.89301 0.70127,34.33306 -0.48738,17.04329 -1.18931,36.42413 -1.55985,43.06853 -0.44048,7.89865 -0.30561,12.76849 0.38959,14.06749 1.53381,2.86595 15.25821,5.97132 18.168667,6.8561 2.56339,0.77927 3.14067,-0.31609 4.01457,1.98244 1.26362,3.32359 1.29099,8.63094 0.0612,11.8656 -0.75785,1.9933 -2.04786,2.71174 -6.545747,3.64549 -3.08103,0.63962 -8.73106,1.23927 -12.55562,1.33255 l -6.953744,0.16961 -5.2e-4,4.625 c -4.9e-4,4.37985 -0.16615,4.65813 -3.12551,5.25 -3.81514,0.76303 -18.70312,0.5537 -28.875,-0.40599 z m 22.75,-3.95536 c 4.39339,-0.0114 5.25,-0.30879 5.25,-1.82252 0,-4.15727 -2.23209,-5.27811 -13.53498,-6.79656 -6.03076,-0.81018 -14.49439,-1.5679 -18.80807,-1.68382 l -7.84305,-0.21075 0.34844,-7.70539 c 0.19164,-4.23796 0.89268,-8.24963 1.55786,-8.91481 0.66518,-0.66518 3.81276,-1.36692 6.99461,-1.55942 10.30099,-0.6232 26.69123,-2.45651 30.38586,-3.39876 l 3.60068,-0.91829 0.89932,-23.25166 c 1.08002,-27.92325 1.17636,-62.57704 0.18072,-65.00167 -0.65926,-1.60545 -2.93925,-1.75 -27.60286,-1.75 l -26.88425,0 -0.66644,12.25 c -2.64599,48.63666 -3.52727,103.78081 -1.70456,106.66009 0.62536,0.98787 4.28881,1.65896 12.23468,2.24121 6.23812,0.45711 14.71704,1.23595 18.84204,1.73076 4.125,0.49481 8.4,0.72991 9.5,0.52245 1.1,-0.20746 4.3625,-0.38335 7.25,-0.39086 z m -34.99932,-35.70284 c -0.96212,-0.25146 -2.01359,-1.51016 -2.3366,-2.79712 -0.57888,-2.30646 1.05779,-18.85014 2.01866,-20.40487 0.27172,-0.43964 7.823,-1.09019 16.78064,-1.44566 8.95764,-0.35548 18.19912,-0.93437 20.53662,-1.28641 l 4.25,-0.64009 0,8.50667 c 0,10.52223 -0.76003,14.54943 -2.86908,15.20249 -1.63558,0.50645 -34.51969,3.65603 -35.89734,3.43818 -0.40347,-0.0638 -1.52077,-0.32174 -2.4829,-0.57319 z m 34.74932,-6.11329 c 2.94473,-0.81959 3.00546,-0.9697 3.29644,-8.14653 l 0.29644,-7.31156 -15.29644,0.67316 c -19.17117,0.84368 -20.67416,1.1356 -21.85641,4.24514 -0.9939,2.61417 -1.2939,10.65507 -0.42976,11.5192 0.80737,0.80738 30.66063,-0.0528 33.98973,-0.97941 z m -13.5,-8.2289 c 0,-2.41802 2.86012,-3.81299 4.00841,-1.95502 1.17532,1.90172 0.0691,3.9864 -2.1154,3.9864 -1.23609,0 -1.89301,-0.70494 -1.89301,-2.03138 z m -23.49483,-21.21862 c 0.42269,-2.3375 0.88012,-7.98569 1.01653,-12.55153 0.13641,-4.56584 0.56226,-8.61584 0.94634,-9 0.38408,-0.38416 9.66089,-0.74039 20.61514,-0.79163 l 19.91682,-0.0932 0,10.65204 c 0,6.94731 -0.43474,11.24392 -1.25,12.35388 -1.01826,1.38634 -4.03084,1.88142 -16.25,2.67053 -8.25,0.53278 -17.42175,0.97796 -20.38167,0.98928 l -5.38167,0.0206 0.76851,-4.25 z m 34.99483,-1.6514 4,-0.64543 0.5,-7.32362 c 0.275,-4.02799 0.18478,-7.51774 -0.20049,-7.755 -1.28118,-0.789 -33.27816,-0.81685 -34.54951,-0.0301 -0.83858,0.51896 -1.25,3.52424 -1.25,9.13079 l 0,8.35723 13.75,-0.54423 c 7.5625,-0.29933 15.55,-0.83467 17.75,-1.18966 z m -8.83333,-6.76527 c -1.02957,-1.02956 -0.7882,-4.14018 0.37714,-4.8604 1.88869,-1.16728 4.03194,1.51701 2.89999,3.63208 -1.0528,1.96717 -2.13329,2.37216 -3.27713,1.22832 z m -17.66667,-17.0756 c -3.025,-0.20476 -5.95,-0.81769 -6.5,-1.36207 -1.08849,-1.07735 -3.42501,-17.66167 -2.75682,-19.56756 0.53772,-1.53376 11.40782,-2.51011 29.91021,-2.68653 l 14.84661,-0.14157 -0.36532,10.5 c -0.20093,5.775 -0.77926,11.2875 -1.28519,12.25 -0.81548,1.55142 -2.47612,1.72901 -14.63467,1.56502 -7.54315,-0.10174 -16.18982,-0.35252 -19.21482,-0.55729 z m 32.24688,-4.91031 c 0.41422,-0.256 0.75312,-3.55652 0.75312,-7.33448 l 0,-6.86903 -5.53418,-0.69145 c -4.44037,-0.55479 -33.41884,1.00504 -34.02571,1.8315 -0.43663,0.59463 1.25617,11.74565 1.87737,12.36685 1.57863,1.57863 9.8442,2.19513 22.6794,1.69158 7.42328,-0.29123 13.83578,-0.73897 14.25,-0.99497 z m -15.93741,-6.98334 c -0.90925,-2.36947 1.03236,-4.86408 3.78582,-4.86408 2.72109,0 3.74779,2.77923 1.86484,5.04804 -1.61729,1.94872 -4.87295,1.84272 -5.65066,-0.18396 z m 39.136274,98.16866 c 2.720157,-0.30148 5.300767,-1.10717 5.734687,-1.79044 1.14977,-1.81046 0.99538,-7.7423 -0.20151,-7.7423 -0.5616,0 -4.437727,1.00519 -8.613627,2.23376 -5.94889,1.7502 -7.78598,2.74253 -8.48607,4.58392 -1.22697,3.22718 -0.40079,4.11864 3.3891,3.65692 1.77743,-0.21655 5.45727,-0.64038 8.17742,-0.94186 z m -5.03383,-1.90169 c -0.75055,-1.95593 0.27206,-3.63105 2.21666,-3.63105 0.98177,0 1.39867,0.7602 1.19098,2.17167 -0.38802,2.63702 -2.59331,3.58147 -3.40764,1.45938 z m -9.59855,-0.85911 c -0.31109,-3.20473 -0.38199,-3.24439 -9.813364,-5.49011 -8.31188,-1.97916 -16.95611,-3.323 -30.17977,-4.69178 -4.94734,-2.05812 -4.8716,3.59393 -4.6322,7.93131 0.5792,0.5792 35.6507,5.19525 40.62533,5.34703 4.281214,0.13063 4.311024,0.10755 4.000004,-3.09645 z m 14.67483,-8.60451 c 2.16728,-0.61772 -1.62338,-0.92214 -10.48819,-3.09602 -8.255954,-2.02457 -9.036534,-3.25981 -16.404154,-2.65151 -4.34728,0.35894 -23.23525,1.84549 -22.55916,2.0077 3.97917,0.95472 32.6049,5.3834 37.963314,5.37777 2.475,-0.003 10.11319,-1.24603 11.48819,-1.63794 z m 35.511807,20.76304 c -1.375,-0.47122 -3.7559,-1.11155 -5.2909,-1.42294 -3.92402,-0.79603 -2.36609,-2.50753 2.28253,-2.50753 2.82507,0 4.01385,-0.4737 4.39176,-1.75 2.04225,-6.89725 6.45422,-36.12615 5.48311,-36.32508 -0.20158,-0.0413 -3.7415,-0.30529 -7.8665,-0.58667 -6.39286,-0.43607 -7.90278,-0.90475 -10.22852,-3.17492 l -2.72853,-2.66333 0.97679,-9.5 c 0.53723,-5.225 1.21318,-11.22062 1.50211,-13.32359 0.81414,-5.92579 -1.1854,-3.65122 -6.10141,6.94063 -3.29021,7.08896 -4.71268,9.20805 -5.88027,8.76 -0.84709,-0.32506 -1.54017,-1.03933 -1.54017,-1.58727 0,-0.54794 3.375,-7.59552 7.5,-15.66128 5.25672,-10.27866 7.5,-15.74919 7.5,-18.28977 0,-4.41117 0.89524,-4.83872 10.13169,-4.83872 l 6.96812,0 -0.29991,-5.70899 c -0.248,-4.72094 -0.64604,-5.80263 -2.2999,-6.25 -7.30071,-1.97487 -10.64439,-8.72554 -8.03403,-16.2202 1.97559,-5.67215 5.81209,-6.32804 -1.46597,-6.32081 -5.17826,0.005 -3.69763,-2.5 2.14699,-2.5 4.81621,0 4.71988,-1.30141 9.33655,-4.48825 3.06917,-2.11863 6.67505,-3.83725 7.92263,-3.83725 2.36005,0 6.59383,3.50913 6.59383,5.4316 0,0.60835 1.41311,2.89029 3.14024,5.07097 2.14951,2.71397 3.2394,5.28935 3.45453,8.16295 0.17286,2.30894 1.00975,5.86255 1.85976,7.89691 0.92979,2.2253 1.54547,6.69946 1.54547,11.23095 l 0,7.53212 4.25,0.004 c 2.47087,0.002 5.61051,0.83325 7.5,1.9853 3.87992,2.36563 4.05612,4.46642 1.80753,21.55112 -0.79335,6.02791 -1.73109,15.29058 -2.08387,20.58372 l -0.6414,9.62387 -7.43374,0.47707 c -4.08856,0.26239 -7.67609,0.71942 -7.9723,1.01562 -0.54581,0.54582 -2.65917,17.83904 -3.91179,32.00956 l -0.68507,7.75 -3.33289,0 c -1.83309,0 -4.0447,-0.27314 -4.91468,-0.60699 -2.57406,-0.98802 -1.80659,-2.39327 1.30692,-2.39327 2.47522,0 2.97047,-0.46521 3.45993,-3.25 0.74328,-4.22896 2.48118,-21.71567 2.85729,-28.75 l 0.29407,-5.5 -4.71753,-0.30347 c -4.24157,-0.27284 -4.76284,-0.0711 -5.16664,2 -0.24701,1.26691 -1.6252,9.95347 -3.06265,19.30347 -3.72219,24.21134 -2.94409,22.35275 -8.55318,20.43047 z m 38.23195,-54.43047 c 0.40257,-4.4 1.43231,-14.03778 2.28832,-21.4173 1.20745,-10.40915 1.28581,-13.58451 0.34954,-14.16316 -0.66377,-0.41023 -11.39399,-0.78796 -23.84493,-0.83941 l -22.63808,-0.0935 -1.77551,21.09126 c -0.97653,11.60019 -1.60285,21.26392 -1.39181,21.47495 0.95117,0.95117 20.52886,2.19019 32.78052,2.07458 l 13.5,-0.12739 0.73195,-8 z m -11.73195,-50.66899 c 0,-4.76794 -0.33927,-9.00722 -0.75394,-9.42061 -0.41467,-0.41339 -1.76467,0.19485 -3,1.35164 -1.23533,1.15679 -4.38356,3.01758 -6.99606,4.13507 -4.28416,1.83255 -4.75134,2.35403 -4.76365,5.31735 -0.008,1.80705 -0.29,4.31717 -0.62775,5.57805 -0.60871,2.27239 -0.54058,2.28994 7.76365,2 l 8.37775,-0.29251 z m -8.00506,-7.65909 c 5.29531,-3.66057 5.4861,-5.58292 1.00911,-10.16777 -4.31342,-4.41734 -3.29993,-6.04244 1.54098,-2.47093 3.80704,2.80875 3.95497,2.86073 3.95497,1.38986 0,-0.59231 -1.31538,-2.39231 -2.92308,-4 -2.51627,-2.51628 -3.68222,-2.92308 -8.37787,-2.92308 -9.379,0 -14.69905,3.37609 -14.69905,9.32796 0,2.36817 0.15436,2.42476 4.15919,1.52494 2.74287,-0.61629 3.99008,-0.29806 4.66547,0.3773 3.00893,-0.90385 -0.97799,3.38291 -4.25529,2.51484 -2.42339,-0.6419 -4.26724,0.93477 -3.94678,1.45329 0.32082,0.5191 2.33408,0.64686 4.48004,0.2843 2.54501,-0.42998 3.89737,-0.28096 3.89737,0.42944 0,0.59835 -1.0125,1.09479 -2.25,1.10321 -1.2375,0.008 -2.86649,0.40585 -3.61998,0.88317 -2.25178,1.42646 1.66536,3.0411 7.36998,3.03789 3.82561,-0.002 5.93833,-0.65146 8.99494,-2.76445 z m -16.00047,-10.18087 c -0.34296,-0.55492 -0.32327,-1.9551 0.0438,-3.11151 0.59975,-1.88963 0.82267,-1.94721 2.20129,-0.56859 0.84368,0.84368 1.26156,2.24386 0.92861,3.11151 -0.68691,1.79006 -2.24611,2.0694 -3.17366,0.56859 z m 13.38053,-10.61605 c 3.63273,-0.72655 4.17005,-3.24126 1.10197,-5.15731 -2.16991,-1.35513 -5.56916,0.52905 -8.76693,2.18391 -8.56694,4.43344 1.72981,4.16043 7.66496,2.9734 z M 108.93187,451.74882 c -1.24532,-0.80857 -1.13947,-3.09312 0.7765,-16.75859 1.22011,-8.70232 2.20645,-18.14915 2.19187,-20.99294 -0.0258,-5.03275 -0.11311,-5.18702 -3.2765,-5.78858 -17.277977,-3.28565 -19.205737,-7.17276 -16.309477,-32.88626 0.85771,-7.61496 1.54269,-15.48996 1.52216,-17.5 -0.0339,-3.3171 -0.39523,-2.82342 -3.91273,5.34538 -5.08397,11.80664 -6.81856,20.08899 -5.26644,25.14626 0.8589,2.79857 0.86607,3.95228 0.0278,4.47038 -3.01235,1.86173 -5.811284,-2.36908 -5.811284,-8.78424 0,-7.25445 11.889694,-37.30862 15.273274,-38.60702 1.06906,-0.41024 1.76813,-2.59844 2.24111,-7.01502 0.37806,-3.53034 0.97949,-6.87086 1.33651,-7.42339 0.35701,-0.55253 6.635167,-1.24169 13.951457,-1.53146 7.31629,-0.28978 13.59606,-0.82059 13.95505,-1.17958 0.35899,-0.35898 0.83785,-3.56036 1.06414,-7.11418 0.39869,-6.26135 0.29942,-6.58545 -3.20505,-10.46449 -4.35351,-4.81881 -4.50322,-7.26167 -0.80136,-13.07582 1.54832,-2.43179 4.0417,-6.35207 5.54084,-8.71172 4.91674,-7.73895 10.86988,-8.04116 14.4209,-0.73209 2.18684,4.50117 2.25106,4.54154 6.2164,3.90746 3.19873,-0.5115 4.00673,-0.3343 4.00673,0.87869 0,0.83567 -1.125,1.80176 -2.5,2.14686 -2.22012,0.55722 -2.5,1.15018 -2.5,5.29653 0,7.46607 -6.13385,14.29283 -12.84211,14.29283 -2.69065,0 -3.05819,0.75277 -3.79106,7.76446 l -0.62029,5.9346 16.87673,0.59829 c 22.18774,0.78657 22.66726,0.93854 23.60896,7.482 0.46423,3.22575 2.06472,7.20928 4.30125,10.70553 4.41476,6.90138 7.46652,18.41728 7.46652,28.17508 0,6.55839 -0.20342,7.34004 -1.91023,7.34004 -1.68593,0 -1.9855,-1.02745 -2.55125,-8.75 -0.59993,-8.18914 -3.89618,-21.73498 -5.53553,-22.74815 -0.40226,-0.24861 -0.97025,7.29927 -1.26221,16.77306 -0.37136,12.05054 -1.21586,20.67978 -2.81117,28.72509 -1.2542,6.325 -2.40558,11.66664 -2.55863,11.87032 -0.15305,0.20367 -2.48237,0.48924 -5.17626,0.63459 -2.69389,0.14535 -7.58625,0.57628 -10.8719,0.95762 l -5.97392,0.69335 -1.75087,15.17206 c -0.96297,8.34463 -1.98329,16.79604 -2.26737,18.7809 l -0.51651,3.60884 5.09292,0.6756 c 4.8045,0.63734 6.61853,2.11278 3.84293,3.12563 -0.6875,0.25087 -4.175,0.12046 -7.75,-0.28981 -7.64068,-0.87685 -7.2584,0.90915 -4.11586,-19.2291 1.15866,-7.425 2.10872,-15.35625 2.11125,-17.625 0.004,-3.8525 -0.21009,-4.1688 -3.24539,-4.788 -1.7875,-0.36465 -6.7375,-0.9376 -11,-1.27322 l -7.75,-0.61021 0,4.47208 c 0,2.45964 -0.63331,8.93884 -1.40736,14.39821 -0.77406,5.45938 -1.66462,12.71437 -1.97904,16.12221 l -0.57166,6.19606 4.72903,0.30394 c 2.60097,0.16716 4.72903,0.75393 4.72903,1.30393 0,1.30134 -11.56272,1.80111 -13.44187,0.58099 z m 52.90417,-46.64325 c 1.51937,-1.51942 3.99231,-15.13123 5.04284,-27.75734 0.80018,-9.61715 -0.20336,-42.21195 -1.33446,-43.34305 -1.56295,-1.56296 -20.91644,-2.34459 -40.60908,-1.64008 l -22.43839,0.80273 -0.76297,3 c -1.18818,4.67193 -5.860897,46.70869 -5.854657,52.66978 0.003,2.93162 0.46168,6.97231 1.01914,8.9793 1.436,5.16998 6.168617,6.86224 20.887697,7.46891 6.33239,0.26099 11.75512,0.72155 12.05051,1.02344 0.99433,1.01625 30.90458,-0.10886 31.99937,-1.20369 z m -28.31913,-94.92525 c -0.31395,-0.81814 0.31301,-3.06435 1.59216,-4.44457 1.5224,-1.64271 4.07001,-3.36942 2.61242,-3.96325 -2.47859,-1.00979 -1.10976,-3.1481 -0.10228,-3.53472 1.97456,-0.75771 3.45352,2.82153 0.50759,3.95687 -1.51721,0.58472 2.07034,1.47318 3.67955,1.47318 1.62121,0 2.06739,-0.63471 2.06739,-2.94098 0,-3.70766 -0.50847,-3.99499 -8.36854,-4.72897 -6.00437,-0.5607 -6.62912,-0.4233 -9.04078,1.98836 -3.38374,3.38374 -3.3492,7.28043 0.0964,10.87687 2.88884,3.01529 7.97745,3.97888 6.95609,1.31721 z m 6.35683,-0.95347 c 2.19713,-1.42248 -0.053,-1.21374 -0.51175,-1.66933 -0.95687,-0.95024 -4.66188,-1.52486 -4.66188,-0.9424 0,0.58246 3.62363,3.05271 4.17363,3.05271 0.55,0 0.7964,-0.30917 1,-0.44098 z m 0,-16.99392 c 0,-0.2392 -0.43886,-1.5892 -0.97525,-3 -1.21573,-3.19762 -4.35196,-3.36374 -6.46805,-0.34259 -2.32846,3.32435 -1.97539,3.77749 2.9433,3.77749 2.475,0 4.5,-0.19571 4.5,-0.4349 z m 281.70631,126.80788 c -1.62526,-1.62526 -0.4739,-2.51517 3.04369,-2.35256 8.13623,0.37614 7.56559,1.35761 6.8435,-11.77042 -0.35547,-6.4625 -0.90807,-14.96744 -1.22801,-18.89987 l -0.5817,-7.14987 -9.9595,-0.71284 c -9.554,-0.68381 -10.00101,-0.82021 -10.97919,-3.35013 -0.65263,-1.68792 -0.79007,-10.19687 -0.38181,-23.63729 0.36687,-12.07793 0.25308,-21.56278 -0.26784,-22.32462 -0.69234,-1.01256 -2.49153,0.0207 -7.63698,4.38592 l -6.73127,5.71054 6.0864,6.14099 c 6.48067,6.53879 7.12772,7.95951 4.31147,9.46672 -0.97621,0.52245 -4.6124,5.71328 -8.08041,11.53518 -3.46802,5.8219 -6.76082,10.58527 -7.31734,10.58527 -1.32924,0 -4.24895,-2.33718 -16.58323,-13.27464 -14.92706,-13.2366 -14.58987,-12.27773 -7.5628,-21.50676 3.20029,-4.20312 6.12325,-8.08249 6.49547,-8.62083 0.37222,-0.53834 3.74722,-1.3045 7.5,-1.70258 6.34971,-0.67354 7.00053,-0.55622 9.37796,1.69052 3.13194,2.95979 4.10525,3.00379 6.54029,0.29568 1.04775,-1.16524 4.71749,-4.12974 8.15499,-6.58778 l 6.25,-4.46917 0,-6.47796 c 0,-10.41829 -0.1036,-10.34648 14.92678,-10.34648 12.54895,0 12.87009,-0.0545 13.42868,-2.28015 0.81677,-3.25424 -0.27169,-6.55849 -2.38097,-7.22795 -3.63687,-1.15429 -6.95155,-4.693 -7.98263,-8.52214 -0.89815,-3.33547 -0.74595,-4.53145 1.01623,-7.98561 3.72813,-7.30775 10.69668,-9.68657 18.83587,-6.42991 8.65691,3.46381 8.23163,16.4649 -0.70687,21.60925 -3.95847,2.27821 -5.09627,4.17147 -5.12344,8.52524 -0.0159,2.54277 1.71409,2.87787 19.45446,3.76837 7.51947,0.37745 11.41403,0.99647 12.38631,1.96875 1.21438,1.21438 1.25158,6.27569 0.25881,35.21925 -0.63766,18.59058 -1.53034,34.17201 -1.98373,34.6254 -0.45339,0.45339 -5.64932,1.09758 -11.54652,1.43153 -10.24492,0.58017 -10.6993,0.70046 -10.20802,2.70258 0.28279,1.15247 0.83332,9.47095 1.22339,18.48553 l 0.70923,16.39014 -3.90379,-0.72932 c -4.9087,-0.91707 -5.36074,-1.37806 -3.02564,-3.08552 1.56924,-1.14745 1.86231,-2.64255 1.79721,-9.16824 -0.112,-11.22591 -1.25537,-22.59765 -2.41782,-24.0472 -0.55134,-0.6875 -2.78229,-1.25 -4.95768,-1.25 l -3.95525,0 0.76755,15.75 c 0.42215,8.6625 0.79461,17.55 0.82769,19.75 l 0.0602,4 -7.04369,0.28965 c -3.87403,0.1593 -7.36153,-0.0282 -7.75,-0.41667 z m 41.42719,-43.99592 c 3.58108,-0.59226 3.64243,-0.68227 4.25306,-6.239 1.39486,-12.69336 2.69765,-54.45385 1.72899,-55.42251 -1.56246,-1.56246 -54.01116,-4.11407 -55.45603,-2.69791 -0.94822,0.92938 -1.83013,59.43762 -0.91554,60.73973 0.57103,0.81298 5.80861,1.62273 14.81959,2.29116 7.66504,0.56858 14.61143,1.18807 15.43643,1.37663 2.6491,0.60548 16.38002,0.57267 20.1335,-0.0481 z M 394.94997,361.6279 c 4.00542,-6.5759 5.48935,-9.88751 4.90421,-10.9445 -1.74316,-3.14885 -15.22927,-15.47623 -15.66346,-14.31765 -0.64724,1.72709 -11.9905,15.98227 -13.42112,16.86644 -1.51573,0.93677 -0.70579,-0.50026 3.81552,-6.76965 3.29232,-4.56525 3.34369,-4.78103 1.72596,-7.25 -0.91705,-1.39959 -1.98141,-2.54471 -2.36526,-2.54471 -0.87774,0 -4.94024,4.39086 -8.42403,9.10493 l -2.66412,3.60492 2.00608,2.55032 c 1.10335,1.40268 4.21807,4.4023 6.92161,6.66583 l 4.91552,4.11551 6.30326,-7.62026 c 3.46679,-4.19115 6.46791,-7.12633 6.66914,-6.52262 0.56151,1.68451 -3.39537,7.5035 -7.82138,11.50213 -2.18799,1.97672 -3.97816,3.81583 -3.97816,4.08692 0,0.91763 9.49322,7.46161 10.41651,7.18043 0.50408,-0.15351 3.50095,-4.52213 6.65972,-9.70804 z m -10.07623,2.36164 c 0,-1.27587 8.17827,-11.47677 8.74601,-10.90904 0.2208,0.22081 -0.26654,1.68079 -1.083,3.2444 -1.71277,3.28018 -7.66301,9.23169 -7.66301,7.66464 z m -10,-7.73236 c 0,-0.43165 2.56133,-4.41936 5.69184,-8.86157 5.94509,-8.43612 8.74113,-9.19433 3.43969,-0.93275 -3.0488,4.75114 -9.13153,11.27538 -9.13153,9.79432 z m -7.9731,-6.86079 c -0.0299,-0.85722 5.02554,-8.72856 5.60599,-8.72856 0.20191,0 0.355,0.5625 0.34021,1.25 -0.0292,1.35823 -5.90205,8.7445 -5.9462,7.47856 z m 13.9731,-14.22856 c 0,-0.825 -0.675,-1.5 -1.5,-1.5 -1.56157,0 -1.98397,1.1827 -0.83333,2.33333 1.15063,1.15064 2.33333,0.72824 2.33333,-0.83333 z m 62.77493,-43.5042 c 7.25729,-4.42477 7.04286,-14.74851 -0.34486,-16.60271 -5.13709,-1.28933 -11.68713,2.79861 -13.02497,8.12901 -0.87729,3.49538 0.801,4.58478 6.5949,4.28083 3.39506,-0.17811 4.5,0.12403 4.5,1.2305 0,1.02583 -1.50263,1.61846 -5,1.972 l -5,0.50543 3,1.16562 c 4.28144,1.66352 5.58728,1.56768 9.27493,-0.68068 z m -10.10826,-7.66247 c -1.21793,-1.21793 -0.68908,-3.33333 0.83333,-3.33333 0.83333,0 1.5,0.88889 1.5,2 0,1.99224 -1.06554,2.60112 -2.33333,1.33333 z M 109.31963,221.58027 c -0.35209,-0.56969 -1.72145,-1.44691 -3.04303,-1.94937 -2.87759,-1.09406 -2.90611,-1.66804 -0.96702,-19.46307 0.77912,-7.15 1.9694,-22 2.64507,-33 l 1.22848,-20 58.5953,0 58.59531,0 -0.15945,4.5 c -0.0877,2.475 -1.40509,15.525 -2.92755,29 -1.52246,13.475 -2.69131,25.625 -2.59744,27 0.0939,1.375 0.28627,3.5848 0.42756,4.91067 0.20485,1.92238 -0.35077,2.57901 -2.74312,3.24178 -7.7519,2.14758 -39.79979,4.90119 -62.5,5.37011 -13.475,0.27835 -29.31814,0.713 -35.20698,0.96589 -6.80038,0.29204 -10.94054,0.0819 -11.34713,-0.57601 z m 66.55411,-6.40901 c 21.43763,-1.53511 34.37772,-2.94367 37.28233,-4.05827 0.94472,-0.36253 1.71767,-1.28599 1.71767,-2.05215 0,-1.06953 -1.79965,-1.39657 -7.75,-1.40832 -11.01395,-0.0218 -12.32031,-1.54631 -2.08771,-2.43639 8.82513,-0.76766 10.83771,-1.63502 10.83771,-4.67074 0,-1.69161 -0.91613,-1.89106 -9.25,-2.01382 l -9.25,-0.13627 8.38487,-0.8085 c 10.41202,-1.00397 11.11513,-1.27611 11.11513,-4.30227 0,-2.32974 -0.36854,-2.47624 -7.75,-3.08071 -12.93463,-1.05923 -13.18148,-1.23031 -2,-1.38616 8.90093,-0.12406 10.75,-0.4121 10.75,-1.67458 0,-2.18328 -4.18045,-3.4729 -11.3151,-3.49056 -3.40169,-0.008 -6.8599,-0.49496 -7.6849,-1.0812 -1.08125,-0.76832 1.36143,-0.90223 8.75,-0.47966 l 10.25,0.58621 0,-2.50502 c 0,-2.33456 -0.35724,-2.51611 -5.25,-2.66802 l -5.25,-0.16299 5.46417,-0.58701 c 5.27971,-0.56718 5.48915,-0.70515 6.2044,-4.087 0.40712,-1.925 1.04985,-7.43139 1.42828,-12.23643 l 0.68806,-8.73643 -12.39245,0.55478 c -6.81586,0.30513 -30.84246,0.63652 -53.39246,0.73643 l -41,0.18165 -0.32847,2.87484 -0.32846,2.87484 7.82846,-0.83939 c 8.61431,-0.92365 10.35719,-0.95921 31.07847,-0.63396 9.11058,0.143 14.25,0.601 14.25,1.2699 0,0.69962 -7.04004,1.00257 -21.25,0.91443 -11.6875,-0.0725 -23.56035,-0.0494 -26.38411,0.0513 l -5.13411,0.18314 -0.66582,5.01916 c -0.3662,2.76054 -0.40636,5.27862 -0.0893,5.59573 0.31711,0.3171 4.61458,0.76961 9.54993,1.00558 4.93535,0.23596 8.97337,0.84632 8.97337,1.35636 0,0.85594 -7.5611,0.48867 -15.75,-0.76504 -2.90166,-0.44419 -3.25,-0.24043 -3.25,1.90111 0,1.31924 -0.28354,5.11139 -0.63009,8.42699 l -0.63009,6.02837 12.18307,0.73201 c 6.70069,0.4026 11.89608,1.01834 11.5453,1.36832 -0.35077,0.34997 -5.71336,0.47784 -11.91687,0.28416 l -11.27911,-0.35216 -0.5003,2.61719 c -0.57845,3.02596 -1.1001,2.85012 13.78131,4.64562 5.52926,0.66713 14.03575,1.00393 18.90329,0.74845 5.96928,-0.31331 8.06778,-0.16676 6.44679,0.4502 -2.28105,0.86817 -21.86519,0.37403 -34.06434,-0.85951 l -5.66105,-0.57242 -0.64144,6.83739 c -0.65934,7.02819 -0.84072,10.27585 -0.64716,11.58739 0.19068,1.29197 44.6548,0.78985 66.11069,-0.74657 z m -12,-5.73709 c -1.47825,-0.60956 -12.30881,-1.03167 -26.5,-1.03281 l -24,-0.002 19,-0.86415 c 17.9552,-0.81662 32.0405,-0.20728 49.5,2.1414 4.65868,0.6267 3.89383,0.74358 -5,0.76412 -5.775,0.0133 -11.625,-0.43966 -13,-1.00664 z m 6.33788,-10.96994 c 6.72222,-0.57123 12.79818,-0.56268 16,0.0225 4.18135,0.76423 2.12223,0.93921 -10.83788,0.92097 l -16,-0.0225 z m -11.83788,-8.86371 c -3.85,-0.43085 -9.20546,-0.52497 -11.90102,-0.20916 -3.49387,0.40934 -4.70155,0.25144 -4.20626,-0.54994 0.83568,-1.35217 51.53886,-0.44054 53.05728,0.95395 1.15491,1.06065 -27.06062,0.91186 -36.95,-0.19485 z m -35.5,-5.93269 c -2.21807,-0.46688 -2.69752,-0.78493 -1.30902,-0.86836 1.20504,-0.0724 2.4691,-0.58164 2.80902,-1.13164 0.36746,-0.59457 8.1589,-0.0555 17.78552,-0.10245 16.95077,-0.0827 17.01272,-1.29942 7.19177,-2.8664 -5.6816,-0.90653 -5.55681,-0.92974 2.52271,-0.46922 4.675,0.26647 15.22057,1.26154 23.43461,2.21128 l 14.93461,1.72679 c -12.65876,5.2608 -51.04239,-8.53646 -60.18952,1.46091 -0.38062,1.14186 -1.90131,1.15014 -7.1797,0.0391 z m 39.5,-9.94092 c -1.48574,-0.68233 -0.43399,-0.93658 4.09029,-0.98879 3.34966,-0.0387 13.69966,-0.2954 23,-0.57054 10.48671,-0.31023 15.9017,-0.16293 14.25593,0.38779 -3.82385,1.27956 -38.94416,2.2747 -41.34622,1.17154 z m -25.5,-1.05908 c -1.0489,-0.67785 0.45477,-0.95284 5,-0.9144 4.54774,0.0385 5.8993,0.3131 4.5,0.9144 -2.73547,1.17547 -7.68109,1.17547 -9.5,0 z m 5.26903,-8.69299 c 0.97297,-0.25354 2.32297,-0.23687 3,0.037 0.67703,0.27393 -0.11903,0.48137 -1.76903,0.46099 -1.65,-0.0204 -2.20394,-0.2445 -1.23097,-0.49804 z m 28.93039,-1.05084 c 4.78468,-0.18291 12.88468,-0.18377 18,-0.002 5.11532,0.18186 1.20058,0.33151 -8.69942,0.33256 -9.9,0.001 -14.08526,-0.14774 -9.30058,-0.33065 z m 30.55058,-0.91845 c 0.6875,-0.27741 1.8125,-0.27741 2.5,0 0.6875,0.27741 0.125,0.50439 -1.25,0.50439 -1.375,0 -1.9375,-0.22698 -1.25,-0.50439 z m 10.51375,-0.0553 c 1.52006,-0.22986 3.77006,-0.22371 5,0.0136 1.22994,0.23736 -0.0137,0.42542 -2.76375,0.41792 -2.75,-0.008 -3.75631,-0.20172 -2.23625,-0.43157 z m -15.76375,-5.28242 c -1.27158,-0.54642 2.00629,-0.84872 9,-0.83003 6.96214,0.0186 10.0823,0.32329 8.5,0.83003 -3.35205,1.07351 -15.0018,1.07351 -17.5,0 z m -38,-2 -10,-0.61267 9.5,-0.0878 c 5.225,-0.0483 13.55,0.24328 18.5,0.64791 l 9,0.73568 -8.5,-0.0352 c -4.675,-0.0194 -13,-0.31093 -18.5,-0.6479 z m 434.86989,50.52147 c -0.3607,-0.93984 -0.059,-14.97248 0.6711,-31.18366 1.3051,-28.99159 1.3608,-29.46596 3.3929,-28.93145 1.1364,0.29888 7.2411,-0.0975 13.5661,-0.88088 6.325,-0.78336 23.2,-2.58705 37.5,-4.00819 14.3,-1.42114 27.3708,-2.7971 29.0462,-3.05767 2.8481,-0.44297 3.2312,-1.04224 5.8915,-9.2167 1.565,-4.80861 5.2671,-13.36252 8.227,-19.00869 6.2619,-11.945196 17.493,-36.151856 19.2667,-41.526249 1.535,-4.65134 3.9449,-4.83217 7.5351,-0.56542 10.7325,12.754893 13.6488,40.688959 5.9136,56.644129 -4.7353,9.76729 -16.7375,16.3961 -32.3069,17.84313 l -6.7368,0.62611 -1.7474,18.62204 c -0.9611,10.24211 -2.0493,23.34703 -2.4182,29.12203 l -0.6708,10.5 -10,0.75253 c -5.5,0.41389 -17.425,1.41106 -26.5,2.21595 -9.075,0.80488 -21.225,1.71398 -27,2.02023 -5.775,0.30625 -13.3067,0.82338 -16.7372,1.14918 -5.3014,0.50349 -6.3356,0.33598 -6.8929,-1.11642 z m 20.1301,-2.99159 c 11.4578,-0.67211 45.6133,-3.32008 56,-4.3415 l 7,-0.68838 1.2029,-17 c 0.6616,-9.35 1.5782,-21.40352 2.037,-26.78561 0.4588,-5.38209 0.5308,-10.27647 0.16,-10.87641 -0.4808,-0.77798 -4.9365,-0.60335 -15.537,0.60895 -8.1746,0.93486 -23.8688,2.54864 -34.8761,3.58618 -25.3404,2.38857 -30.3409,3.4069 -30.9367,6.30015 -0.8083,3.92495 -1.7479,48.53767 -1.0462,49.67306 0.3776,0.61092 1.8812,0.88563 3.3413,0.61047 1.4601,-0.27517 7.1548,-0.76428 12.6548,-1.08691 z m 88.7519,-66.52598 c 8.341,-2.57626 15.0328,-7.93898 18.3829,-14.73193 4.8781,-9.89093 4.2845,-34.189866 -1.1243,-46.021966 -1.3199,-2.887503 -2.8133,-5.250003 -3.3186,-5.250003 -0.5053,0 -2.1516,2.812503 -3.6583,6.250003 -1.5068,3.4375 -7.3839,15.7 -13.0603,27.249996 -5.6764,11.55 -11.2113,24.0375 -12.2998,27.75 l -1.9791,6.75 5.2975,0 c 2.9136,0 8.2056,-0.89824 11.76,-1.9961 z m -184.89657,68.32368 c -3.01985,-0.61825 -3.20694,-3.33287 -1.72739,-25.06388 0.70265,-10.32004 1.2988,-22.2512 1.3248,-26.5137 l 0.0473,-7.75 -9.00698,0 -9.00698,0 0.60571,6.75 c 0.34143,3.80483 -0.12699,14.38563 -1.07355,24.25 -0.94387,9.83634 -1.38793,19.84386 -1.014,22.85221 l 0.66525,5.35221 -4.33472,-0.67526 c -6.59714,-1.0277 -7.83473,-1.53072 -7.83473,-3.18445 0,-1.21989 0.79083,-1.3869 4,-0.84471 l 4,0.6758 0.009,-7.8379 c 0.005,-4.31085 0.67587,-13.4629 1.49131,-20.3379 1.69358,-14.27862 1.90613,-22.63096 0.5965,-23.44036 -0.49693,-0.30712 -2.23844,1.10563 -3.87002,3.13945 l -2.96652,3.69784 -8.23096,-7.43213 c -8.10274,-7.31607 -16.02931,-16.30794 -16.02931,-18.18322 0,-0.52644 3.66087,-5.5084 8.13528,-11.07101 4.4744,-5.56261 8.77491,-11.64472 9.5567,-13.5158 1.44932,-3.46872 1.12778,-7.793306 -0.88309,-11.877306 -1.60765,-3.26505 -0.54914,-4.80642 6.89737,-10.0438 3.73295,-2.62551 8.31615,-6.25614 10.18488,-8.06807 l 3.39768,-3.294413 -3.15863,-3.08815 c -1.73724,-1.69848 -3.43545,-4.19111 -3.7738,-5.53919 -0.961,-3.82892 0.41593,-12.49414 2.4264,-15.26966 2.94386,-4.06411 10.17837,-7.09148 18.39589,-7.69797 6.47403,-0.47782 7.63679,-0.28972 10.04725,1.62537 3.97817,3.1606 5.26294,8.38659 3.79734,15.44631 -1.5075,7.26161 -5.5892,12.16688 -11.36462,13.65768 -2.28726,0.59041 -4.94615,1.30201 -5.90865,1.58134 -1.41567,0.410843 -1.75,1.653583 -1.75,6.504883 l 0,5.99702 11.78166,-0.25836 c 6.47991,-0.1421 12.32991,0.0805 13,0.49461 2.02449,1.2512 1.52568,21.701726 -0.84792,34.764006 -1.13644,6.25401 -2.32191,14.40843 -2.63437,18.12093 l -0.5681,6.75 -5.36564,0 -5.36563,0 -0.0152,3.25 c -0.008,1.7875 -0.67386,12.7 -1.47891,24.25 -0.80506,11.55 -1.47323,22.66857 -1.48483,24.70794 l -0.0211,3.70793 7.75,0.29207 c 6.09242,0.22959 7.75,0.61288 7.75,1.79206 0,1.17778 -1.5037,1.52864 -7,1.63333 -3.85,0.0733 -7.96511,-0.0642 -9.14468,-0.30575 z m -13.35532,-73.52074 c 0,-0.44376 -0.89425,-0.80684 -1.98722,-0.80684 -1.25915,0 -4.24248,2.74781 -8.14283,7.5 -5.3127,6.47299 -7.86995,8.76529 -7.86995,7.05456 0,-0.245 3.15,-4.35105 7,-9.12456 3.85,-4.77351 7.651,-7.98856 7.651,-8.93481 0,-0.94626 -1.59164,-4.03649 -2.74132,-5.07693 -1.95505,-1.7693 -2.17074,-1.78172 -3.3332,-0.19197 -5.18085,7.08524 -13.19877,16.77371 -13.88148,16.77371 -1.0132,0 1.94275,-4.35649 8.83778,-13.02515 l 5.19009,-6.52516 -3.6387,-4.22484 c -2.00129,-2.32367 -4.16003,-4.22485 -4.7972,-4.22485 -1.09961,0 -10.29509,10.7669 -15.15877,17.74925 l -2.26332,3.24925 3.81756,4.67309 c 2.09966,2.5702 6.29256,6.64577 9.31756,9.05683 l 5.5,4.38374 8.25,-8.74923 c 4.5375,-4.81208 8.25,-9.11232 8.25,-9.55609 z m -18.62061,7.69316 c 0.80311,-1.65 3.57532,-5.025 6.16048,-7.5 5.92629,-5.67378 4.21789,-2.30539 -2.53593,5 -3.90541,4.22435 -4.74607,4.80419 -3.62455,2.5 z m -7.54627,-7 c 3.07126,-4.61018 12.07038,-14.14556 12.12149,-12.84381 0.025,0.63591 -3.14184,4.46091 -7.03733,8.5 -3.8955,4.0391 -6.18337,5.99381 -5.08416,4.34381 z m -2.95194,-4 c 1.13933,-1.65 3.47498,-4.575 5.19033,-6.5 2.63092,-2.95247 2.79475,-3.03069 1.04731,-0.5 -1.13933,1.65 -3.47498,4.575 -5.19033,6.5 -2.63092,2.95247 -2.79475,3.03069 -1.04731,0.5 z m 54.91912,-0.25 c 3.55212,-22.18308 3.59261,-22.55036 2.44013,-22.13303 -0.58176,0.21067 -6.27488,5.02554 -12.6514,10.69972 -10.25327,9.12393 -13.13541,8.91938 -11.45716,11.34115 2.27566,3.28385 0.36265,4.89801 -1.82317,7.64806 -5.19485,6.5358 -5.65998,6.1941 8.43156,6.1941 l 12.8583,0 z m -19.00177,-7.96089 c 3.03279,-2.59099 9.2688,-8.26498 13.85781,-12.60886 8.30516,-7.861516 8.34366,-7.921166 8.34366,-12.926986 l 0,-5.02902 -14.25,0.65077 c -23.55919,1.0759 -32.75,1.82646 -32.75,2.6745 0,0.44269 1.66244,2.17521 3.69431,3.85004 3.70525,3.05418 3.91452,5.586266 0.27378,3.31259 -2.80101,-1.74925 -2.96838,-1.60601 -2.96532,2.537856 0.002,3.32153 0.98295,4.80688 8.58151,13 4.71831,5.0875 8.83105,9.25 9.13942,9.25 0.30837,0 3.04204,-2.1199 6.07483,-4.71089 z m -6.00575,-32.930576 c 2.13504,-0.57191 2.27263,-1.06426 2,-7.15665 -0.1845,-4.12287 -0.75507,-6.695243 -1.54278,-6.955523 -0.6875,-0.22716 -1.25,0.28031 -1.25,1.127713 0,0.84741 -3.15,4.05408 -7,7.12593 -3.85,3.07185 -7,5.79102 -7,6.04259 0,0.67886 12.13503,0.52787 14.79278,-0.18406 z m 14.24533,-18.608533 c 5.53568,-2.79148 7.36392,-6.33789 7.4195,-14.39231 0.0559,-8.09915 -1.81394,-10.35769 -8.57508,-10.35769 -7.2708,0 -15.54729,3.45383 -17.55826,7.32717 -1.93766,3.73214 -2.15725,10.24788 -0.4527,13.43286 1.06842,1.99636 1.68198,2.16891 5.41667,1.5233 6.01611,-1.04 10.66502,-0.9459 10.70426,0.21667 0.0186,0.55 -2.22216,1.13602 -4.97938,1.30226 -4.71514,0.28429 -5.90206,0.97547 -4.34645,2.53107 1.41989,1.4199 8.11507,0.56303 12.37144,-1.58333 z m -15.03811,-11.66667 c 0,-1.22833 0.64569,-2.08333 1.57332,-2.08333 0.93124,0 1.44138,0.68037 1.25,1.66713 -0.48655,2.50877 -2.82332,2.85325 -2.82332,0.4162 z m 7.17067,0.26897 c 0.19376,-1.00613 1.1755,-1.98787 2.18163,-2.18163 1.32108,-0.25442 1.73145,0.15595 1.47703,1.47703 -0.19376,1.00614 -1.1755,1.98787 -2.18163,2.18163 -1.32108,0.25442 -1.73145,-0.15595 -1.47703,-1.47703 z m -6.75798,-4.92674 c 2.15198,-0.78843 4.12689,-1.21931 4.38869,-0.95751 0.63911,0.63911 -4.49763,2.5501 -6.61648,2.46149 -0.92669,-0.0388 0.0758,-0.71555 2.22779,-1.50398 z m 9.08731,-0.42556 c 2.75248,-1.18278 3.731,-1.18278 3,0 -0.33992,0.55 -1.60398,0.96837 -2.80902,0.92972 -2.11236,-0.0678 -2.11922,-0.10113 -0.19098,-0.92972 z"
       id="path3237"
       style="fill:#000000"
       inkscape:connector-curvature="0" />
    <rect
       width="313.02264"
       height="116.00251"
       rx="49.975349"
       ry="42.767311"
       x="92.065491"
       y="15.704799"
       id="rect2985"
       style="fill:#f88473;fill-opacity:0;stroke:#000000;stroke-width:1.5;stroke-miterlimit:4;stroke-opacity:1;stroke-dasharray:none" />
    <path
       d="m 451.12089,39.641827 a 13.809825,14.73048 0 1 1 -27.61965,0 13.809825,14.73048 0 1 1 27.61965,0 z"
       id="path2987"
       style="fill:#f88473;fill-opacity:0;stroke:#000000;stroke-width:1.5;stroke-miterlimit:4;stroke-opacity:1;stroke-dasharray:none"
       inkscape:connector-curvature="0" />
    <path
       d="m 486.10578,28.593967 a 7.36524,7.36524 0 1 1 -14.73048,0 7.36524,7.36524 0 1 1 14.73048,0 z"
       transform="translate(-1.8413097,12.889168)"
       id="path2989"
       style="fill:#f88473;fill-opacity:0;stroke:#000000;stroke-width:1.5;stroke-miterlimit:4;stroke-opacity:1;stroke-dasharray:none"
       inkscape:connector-curvature="0" />
    <text
       x="119.68513"
       y="54.372307"
       id="text2991"
       xml:space="preserve"
       style="font-size:20px;font-style:normal;font-weight:normal;line-height:125%;letter-spacing:0px;word-spacing:0px;fill:#000000;fill-opacity:1;stroke:none;font-family:Sans"
       sodipodi:linespacing="125%"><tspan
         x="119.68513"
         y="54.372307"
         id="tspan2993"
         style="font-size:20px">I need texture &quot;kitten.png&quot;.</tspan><tspan
         x="119.68513"
         y="79.372307"
         id="tspan2995"
         style="font-size:20px">I'm going to ask </tspan><tspan
         x="119.68513"
         y="104.37231"
         id="tspan2997"
         style="font-size:20px">ResourceManager for it.</tspan></text>
    <rect
       width="212.01472"
       height="116.26661"
       rx="33.849022"
       ry="42.864681"
       x="511.75208"
       y="254.02237"
       id="rect2985-5"
       style="fill:#f88473;fill-opacity:0;stroke:#000000;stroke-width:1.2358911;stroke-miterlimit:4;stroke-opacity:1;stroke-dasharray:none" />
    <text
       x="522.04272"
       y="304.79041"
       id="text3017"
       xml:space="preserve"
       style="font-size:20px;font-style:normal;font-weight:normal;line-height:125%;letter-spacing:0px;word-spacing:0px;fill:#000000;fill-opacity:1;stroke:none;font-family:Sans"
       sodipodi:linespacing="125%"><tspan
         x="522.04272"
         y="304.79041"
         id="tspan3021">Hi, mr. RM.</tspan><tspan
         x="522.04272"
         y="329.79041"
         id="tspan3025">I need &quot;kitten.png&quot;</tspan></text>
    <rect
       width="194.04478"
       height="52.263935"
       rx="30.980049"
       ry="19.268446"
       x="161.65013"
       y="395.89648"
       id="rect2985-5-9"
       style="fill:#f88473;fill-opacity:0;stroke:#000000;stroke-width:0.79272354;stroke-miterlimit:4;stroke-opacity:1;stroke-dasharray:none" />
    <text
       x="172.28966"
       y="428.63174"
       id="text3045"
       xml:space="preserve"
       style="font-size:20px;font-style:normal;font-weight:normal;line-height:125%;letter-spacing:0px;word-spacing:0px;fill:#000000;fill-opacity:1;stroke:none;font-family:Sans"
       sodipodi:linespacing="125%"><tspan
         x="172.28966"
         y="428.63174"
         id="tspan3047">Ok, let me check.</tspan></text>
    <path
       d="m 13.047858,238.50328 710.745562,0"
       id="path3049"
       style="fill:none;stroke:#000000;stroke-width:1px;stroke-linecap:butt;stroke-linejoin:miter;stroke-opacity:1"
       inkscape:connector-curvature="0" />
    <path
       d="m 17.302265,511.87354 710.745565,0"
       id="path3049-3"
       style="fill:none;stroke:#000000;stroke-width:1px;stroke-linecap:butt;stroke-linejoin:miter;stroke-opacity:1"
       inkscape:connector-curvature="0" />
    <path
       d="m 24.06046,739.59393 710.74556,0"
       id="path3049-0"
       style="fill:none;stroke:#000000;stroke-width:1px;stroke-linecap:butt;stroke-linejoin:miter;stroke-opacity:1"
       inkscape:connector-curvature="0" />
    <rect
       width="287.03891"
       height="167.85475"
       rx="45.826942"
       ry="61.88398"
       x="196.30322"
       y="533.56598"
       id="rect2985-5-6"
       style="fill:#f88473;fill-opacity:0;stroke:#000000;stroke-width:1.72785342;stroke-miterlimit:4;stroke-opacity:1;stroke-dasharray:none" />
    <text
       x="217.24644"
       y="572.52722"
       id="text3104"
       xml:space="preserve"
       style="font-size:20px;font-style:normal;font-weight:normal;line-height:125%;letter-spacing:0px;word-spacing:0px;fill:#000000;fill-opacity:1;stroke:none;font-family:Sans"
       sodipodi:linespacing="125%"><tspan
         x="217.24644"
         y="572.52722"
         id="tspan3106">Sorry, dude. That texture</tspan><tspan
         x="217.24644"
         y="597.52722"
         id="tspan3108">is not in RAM.</tspan><tspan
         x="217.24644"
         y="622.52722"
         id="tspan3110">I will have to load it from</tspan><tspan
         x="217.24644"
         y="647.52722"
         id="tspan3112">disk. When loaded you</tspan><tspan
         x="217.24644"
         y="672.52722"
         id="tspan3116">will find it at address 42.</tspan></text>
    <rect
       width="61.825432"
       height="40.291466"
       rx="9.8706846"
       ry="14.854487"
       x="661.75269"
       y="661.79669"
       id="rect2985-5-6-7"
       style="fill:#f88473;fill-opacity:0;stroke:#000000;stroke-width:0.3928799;stroke-miterlimit:4;stroke-opacity:1;stroke-dasharray:none" />
    <text
       x="678.34338"
       y="688.59344"
       id="text3138"
       xml:space="preserve"
       style="font-size:20px;font-style:normal;font-weight:normal;line-height:125%;letter-spacing:0px;word-spacing:0px;fill:#000000;fill-opacity:1;stroke:none;font-family:Sans"
       sodipodi:linespacing="125%"><tspan
         x="678.34338"
         y="688.59344"
         id="tspan3140">Ok</tspan></text>
    <rect
       width="257.33649"
       height="138.15233"
       rx="41.084827"
       ry="50.933414"
       x="211.80545"
       y="818.5827"
       id="rect2985-5-6-0"
       style="fill:#f88473;fill-opacity:0;stroke:#000000;stroke-width:1.48422408;stroke-miterlimit:4;stroke-opacity:1;stroke-dasharray:none" />
    <text
       x="244.58852"
       y="868.26978"
       id="text3160"
       xml:space="preserve"
       style="font-size:20px;font-style:normal;font-weight:normal;line-height:125%;letter-spacing:0px;word-spacing:0px;fill:#000000;fill-opacity:1;stroke:none;font-family:Sans"
       sodipodi:linespacing="125%"><tspan
         x="244.58852"
         y="868.26978"
         id="tspan3162">While the resource</tspan><tspan
         x="244.58852"
         y="893.26978"
         id="tspan3164">is being loaded, I</tspan><tspan
         x="244.58852"
         y="918.26978"
         id="tspan3166">can do other things.</tspan></text>
    <path
       d="m 451.12089,39.641827 a 13.809825,14.73048 0 1 1 -27.61965,0 13.809825,14.73048 0 1 1 27.61965,0 z"
       transform="translate(-202.9506,756.22584)"
       id="path2987-9"
       style="fill:#f88473;fill-opacity:0;stroke:#000000;stroke-width:1.5;stroke-miterlimit:4;stroke-opacity:1;stroke-dasharray:none"
       inkscape:connector-curvature="0" />
    <path
       d="m 451.12089,39.641827 a 13.809825,14.73048 0 1 1 -27.61965,0 13.809825,14.73048 0 1 1 27.61965,0 z"
       transform="matrix(0.77722653,0,0,0.74695571,-140.03236,748.02895)"
       id="path2987-5"
       style="fill:#f88473;fill-opacity:0;stroke:#000000;stroke-width:1.5;stroke-miterlimit:4;stroke-opacity:1;stroke-dasharray:none"
       inkscape:connector-curvature="0" />
  </g>
</svg>
