<?xml version="1.0" encoding="UTF-8" standalone="no"?>
<!-- Created with Inkscape (http://www.inkscape.org/) -->

<svg
   xmlns:dc="http://purl.org/dc/elements/1.1/"
   xmlns:cc="http://creativecommons.org/ns#"
   xmlns:rdf="http://www.w3.org/1999/02/22-rdf-syntax-ns#"
   xmlns:svg="http://www.w3.org/2000/svg"
   xmlns="http://www.w3.org/2000/svg"
   xmlns:sodipodi="http://sodipodi.sourceforge.net/DTD/sodipodi-0.dtd"
   xmlns:inkscape="http://www.inkscape.org/namespaces/inkscape"
   width="726.46759"
   height="496.34256"
   id="svg2"
   version="1.1"
   inkscape:version="0.48.4 r9939"
   inkscape:export-filename="shad.png"
   inkscape:export-xdpi="90"
   inkscape:export-ydpi="90"
   sodipodi:docname="shad.svg">
  <defs
     id="defs4" />
  <sodipodi:namedview
     id="base"
     pagecolor="#ffffff"
     bordercolor="#666666"
     borderopacity="1.0"
     inkscape:pageopacity="0.0"
     inkscape:pageshadow="2"
     inkscape:zoom="0.7"
     inkscape:cx="230.71559"
     inkscape:cy="318.56745"
     inkscape:document-units="px"
     inkscape:current-layer="layer1"
     showgrid="false"
     inkscape:window-width="1280"
     inkscape:window-height="972"
     inkscape:window-x="0"
     inkscape:window-y="0"
     inkscape:window-maximized="1"
     fit-margin-top="2"
     fit-margin-right="2"
     fit-margin-bottom="2"
     fit-margin-left="2" />
  <metadata
     id="metadata7">
    <rdf:RDF>
      <cc:Work
         rdf:about="">
        <dc:format>image/svg+xml</dc:format>
        <dc:type
           rdf:resource="http://purl.org/dc/dcmitype/StillImage" />
        <dc:title></dc:title>
      </cc:Work>
    </rdf:RDF>
  </metadata>
  <g
     inkscape:label="Layer 1"
     inkscape:groupmode="layer"
     id="layer1"
     transform="translate(-11.741538,-187.60842)">
    <path
       style="fill:#000000"
       d="m 401.5,681.46014 c -13.2,-0.41552 -33.55393,-0.81647 -45.23095,-0.89101 -21.16243,-0.13508 -21.23245,-0.14278 -21.69853,-2.38552 -0.25717,-1.2375 -1.39075,-10.44109 -2.51905,-20.45242 -1.64317,-14.57966 -2.03152,-24.03342 -1.95126,-47.5 0.0551,-16.11367 0.46189,-33.79758 0.90394,-39.29758 0.44204,-5.5 1.38772,-33.72419 2.1015,-62.72042 1.12654,-45.76411 1.50207,-52.81749 2.84606,-53.45616 2.81006,-1.33535 179.54366,-1.64888 204.04829,-0.36198 26.98345,1.41707 37.7,2.48912 41.30596,4.1321 l 2.69404,1.22749 0,43.42738 0.89286,44.5881 3.10494,-1.83614 c 7.48909,-4.42876 7.15452,1.32194 3.56393,8.22105 -1.66871,3.20632 -3.05518,6.67156 -0.89852,6.31164 0.46024,0.44364 16.81179,3.96678 36.33679,7.82918 41.04991,8.12044 43.37377,8.75092 43.81955,11.88858 l 0.31955,2.24918 -25.31955,0.0148 c -23.92087,0.014 -50.88025,1.22862 -57.16212,2.57535 -2.68554,0.57573 -1.85761,0.73966 -2.06455,4.25961 -0.1403,2.38642 1.50913,6.51905 2.10526,8.34977 1.13649,3.49017 -0.14647,4.28218 -3.68545,3.2799 L 580,598.23069 l -0.13156,28.48279 c -0.0691,14.97108 -0.40986,32.3951 -0.75,38.7201 L 578.5,676.93361 564,677.68265 c -7.975,0.41198 -26.65,1.44431 -41.5,2.29408 -32.27076,1.84665 -87.82494,2.52772 -121,1.48341 z m 130,-7.04167 c 15.95,-1.18256 31.97171,-1.91962 35.6038,-1.63792 l 6.60381,0.51218 0.64102,-9.67956 c 0.35256,-5.32376 0.64335,-22.86134 0.6462,-38.9724 l 0.005,-29.29284 -4.28672,-4.70716 c -1.14192,-1.25392 -11.60614,-8.93899 -14.28471,-14.81178 -1.33079,-2.91777 11.91073,-13.68366 16.0406,-18.14236 l 6.7125,-7.24697 -0.34084,-42.95369 c -0.23483,-29.5956 -0.68443,-43.29707 -1.4457,-44.05789 -3.59515,-3.593 -52.7366,-5.34512 -144.89513,-5.16617 -41.8,0.0812 -79.5727,0.4905 -83.93932,0.90964 -7.75023,0.74391 -7.95723,0.83351 -8.691,3.76206 -1.10127,4.39527 -4.12938,96.95123 -4.60712,140.81969 -0.37569,34.49639 -0.22662,39.10967 1.69637,52.5 2.55706,17.80549 2.62718,18.04992 5.35772,18.67739 4.67205,1.07364 78.27625,2.30757 118.18335,1.98128 30.38795,-0.24846 50.01785,-0.93786 71,-2.4935 z m -180,-7.31742 c -1.84786,-1.38811 -2.02373,-2.86977 -2.31192,-19.47721 l -0.31193,-17.97481 6.81193,-0.64144 c 8.81026,-0.8296 62.7779,-2.5456 80.56192,-2.56161 7.5625,-0.007 13.75,-0.39766 13.75,-0.86857 0,-0.47091 -1.50378,-2.83341 -3.34173,-5.25 C 443.49526,616.1686 441,612.10642 441,611.11598 c 0,-0.24701 0.9,-0.68446 2,-0.97212 1.51,-0.39487 2,-1.36401 2,-3.95565 l 0,-3.43264 -28.66269,-0.66098 c -15.76448,-0.36354 -36.37847,-0.66098 -45.80887,-0.66098 -19.88203,0 -21.58862,-0.52 -19.67957,-5.99632 C 351.51017,593.5403 352,586.02856 352,577.78439 l 0,-14.35078 28.25,-0.01 c 25.18312,-0.009 66.57161,-1.47872 67.49027,-2.39738 0.19152,-0.19151 -2.17092,-3.85936 -5.24986,-8.15076 -4.80219,-6.69325 -5.36686,-7.93194 -3.9718,-8.71265 0.89444,-0.50056 2.66735,-0.64881 3.9398,-0.32944 2.15662,0.54127 2.36077,0.20256 3.01004,-4.99397 0.38307,-3.06604 0.52347,-5.74766 0.31198,-5.95915 -0.21149,-0.21148 -13.6361,0.009 -29.83248,0.48956 -16.19637,0.48075 -35.17463,0.62667 -42.1739,0.32427 -11.20474,-0.48409 -12.80139,-0.35324 -13.35699,1.09463 -0.34707,0.90489 -1.01706,1.64489 -1.48887,1.64489 -1.7862,0 -2.8856,-4.09496 -4.45605,-16.59755 -0.89136,-7.09635 -2.04161,-14.54176 -2.55611,-16.54536 -1.39423,-5.42957 -0.4886,-6.65159 5.41734,-7.30997 14.72,-1.64094 51.26201,-2.5496 94.16663,-2.34156 26.4,0.12802 59.49761,0.0786 73.55025,-0.10973 14.05264,-0.18837 26.99014,-0.0262 28.75,0.3603 2.98521,0.65566 3.19975,0.98667 3.19975,4.93691 0,4.40005 -2.48842,24.72047 -3.54064,28.91285 l -0.60207,2.39885 -28.67865,-0.10237 c -15.77325,-0.0563 -36.15952,0.28054 -45.30282,0.74853 l -16.62418,0.85091 -0.60147,5.14909 c -0.78287,6.70196 -0.0122,9.34143 2.94431,10.08346 3.6215,0.90893 2.94503,3.11207 -2.84448,9.26404 l -5.25,5.57868 30.5,-0.88854 c 16.775,-0.4887 38.02194,-0.88854 47.21541,-0.88854 21.63307,0 20.34493,-1.14531 19.9999,17.78238 -0.33888,18.59048 -0.73645,20.02319 -5.78578,20.85023 -2.16124,0.354 -22.94805,0.97713 -46.19291,1.38474 l -42.26338,0.7411 -0.5695,2.26906 c -1.06504,4.24346 -0.0617,6.76503 3.09626,7.78107 1.65,0.53087 3.16646,1.10758 3.36991,1.28157 0.20345,0.17399 -1.70905,3.08197 -4.25,6.46218 -2.54095,3.38021 -4.61991,6.55125 -4.61991,7.04675 0,1.10421 -6.00008,0.8719 49.5,1.91659 25.85,0.48658 48.575,1.27188 50.5,1.7451 l 3.5,0.86041 -0.20285,7.22461 c -0.27901,9.93676 -3.04308,25.422 -4.77039,26.72525 -2.85494,2.15405 -50.71766,3.51257 -120.02676,3.40681 -37.95,-0.0579 -71.925,0.1866 -75.5,0.54334 -5.00278,0.49923 -6.96068,0.30257 -8.5,-0.85375 z m 139,-5.76885 c 50.99663,-1.33223 62.88414,-1.92631 63.66815,-3.1818 1.12101,-1.79515 4.15056,-23.73139 3.38346,-24.49876 -1.01052,-1.01086 -186.36491,-0.89983 -195.80161,0.11729 l -7.75,0.83532 0,13.91468 0,13.91468 49.75,-0.0674 c 27.3625,-0.0371 66.4,-0.50237 86.75,-1.03399 z m -30.3106,-47.64391 c 0.54726,-1.08563 -1.854,-1.35869 -3.25761,-1.15971 -2.25119,0.31913 -1.61886,-2.64644 -1.62977,-5.15801 -0.0311,-7.15075 -6.23471,-6.45434 -6.25099,-2.99756 -0.0346,7.34797 1.06772,8.7365 -1.36748,8.22908 -3.2899,-0.6855 0.42254,3.33282 2.97308,5.995 l 2.73229,2.8519 3.30554,-3.20386 c 1.81805,-1.76212 2.90021,-3.37702 3.49494,-4.55684 z m 61.59457,-19.17268 c 14.45619,-0.44914 26.59403,-1.12667 26.97298,-1.50562 0.37895,-0.37895 0.86561,-6.73285 1.08148,-14.11977 0.3584,-12.26479 0.23473,-13.49131 -1.42457,-14.12804 -0.99938,-0.3835 -18.26383,-0.15386 -38.36545,0.51029 -40.74266,1.34614 -87.25196,2.71248 -126.79841,3.72507 l -26.25,0.67213 0,13.54627 0,13.54627 69.25,-0.71499 c 38.0875,-0.39324 81.07779,-1.08246 95.53397,-1.53161 z m -63.72252,-40.22481 5.24105,-4.14281 -2.65125,-1.38913 c -3.00915,-1.57665 -2.99334,-1.52373 -3.08417,-10.32525 l -0.0671,-6.5 -3.75,-0.31037 -3.75,-0.31036 0,5.99527 c 0,7.40263 -1.23974,10.87285 -4.03651,11.29885 -2.0334,0.30972 -1.95626,0.57222 1.49193,5.07661 1.9999,2.6125 4.02517,4.75 4.50059,4.75 0.47542,0 3.22287,-1.86426 6.10544,-4.14281 z M 437,526.77821 c 19.525,-0.87148 53.01821,-1.86804 74.42935,-2.21456 l 38.92935,-0.63004 0.83346,-3 c 0.45841,-1.65 1.11568,-7.08812 1.46062,-12.08472 l 0.62715,-9.08472 -69.38996,-0.63272 c -54.2921,-0.49505 -75.04705,-0.31928 -95.38997,0.80783 -14.3,0.7923 -27.28859,1.45265 -28.86354,1.46744 -2.7888,0.0262 -2.84865,0.13783 -2.29293,4.27689 0.31384,2.3375 0.86189,7.67442 1.21789,11.85983 0.35601,4.18541 0.97623,8.14206 1.37826,8.79257 0.40204,0.65052 3.61758,1.57713 7.14565,2.05916 7.07424,0.96652 17.36699,0.72847 69.91467,-1.61696 z M 57.000001,593.48202 c -20.075,-0.42285 -38.02066,-1.10525 -39.87923,-1.51645 l -3.379233,-0.74764 0.655188,-13.64216 c 0.360353,-7.50319 0.93016,-17.80466 1.266237,-22.89216 l 0.61105,-9.25 14.612988,-0.0874 c 37.27889,-0.22289 95.033479,-1.49977 95.648379,-2.11468 0.37577,-0.37577 -1.91375,-4.36834 -5.08783,-8.87238 -6.40942,-9.09499 -6.47182,-11.15915 -0.35544,-11.75692 4.31311,-0.42153 4.87385,-1.3864 4.89258,-8.41865 l 0.0153,-5.75 -11.8879,0 c -6.53834,0 -22.850849,0.92685 -36.249999,2.05967 -26.87645,2.27224 -53.84255,2.36751 -56.00733,0.19788 -0.98625,-0.98846 -0.92089,-5.03953 0.31974,-19.81696 0.85768,-10.21598 1.95678,-18.97043 2.44245,-19.45433 1.45091,-1.44561 30.96505,-4.88697 51.09476,-5.95767 37.583899,-1.99909 54.289859,-3.67329 54.285739,-5.44029 -10e-4,-0.59857 -2.23474,-4.44245 -4.96299,-8.54197 -2.72826,-4.09952 -4.75708,-7.65705 -4.50851,-7.90562 0.24857,-0.24858 1.93792,-0.71943 3.75411,-1.04633 3.28516,-0.59132 3.29787,-0.61578 2.47025,-4.75304 -0.45754,-2.28727 -1.47881,-4.40691 -2.26949,-4.71032 -0.79068,-0.30342 -9.43483,-0.0713 -19.20922,0.51579 -17.207659,1.03358 -75.689099,0.76904 -76.805569,-0.34743 -0.30313,-0.30313 -0.8265,-9.78874 -1.16304,-21.07913 l -0.61191,-20.52798 6.40445,-0.61945 c 3.52245,-0.3407 25.24616,-1.02316 48.2749,-1.51658 23.028749,-0.49342 42.249319,-1.276 42.712369,-1.73905 0.46306,-0.46306 -0.93635,-3.08636 -3.10981,-5.82956 -2.17346,-2.7432 -3.95653,-5.45147 -3.96237,-6.01839 -0.006,-0.56692 1.37782,-1.55485 3.07481,-2.19539 l 3.08545,-1.16462 -0.62773,-6.80462 c -0.34524,-3.74253 -0.87592,-8.94211 -1.17928,-11.55461 l -0.55156,-4.75 -5.15616,2.5e-4 c -2.83589,1.4e-4 -16.181159,0.68178 -29.656159,1.51476 -13.475,0.83297 -32.5221,1.62036 -42.32688,1.74975 -17.395,0.22954 -17.87111,0.18094 -19.65317,-2.00596 -1.86885,-2.29344 -2.61777,-9.59059 -3.25944,-31.7588 l -0.26051,-9 6.5,-0.63312 c 3.575,-0.34821 18.875,-0.69303 34,-0.76627 24.8774,-0.12046 49.548609,-1.31589 50.688819,-2.45609 0.24272,-0.24273 -1.11667,-4.19954 -3.02087,-8.79292 -1.90419,-4.59338 -3.26769,-8.67167 -3.02998,-9.06287 0.2377,-0.3912 2.01074,-1.0074 3.94008,-1.36935 l 3.50789,-0.65808 -0.29297,-6.63065 -0.29297,-6.63065 -21.999999,0 c -12.1,0 -32.4625,0.37297 -45.25,0.82883 l -23.25,0.82882 0,-15.92795 c 0,-8.76037 0.29091,-19.36944 0.64647,-23.57572 l 0.64647,-7.64777 14.10353,0.48923 c 13.81774,0.47931 84.858699,1.92439 153.853529,3.1296 l 34.75,0.60702 0,20.84879 c 0,20.41942 -0.045,20.87289 -2.18696,22.01921 -1.67147,0.89454 -12.89379,0.88194 -47.61134,-0.0535 -32.36331,-0.87198 -45.73314,-0.91515 -46.49816,-0.15013 -0.59057,0.59057 -1.26955,3.78046 -1.50884,7.08865 l -0.43508,6.01489 3.15157,0 c 1.90363,0 3.3836,0.60463 3.73752,1.52694 0.62947,1.64038 -3.1887,7.75282 -7.19227,11.51398 -1.35104,1.26924 -2.45644,2.8474 -2.45644,3.50703 0,0.90265 10.20363,1.35831 41.25,1.84208 44.91595,0.69989 64.8827,1.45591 66.60775,2.52205 1.65907,1.02536 -1.50683,32.20988 -3.42069,33.69428 -0.82026,0.6362 -8.54687,1.39761 -18.18176,1.7917 -9.21541,0.37693 -28.6803,1.35725 -43.2553,2.17849 -22.72905,1.28068 -26.68734,1.73722 -27.81653,3.2083 -0.97078,1.26471 -1.14894,3.81614 -0.6784,9.71515 0.85372,10.70275 1.05379,11.19931 5.04271,12.51577 1.89872,0.62663 3.45222,1.35902 3.45222,1.62752 0,1.02992 -2.40643,5.00607 -5.14469,8.50061 -3.37818,4.31119 -3.59341,5.32149 -0.81714,3.83567 1.39772,-0.74804 13.74569,-0.99476 39.29603,-0.78518 42.07544,0.34513 41.85496,0.30673 42.99414,7.48782 1.15844,7.30246 1.94551,23.09054 1.28276,25.73117 -0.40728,1.62273 -1.72679,3.06295 -3.38903,3.69909 -3.51058,1.34349 -39.10006,6.54315 -59.72207,8.72546 l -16,1.69319 -0.30347,4.70197 c -0.28619,4.43435 -0.1439,4.73756 2.5,5.32738 5.12282,1.14284 6.30347,1.56816 6.30347,2.2708 0,0.38307 -2.72408,3.71474 -6.0535,7.40371 l -6.05351,6.70721 20.80351,-0.2211 c 11.44192,-0.1216 37.77874,0.4244 58.52627,1.21333 37.24994,1.41644 37.71702,1.46031 37.26517,3.5 -0.25167,1.13607 -1.15732,6.34058 -2.01255,11.56558 -0.85524,5.225 -2.27688,12.9325 -3.15922,17.12777 l -1.60424,7.62777 -5.10597,0.61366 c -2.80828,0.33751 -13.65596,1.07818 -24.10596,1.64593 -30.20795,1.6412 -80.929,5.14353 -81.75,5.64489 -0.4125,0.25191 -0.75,4.03146 -0.75,8.399 0,7.73209 0.0636,7.94098 2.41821,7.94098 3.53677,0 5.58179,1.00531 5.58179,2.74394 0,0.84148 -2.98177,4.86156 -6.62615,8.93352 -3.64439,4.07196 -6.35344,7.67628 -6.02012,8.00961 0.33333,0.33332 7.0276,-0.1408 14.87616,-1.0536 14.55756,-1.69307 78.39307,-5.61878 91.52011,-5.62824 l 7.25,-0.005 -0.0155,8.75 c -0.0211,11.95091 -1.88972,38.55657 -2.76918,39.42861 -1.60556,1.59203 -38.99304,5.78397 -69.71535,7.81659 -22.40432,1.4823 -77.33493,1.96241 -120.499999,1.05321 z M 192,587.00522 c 21.49912,-1.95433 50.83954,-5.35919 51.05618,-5.9249 0.33892,-0.88498 3.68407,-40.23435 3.44123,-40.4795 -0.18131,-0.18303 -8.5799,0.15847 -18.66353,0.75889 -10.08363,0.60042 -28.68388,1.53996 -41.33388,2.08786 -12.65,0.5479 -27.275,1.70374 -32.5,2.56853 -12.6214,2.08898 -54.315049,3.54478 -97.760159,3.41346 -30.45561,-0.0921 -35.33844,0.0974 -35.83463,1.39046 -0.90361,2.35477 -0.99782,35.32839 -0.10353,36.23635 2.5893,2.62888 142.674979,2.58715 171.698319,-0.0512 z m -53.75076,-53.47915 4.76954,-5.74818 -3.90527,-0.25496 c -3.26319,-0.21305 -2.34428,-1.88734 -1.88834,-10.60412 l 0.5017,-9.59155 -3.11344,0.30318 -3.11343,0.30317 -0.0929,10.25955 c -0.0511,5.64275 -0.1664,7.83307 -0.47452,8.14119 -0.3081,0.30812 -1.7421,-0.12311 -4.86945,-0.22657 -2.588,-0.0856 -3.48914,-0.44507 -4.73236,0.29307 -0.85894,0.50999 1.94689,4.22746 6.38732,9.14248 3.9641,4.38779 4.03922,5.80672 10.53115,-2.01726 z m -58.749239,-28.0606 c 29.861099,-2.35965 65.817039,-4.53678 107.999999,-6.5394 42.22152,-2.00444 59.67197,-3.26443 60.79734,-4.3898 0.52151,-0.52151 2.18205,-7.06466 3.69009,-14.54034 l 2.74189,-13.59215 -2.11466,-0.45803 c -1.16306,-0.25192 -13.46891,-1.14521 -27.34632,-1.98509 -33.20594,-2.00966 -69.58309,-2.00285 -82.76834,0.0155 -21.80623,3.33803 -33.03222,4.49244 -57.529249,5.91594 -25.78533,1.49836 -41.41132,2.93184 -50.35724,4.6196 -2.68757,0.50704 -5.01052,0.9219 -5.16211,0.9219 -0.9562,0 -3.69776,29.79237 -2.86548,31.13903 0.92092,1.49008 26.93436,0.94578 52.91408,-1.10717 z m 62.633649,-53.07027 5.03841,-5.03841 -2.70953,-2.13131 c -2.53017,-1.99024 -2.67453,-2.51725 -2.18086,-7.96159 0.58544,-6.45626 0.88338,-6.22584 -6.70518,-5.18571 l -4.70265,0.64457 0.31308,6.10543 c 0.29131,5.68089 0.15663,6.12765 -1.93692,6.42498 -1.2375,0.17575 -2.25,0.69785 -2.25,1.1602 0,1.36034 7.95117,11.02025 9.07087,11.02025 0.5634,0 3.29165,-2.26728 6.06278,-5.03841 z M 115,428.38677 c 39.06097,-2.30994 58.99858,-4.19901 82.24948,-7.79307 13.61221,-2.10414 24.94296,-4.0192 25.17945,-4.25569 0.23649,-0.23648 0.17244,-5.65902 -0.14232,-12.05009 l -0.57229,-11.62011 -3.39108,-1.6171 c -5.28204,-2.51883 -58.96854,-2.30794 -80.82914,0.31751 -10.5344,1.26518 -29.16481,2.29015 -54.499999,2.99838 -21.17176,0.59184 -41.33771,1.33819 -44.81323,1.65854 l -6.31913,0.58246 0.31913,15.33246 c 0.17552,8.43286 0.625,15.63708 0.99884,16.00939 2.44413,2.43409 44.27426,2.65767 81.820289,0.43732 z m 21.42268,-46.31097 c 5.03245,-5.89055 5.616,-7.64219 2.54594,-7.64219 -2.6532,0 -2.78134,-0.48581 -3.69291,-14 l -0.77571,-11.5 -3,-0.26052 c -5.60292,-0.48655 -5.98264,0.44036 -4.68093,11.4265 0.64086,5.40871 1.44634,11.07225 1.78995,12.58564 0.56046,2.46843 0.30397,2.81578 -2.49213,3.375 C 124.4026,376.40309 123,377.00351 123,377.3945 c 0,1.10497 7.1697,10.03911 8.05645,10.03911 0.4339,0 2.8487,-2.41102 5.36623,-5.35781 z M 106,345.43028 c 25.025,-1.60433 62.15,-3.87672 82.5,-5.04976 20.35,-1.17305 37.16285,-2.29133 37.36188,-2.48507 0.41339,-0.40241 3.05627,-20.87795 3.10559,-24.06037 0.0318,-2.05248 -0.47847,-2.11393 -23.25603,-2.80049 -37.8223,-1.14005 -86.92861,-0.7511 -107.423529,0.85085 -11.39677,0.89081 -29.09485,1.38584 -44.98763,1.25835 -17.23412,-0.13826 -26.559,0.149 -27.24962,0.83943 -1.20997,1.20965 0.0747,32.22619 1.42529,34.41148 1.01732,1.64606 14.61514,1.13271 78.524049,-2.96442 z m 17.75,-47.86456 c 2.3375,-2.86387 4.25,-5.53347 4.25,-5.93244 0,-0.39898 -1.0125,-1.17092 -2.25,-1.71543 -2.09664,-0.92254 -2.22856,-1.51566 -1.9355,-8.70189 0.30628,-7.51028 0.24895,-7.72832 -2.19317,-8.34125 C 117.58147,271.86077 117,272.99966 117,281.92621 l 0,8.37456 -2.75,0.31642 c -1.87324,0.21554 -2.70776,0.86213 -2.61751,2.02805 0.21437,2.76925 5.41465,10.93906 6.69363,10.5159 0.64563,-0.21361 3.08638,-2.73155 5.42388,-5.59542 z m 97.54253,-44.00624 c -0.1141,-9.55578 -0.3391,-17.4807 -0.5,-17.61094 -0.16089,-0.13023 -33.81753,-0.78873 -74.79253,-1.46331 -40.975,-0.67459 -84.399999,-1.57702 -96.499999,-2.00541 -12.1,-0.42838 -22.20119,-0.60034 -22.44708,-0.38213 -0.24589,0.21821 -0.47089,8.82056 -0.5,19.11633 l -0.0529,18.71959 15,-0.5 c 22.78141,-0.75938 94.800129,-0.31942 123.499999,0.75447 14.025,0.52478 32.475,0.90721 41,0.84984 l 15.5,-0.10431 -0.20747,-17.37413 z m 466.54261,340.2012 c -0.91567,-0.24251 -1.9027,-1.06074 -2.1934,-1.81829 -0.2907,-0.75755 0.99332,-8.26943 2.85337,-16.69307 1.86005,-8.42364 3.98779,-18.46571 4.72831,-22.31571 1.23984,-6.44595 1.61477,-7.12727 4.73689,-8.608 1.86477,-0.88441 3.77002,-2.63399 4.2339,-3.88797 0.81572,-2.20508 0.90847,-2.22108 2.8246,-0.48701 1.78794,1.61807 1.98119,1.63153 1.98119,0.13797 0,-2.06895 1.3617,-2.12902 3.01812,-0.13316 1.1141,1.34242 1.43519,1.27599 2.72359,-0.56345 1.38661,-1.97967 1.55675,-1.99825 3.35944,-0.36684 1.79648,1.6258 2.0053,1.6221 3.87342,-0.0685 1.91489,-1.73295 2.0067,-1.70248 3.03716,1.00785 0.8076,2.12413 1.34164,2.51577 2.22543,1.63198 1.75332,-1.75332 2.90276,-1.39603 7.11742,2.21238 l 3.85457,3.30012 -1.56102,9.91233 c -0.85857,5.45178 -1.99056,13.18956 -2.51554,17.19506 -0.54395,4.15022 -2.0158,9.31176 -3.4219,12 l -2.46739,4.71727 -8.87165,0.7203 c -4.87941,0.39616 -11.60851,1.18366 -14.95356,1.75 -6.13066,1.03795 -11.51367,1.16965 -14.58295,0.35677 z m 19.87003,-3.99179 11.20516,-1.68995 1.10582,-5.07266 c 6.40082,-29.36228 6.86225,-32.98913 4.59206,-36.09379 -1.2178,-1.66545 -1.60492,-1.7265 -3.09677,-0.48837 -1.4858,1.2331 -1.8275,1.19611 -2.65791,-0.28775 -1.34561,-2.40448 -2.53341,-2.11437 -3.26417,0.79724 -0.7339,2.92408 -2.08468,3.21504 -3.48191,0.75 -0.92914,-1.63921 -1.08664,-1.62338 -2.48787,0.25 -1.47686,1.97452 -1.51421,1.97532 -2.93103,0.0631 -1.40571,-1.89727 -1.44933,-1.89215 -2.12922,0.25 -0.73835,2.32634 -2.04245,2.83229 -3.05933,1.18694 -1.67073,-2.7033 -3.20206,-0.41413 -4.84984,7.25 -6.36865,29.62167 -6.72055,31.74996 -5.59677,33.84977 0.80023,1.49524 1.73282,1.92345 3.28223,1.50708 1.19041,-0.31989 7.20671,-1.3421 13.36955,-2.27157 z m -4.92874,-8.95266 c 2.98339,-0.71632 11.50788,0.42307 13.55584,0.63834 2.04796,0.21487 2.14387,0.89279 -9.83227,0.63662 -4.4,-0.004 -13.77802,-0.17944 -11.42598,-0.39069 z m 1.12627,-5.74747 c 2.35204,-0.21124 12.89684,0.42308 14.9448,0.63835 2.04796,0.21487 -6.9475,0.38771 -11.3475,0.38408 -11.47107,0.37481 -14.03056,-0.17944 -11.67852,-0.39069 z m -6.15431,-6.81227 c -0.45477,-0.73584 6.88881,-0.82288 12.85926,-0.82288 4.79913,0 8.53818,0.17028 8.30902,0.37839 -1.16391,1.05699 -20.56161,1.42609 -21.16828,0.44449 z M 703,562.43361 c 0,-0.55 0.42344,-1 0.94098,-1 0.51754,0 1.2191,0.45 1.55902,1 0.33992,0.55 -0.0835,1 -0.94098,1 -0.85746,0 -1.55902,-0.45 -1.55902,-1 z m 10.5,-1 c 1.1,-0.47269 3.575,-0.83782 5.5,-0.8114 l 3.5,0.048 -3,0.76337 c -1.65,0.41985 -4.125,0.78498 -5.5,0.8114 -2.26846,0.0436 -2.31477,-0.0316 -0.5,-0.8114 z m -11.5,-5 c 0,-0.55 1.125,-1 2.5,-1 1.375,0 2.5,0.45 2.5,1 0,0.55 -1.125,1 -2.5,1 -1.375,0 -2.5,-0.45 -2.5,-1 z m 12,-0.95431 c 0.825,-0.55829 2.3625,-1.02196 3.41667,-1.03038 2.55844,-0.0204 1.76026,0.55192 -1.91667,1.37439 -2.19092,0.49007 -2.59546,0.3973 -1.5,-0.34401 z m 13.12646,26.70643 c 1.98899,-3.89875 5.8728,-23.87031 5.8733,-30.20212 1.8e-4,-2.22724 -0.28218,-2.66758 -1.15249,-1.79727 -1.13916,1.13916 -8.82632,32.05804 -8.84013,35.55629 -0.0104,2.63984 1.72044,1.1453 4.11932,-3.5569 z m -410.98842,-64.7169 c -11.94319,-9.93922 -23.45556,-24.46071 -48.38763,-61.03522 -17.1903,-25.2176 -20.86265,-30.24696 -23.22842,-27.75945 -1.00349,1.05513 -3.02313,5.37374 -3.98711,2.67728 -1.31857,-0.81493 -5.55767,-16.12822 -8.02861,-25.25661 -1.91715,-7.08251 -1.58488,-9.66122 1.24487,-9.66122 1.82657,0 25.11426,13.66322 28.48142,16.71047 1.73588,1.57094 2.44502,2.76419 -0.71188,4.26795 -2.10067,1.00063 -3.45818,2.47632 -3.45818,2.94201 0,0.46569 7.125,9.07186 14.6875,18.47007 15.24171,18.94147 45.01229,50.07578 50.81142,53.13899 2.05176,1.08378 4.62792,3.17488 5.72481,4.64689 l 1.99434,2.67638 -2.17097,9.39492 c -2.07699,8.98823 -4.19514,13.75232 -6.11439,13.75232 -0.49026,0 -3.57598,-2.23415 -6.85717,-4.96478 z M 506,444.21237 c -5.225,-0.46296 -45.93279,-1.02116 -90.46175,-1.24043 l -80.96175,-0.39868 -1.35868,-3.81983 c -0.94944,-2.66925 -1.41277,-9.99462 -1.53825,-24.31982 -0.26481,-30.231 2.47901,-216.38343 3.20141,-217.19797 1.47211,-1.65985 14.5604,-2.83471 42.11902,-3.78077 16.225,-0.55698 44.90463,-1.75476 63.73252,-2.66173 35.47036,-1.70865 42.75426,-1.66227 118.01748,0.75138 l 39.25,1.25872 0,61.38257 0,61.38258 2.25,-0.77091 c 1.2375,-0.42399 3.6,-0.79182 5.25,-0.81738 3.746,-0.0581 3.51489,1.37472 1.54402,5.91367 -2.57904,5.93957 -3.91237,4.45943 29.72788,3.82802 17.47454,-0.32799 33.44954,-0.28162 35.5,0.10305 7.58655,1.42325 2.55308,7.81204 -7.23933,9.18859 -7.12474,1.00155 -37.43214,7.21665 -49.29442,10.10875 l -10.76185,2.6238 0.64995,6.34381 c 0.70232,6.85506 0.57163,7.00596 -4.52807,5.2282 -1.76015,-0.61359 -3.38604,-0.92985 -3.61309,-0.70281 -0.82925,0.82926 -5.48724,55.52163 -5.55921,65.27425 -0.0408,5.5243 -0.37827,12.06918 -0.75,14.54418 l -0.67588,4.5 -8.5,1.17686 c -4.675,0.64728 -19.75,1.44994 -33.5,1.78371 -13.75,0.33376 -26.8,0.73128 -29,0.88339 -2.2,0.1521 -8.275,-0.10224 -13.5,-0.5652 z m 64.21188,-6.68374 c 7.54153,-0.37699 14.04233,-1.01589 14.44622,-1.41978 0.40389,-0.40389 1.086,-7.13355 1.5158,-14.95479 0.4298,-7.82125 1.46077,-21.19545 2.29104,-29.72045 0.83028,-8.525 1.79852,-21.125 2.15165,-28 l 0.64205,-12.5 -7.50942,-4.25 c -4.13018,-2.3375 -7.75708,-4.25 -8.05977,-4.25 -0.30269,0 -0.69415,1.0125 -0.8699,2.25 -0.58734,4.13552 -7.83957,4.79392 -59.81955,5.43077 -33.33225,0.40838 -47.71913,0.91561 -48.23469,1.7006 -0.96918,1.47567 -0.94437,8.78868 0.0351,10.32984 0.42335,0.66617 2.44146,1.90971 4.48469,2.76342 2.04322,0.85372 3.71495,1.78399 3.71495,2.06727 0,0.28329 -2.48028,4.13668 -5.51173,8.56309 -3.03145,4.42642 -5.2549,8.4636 -4.94098,8.97152 0.31391,0.50792 4.93169,0.9264 10.26173,0.92996 21.25243,0.0142 87.7422,4.73288 92.51916,6.56597 1.437,0.55143 1.65997,2.27689 1.58744,12.28455 -0.091,12.55486 -1.05196,22.61269 -2.27763,23.83835 -2.00937,2.00937 -143.34637,3.50827 -182.98667,1.9406 l -21.84869,-0.86406 -1.53783,-3.63594 c -1.89547,-4.48152 -2.76206,-19.00626 -1.81342,-30.39448 l 0.71002,-8.52374 3.1693,-0.74946 c 1.74312,-0.4122 23.04496,-1.02369 47.33743,-1.35886 24.29248,-0.33517 44.45228,-0.8942 44.79957,-1.2423 0.34728,-0.34809 -1.41588,-4.00508 -3.91814,-8.12664 -5.11828,-8.4305 -5.5456,-10.4599 -2.29956,-10.92091 1.88682,-0.26797 2.30097,-1.03296 2.56579,-4.73934 0.562,-7.86563 -0.0798,-8.84168 -5.54842,-8.43835 -2.62205,0.19338 -18.71737,0.81376 -35.76737,1.37862 -17.05,0.56486 -36.9625,1.31109 -44.25,1.6583 l -13.25,0.63128 0,-13.97353 c 0,-17.54043 1.50866,-23.68657 6.30629,-25.69115 4.66749,-1.9502 8.07015,-2.32419 51.37017,-5.64612 21.54705,-1.65308 39.88455,-3.27731 40.75,-3.60941 2.37689,-0.91212 2.00387,-1.78165 -3.42651,-7.98725 -5.59907,-6.39837 -6.19538,-8.4026 -2.5,-8.4026 2.26483,0 2.5,-0.39016 2.5,-4.14763 l 0,-4.14763 -16.25,0.696 c -8.9375,0.38279 -28.77224,2.27821 -44.07721,4.21204 C 351.09321,290.54199 354,291.84229 354,271.43079 c 0,-19.42041 1.00259,-22.40308 8.03769,-23.91184 7.95589,-1.70624 34.14798,-4.90324 53.96231,-6.58664 40.00724,-3.39896 141.53344,-4.97073 143.81103,-2.22639 0.70894,0.85421 0.86329,8.06626 0.46973,21.94712 l -0.58619,20.67482 -5.59729,0.7026 c -5.6108,0.70429 -48.07544,-0.002 -74.91242,-1.24614 l -14.31514,-0.66359 0.31514,4.37436 c 0.28641,3.97562 0.61139,4.45884 3.56514,5.3011 1.82808,0.52128 3.25,1.58934 3.25,2.44121 0,0.83296 -1.78312,3.8762 -3.96249,6.76275 -4.84221,6.41347 -4.81008,6.43346 10.33856,6.43346 15.53936,0 65.62762,1.87253 80.03265,2.99198 6.5498,0.50901 12.3418,1.35854 12.87112,1.88786 0.52932,0.52932 1.41853,5.0479 1.97603,10.04128 0.5575,4.99338 1.37724,9.07888 1.82166,9.07888 0.44442,0 4.32128,-2.40691 8.61525,-5.34868 l 7.80722,-5.34868 0.59917,-24.90132 c 0.32955,-13.69573 0.77955,-40.65132 1,-59.90132 l 0.40083,-35 -39,-1.66339 c -44.67349,-1.90537 -91.29239,-2.24494 -109.5,-0.79758 -6.875,0.5465 -30.05,1.42803 -51.5,1.95894 -35.07801,0.86821 -51.82648,1.99848 -53.43942,3.60636 -0.7162,0.71394 -1.59998,53.63332 -2.59101,155.14567 l -0.78346,80.25 67.40695,0.13037 c 37.07381,0.0717 75.95694,0.46081 86.40694,0.86469 19.2924,0.74562 54.81444,0.34454 79.71188,-0.90004 z M 484,425.38237 c 6.325,-0.5147 26.92842,-1.23246 45.78538,-1.59502 18.85696,-0.36257 34.47785,-0.97064 34.71309,-1.35127 0.9954,-1.61058 1.73456,-24.74041 0.80892,-25.31249 -1.86396,-1.15199 -40.93549,-4.67048 -63.80739,-5.74601 -25.5094,-1.19956 -120.66716,-1.51362 -130.77092,-0.4316 -3.54063,0.37917 -7.03532,1.05886 -7.76596,1.51042 -1.65055,1.0201 -2.61918,21.7709 -1.25927,26.97721 0.84919,3.25104 1.26567,3.55201 5.85518,4.23113 13.95162,2.06446 97.10537,3.29107 116.44097,1.71763 z m -19.24206,-50.2043 C 467.09107,371.73753 469,368.56412 469,368.12605 c 0,-0.43806 -1.30725,-1.25219 -2.90501,-1.80917 -2.73747,-0.95429 -2.94623,-1.42708 -3.61981,-8.19798 -0.74271,-7.46587 -1.45293,-8.6443 -5.22518,-8.66998 -2.15563,-0.0147 -2.25,0.33632 -2.25,8.36806 0,7.71277 -0.17037,8.42792 -2.12988,8.94034 -1.421,0.3716 -1.93101,1.07522 -1.53237,2.11407 1.0656,2.7769 7.61482,12.56222 8.40777,12.56222 0.4237,0 2.67929,-2.81499 5.01242,-6.25554 z M 398,348.4514 c 9.075,-0.48416 50.025,-1.59947 91,-2.47847 40.975,-0.87901 76.02165,-1.84143 77.88144,-2.13873 l 3.38144,-0.54053 -0.68472,-12.68003 c -0.3766,-6.97402 -0.90453,-13.43115 -1.17317,-14.34918 -0.62259,-2.12756 -3.54916,-2.55899 -25.90499,-3.81882 -55.808,-3.14498 -60.6424,-3.144 -108.85017,0.022 -59.99246,3.94001 -71.30261,5.19013 -74.32808,8.21561 -2.32871,2.32871 -4.37774,22.83487 -2.71476,27.16853 0.50894,1.32628 2.5685,1.57356 12.75,1.53083 6.67865,-0.028 19.56801,-0.44709 28.64301,-0.93125 z m 64.87264,-49.49545 C 465.14269,296.49324 467,294.04813 467,293.52238 c 0,-0.52576 -1.23662,-1.09832 -2.74806,-1.27235 -2.36158,-0.27192 -2.88896,-0.94928 -3.75,-4.81642 -1.29845,-5.8317 -2.12226,-7 -4.93596,-7 -2.36882,0 -3.56598,2.87888 -3.56598,8.57531 0,1.27892 -0.77813,2.76078 -1.72919,3.29301 -1.61994,0.90657 -1.60597,1.11502 0.22118,3.29969 4.21616,5.04112 6.91286,7.83199 7.56774,7.83199 0.37705,0 2.54286,-2.01495 4.81291,-4.47766 z M 386.31676,280.50982 C 426.1851,275.2551 430.4108,275.07254 495.25,275.80367 l 59.75,0.67375 0,-16.91687 0,-16.91687 -4.25,-0.43396 c -7.16059,-0.73115 -98.42116,1.06885 -112.25,2.21399 -37.49719,3.10507 -65.75189,6.24721 -72.71339,8.08628 C 359.74346,254.10645 359,256.09433 359,270.65612 l 0,12.77749 2.56676,0 c 1.41171,0 12.54921,-1.31571 24.75,-2.92379 z M 695.51377,349.685 c -6.29496,0.20069 -11.31092,-0.64854 -11.70778,-1.0454 -1.31133,-1.31133 1.19115,-44.4558 2.73806,-47.20599 0.7734,-1.375 1.69487,-3.2875 2.0477,-4.25 0.35283,-0.9625 1.10192,-1.75 1.66464,-1.75 0.56272,0 1.62092,0.7875 2.35156,1.75 1.26518,1.66667 1.32996,1.66667 1.36025,0 0.0389,-2.14071 1.87855,-2.31295 2.67017,-0.25 0.31659,0.825 1.20246,1.5 1.96862,1.5 0.76615,0 1.39301,-0.675 1.39301,-1.5 0,-2.02254 1.90572,-1.90927 2.69995,0.16047 0.54534,1.42113 0.75238,1.34906 1.43639,-0.5 1.06978,-2.89188 2.68177,-2.73338 3.45302,0.33953 0.7556,3.01057 1.98436,3.23808 2.70039,0.5 0.72106,-2.75734 2.36601,-2.50771 3.11401,0.47257 0.52978,2.11081 1.04423,2.38783 3.5162,1.89344 4.44946,-0.88989 5.41745,1.96503 5.89879,17.39748 0.8724,27.97023 -0.94943,33.42815 -11.0233,33.02413 -2.9125,-0.11681 -10.23969,-0.72885 -16.28168,-0.53623 z m 19.63179,-4.06795 c 0.68771,-0.72808 1.30334,-20.70586 1.02306,-33.19968 L 716,304.90113 l -5.25,-0.13748 c -2.8875,-0.0756 -7.725,-0.2683 -10.75,-0.42818 -3.91659,-0.20701 -6.25527,0.20635 -8.12345,1.43581 -2.46105,1.61964 -2.66398,2.35907 -3.27796,11.94442 -0.35997,5.61985 -0.92532,14.33617 -1.25634,19.36959 -0.55125,8.38255 -0.44385,9.19763 1.27796,9.69837 2.49921,0.72682 25.70073,-0.2936 26.52535,-1.16661 z m -22.51916,-7.84833 c 1.36264,-0.8614 19.2627,-1.81754 18.29027,-0.97342 -0.22917,0.19892 -3.79104,0.63212 -7.91527,0.96266 -4.88365,0.39139 -11.351,0.62774 -10.375,0.0108 z m 1.32322,-5.79279 c 1.34729,-0.72949 3.03479,-1.1018 3.75,-0.82735 2.39868,0.92047 1.32327,1.78346 -2.4541,1.96937 -3.64614,0.17944 -3.68052,0.14914 -1.2959,-1.14202 z m 8.55038,0.45768 c 0.33992,-0.55 2.50398,-0.95514 4.80902,-0.90032 3.57945,0.0851 3.82619,0.21651 1.69098,0.90032 -3.63936,1.16553 -7.22033,1.16553 -6.5,0 z m -4.17857,-7.39563 c 3.30504,-0.36653 7.97857,-0.3829 10.17857,-0.37752 3.79954,0.009 3.84966,0.048 1,0.77315 -1.65,0.41985 -6.15,0.75045 -10,0.73466 l -8.69643,-0.29656 z m -2.83929,-5.89008 c -5.47952,-0.6062 -1.87055,-1.72257 6.80357,-1.53579 6.25875,0.13478 9.31433,0.30908 7.71429,0.8215 -2.81066,0.90013 -6.38152,1.61442 -14.51786,0.71429 z m -0.83138,-7.94898 c -0.63292,-0.40408 9.0171,-1.03129 14.2421,-0.95731 9.68116,0.13709 3.26578,0.90174 -7.2421,1.40941 -3.21708,0.15542 -6.36708,-0.048 -7,-0.4521 z m 26.68379,22.52001 c 0.69481,-10.62651 -0.10931,-23.28532 -1.47915,-23.28532 -0.47047,0 -0.8554,7.67656 -0.8554,17.05902 0,18.48814 1.3052,21.96914 2.33455,6.2263 z M 236.2,333.23361 c -0.66,-0.66 -1.2,-2.04454 -1.2,-3.07675 0,-1.88478 18.76974,-30.72325 19.99647,-30.72325 0.36019,0 1.71178,1.125 3.00353,2.5 1.29175,1.375 2.68515,2.5 3.09646,2.5 0.41131,0 4.50788,-2.8359 9.1035,-6.302 15.33652,-11.56709 45.52714,-28.698 50.57584,-28.698 2.73255,0 3.2242,1.76609 3.2242,11.58179 0,7.80635 -0.14826,8.41821 -2.03984,8.41821 -2.82598,0 -8.24263,2.90162 -20.51118,10.98754 -20.29659,13.37702 -31.23705,15.46575 -29.59555,21.65259 0,1.77873 4.14696,7.49242 0.89657,7.37483 -0.6871,-0.0249 -8.67498,1.13322 -17.74995,2.5 -19.35719,2.91537 -17.30968,2.77541 -18.80005,1.28504 z"
       id="path3101"
       inkscape:connector-curvature="0"
       sodipodi:nodetypes="sssssssssscccsscsscssssscsscssscscsscssscsssssssssccsscscssssscsssscscssssccscsssssscsscsscssscssssscssssssscssssscssscccsccsssssscsssssssscccssccsscccssssccsscsscsssssssscscsscssssscsssssscscsscssscsssscscsscssssscsscscscccsscsscsscssssscsssssssssssssssssssscsssscssssscsscsssscsccsssccccsssssssccscsscccscsssscssscsssssssccscssscssssssscscsssscsssssscssssssssssssssssssssssscsssscssssscsssccccsssssssssssssscssscssccccsssssssssssssccccccccccccssssssssscccssccsssssscsssssssssscsssssssscssssscsssssscccscssssscsscsscssssssssscssssscssscssssscsscssssssssscssscssscssssssscsscsssssssssscsscssssscssssssssssssssssscssssscsscsssssssccsssssssssssscccsssscssssssssscssssssssssssscsssssssscsssssssssssscscsscsscsscssssssssssssssscsss" />
    <text
       xml:space="preserve"
       style="font-size:14px;font-style:normal;font-weight:normal;line-height:125%;letter-spacing:0px;word-spacing:0px;fill:#000000;fill-opacity:1;stroke:none;font-family:Sans;-inkscape-font-specification:Sans"
       x="63"
       y="254.36218"
       id="text3122"
       sodipodi:linespacing="125%"><tspan
         sodipodi:role="line"
         id="tspan3124"
         x="63"
         y="254.36218">glCreateProgram()</tspan></text>
    <text
       xml:space="preserve"
       style="font-size:14px;font-style:normal;font-weight:normal;line-height:125%;letter-spacing:0px;word-spacing:0px;fill:#000000;fill-opacity:1;stroke:none;font-family:Sans;-inkscape-font-specification:Sans"
       x="67.714287"
       y="330.93362"
       id="text3126"
       sodipodi:linespacing="125%"><tspan
         sodipodi:role="line"
         id="tspan3128"
         x="67.714287"
         y="330.93362">glAttachShader()</tspan></text>
    <text
       xml:space="preserve"
       style="font-size:14px;font-style:normal;font-weight:normal;line-height:125%;letter-spacing:0px;word-spacing:0px;fill:#000000;fill-opacity:1;stroke:none;font-family:Sans;-inkscape-font-specification:Sans"
       x="69.571426"
       y="413.07648"
       id="text3130"
       sodipodi:linespacing="125%"><tspan
         sodipodi:role="line"
         id="tspan3132"
         x="69.571426"
         y="413.07648">glAttachShader()</tspan></text>
    <text
       xml:space="preserve"
       style="font-size:14px;font-style:normal;font-weight:normal;line-height:125%;letter-spacing:0px;word-spacing:0px;fill:#000000;fill-opacity:1;stroke:none;font-family:Sans;-inkscape-font-specification:Sans"
       x="79"
       y="486.79074"
       id="text3134"
       sodipodi:linespacing="125%"><tspan
         sodipodi:role="line"
         id="tspan3136"
         x="79"
         y="486.79074">glLinkProgram()</tspan></text>
    <text
       xml:space="preserve"
       style="font-size:14px;font-style:normal;font-weight:normal;line-height:125%;letter-spacing:0px;word-spacing:0px;fill:#000000;fill-opacity:1;stroke:none;font-family:Sans;-inkscape-font-specification:Sans"
       x="78.571426"
       y="572.36218"
       id="text3138"
       sodipodi:linespacing="125%"><tspan
         sodipodi:role="line"
         id="tspan3140"
         x="78.571426"
         y="572.36218">glUseProgram()</tspan></text>
    <text
       xml:space="preserve"
       style="font-size:14px;font-style:normal;font-weight:normal;line-height:125%;letter-spacing:0px;word-spacing:0px;fill:#000000;fill-opacity:1;stroke:none;font-family:Sans;-inkscape-font-specification:Sans"
       x="395.71429"
       y="264.50504"
       id="text3142"
       sodipodi:linespacing="125%"><tspan
         sodipodi:role="line"
         id="tspan3144"
         x="395.71429"
         y="264.50504">glCreateShader()</tspan></text>
    <text
       xml:space="preserve"
       style="font-size:14px;font-style:normal;font-weight:normal;line-height:125%;letter-spacing:0px;word-spacing:0px;fill:#000000;fill-opacity:1;stroke:none;font-family:Sans;-inkscape-font-specification:Sans"
       x="397"
       y="333.64789"
       id="text3146"
       sodipodi:linespacing="125%"><tspan
         sodipodi:role="line"
         id="tspan3148"
         x="397"
         y="333.64789">glShaderSource()</tspan></text>
    <text
       xml:space="preserve"
       style="font-size:14px;font-style:normal;font-weight:normal;line-height:125%;letter-spacing:0px;word-spacing:0px;fill:#000000;fill-opacity:1;stroke:none;font-family:Sans;-inkscape-font-specification:Sans"
       x="400"
       y="410.21933"
       id="text3150"
       sodipodi:linespacing="125%"><tspan
         sodipodi:role="line"
         id="tspan3152"
         x="400"
         y="410.21933">glCompileShader()</tspan></text>
    <text
       xml:space="preserve"
       style="font-size:14px;font-style:normal;font-weight:normal;line-height:125%;letter-spacing:0px;word-spacing:0px;fill:#000000;fill-opacity:1;stroke:none;font-family:Sans;-inkscape-font-specification:Sans"
       x="393.28571"
       y="516.36218"
       id="text3154"
       sodipodi:linespacing="125%"><tspan
         sodipodi:role="line"
         id="tspan3156"
         x="393.28571"
         y="516.36218">glCreateShader()</tspan></text>
    <text
       xml:space="preserve"
       style="font-size:14px;font-style:normal;font-weight:normal;line-height:125%;letter-spacing:0px;word-spacing:0px;fill:#000000;fill-opacity:1;stroke:none;font-family:Sans;-inkscape-font-specification:Sans"
       x="391"
       y="584.50507"
       id="text3158"
       sodipodi:linespacing="125%"><tspan
         sodipodi:role="line"
         id="tspan3160"
         x="391"
         y="584.50507">glShaderSource()</tspan></text>
    <text
       xml:space="preserve"
       style="font-size:14px;font-style:normal;font-weight:normal;line-height:125%;letter-spacing:0px;word-spacing:0px;fill:#000000;fill-opacity:1;stroke:none;font-family:Sans;-inkscape-font-specification:Sans"
       x="388.85715"
       y="649.50507"
       id="text3162"
       sodipodi:linespacing="125%"><tspan
         sodipodi:role="line"
         id="tspan3164"
         x="388.85715"
         y="649.50507">glCompileShader()</tspan></text>
    <text
       xml:space="preserve"
       style="font-size:14px;font-style:normal;font-weight:normal;line-height:125%;letter-spacing:0px;word-spacing:0px;fill:#000000;fill-opacity:1;stroke:none;font-family:Sans;-inkscape-font-specification:Sans"
       x="384.85715"
       y="476.64789"
       id="text3166"
       sodipodi:linespacing="125%"><tspan
         sodipodi:role="line"
         id="tspan3168"
         x="384.85715"
         y="476.64789">FRAGMENT SHADER</tspan></text>
    <text
       xml:space="preserve"
       style="font-size:14px;font-style:normal;font-weight:normal;line-height:125%;letter-spacing:0px;word-spacing:0px;fill:#000000;fill-opacity:1;stroke:none;font-family:Sans;-inkscape-font-specification:Sans"
       x="401"
       y="218.07648"
       id="text3170"
       sodipodi:linespacing="125%"><tspan
         sodipodi:role="line"
         id="tspan3172"
         x="401"
         y="218.07648">VERTEX SHADER</tspan></text>
  </g>
</svg>
